<?xml version="1.0" encoding="utf-8"?>
<!-- Generator: Adobe Adobe Illustrator 24.2.0, SVG Export Plug-In . SVG Version: 6.00 Build 0)  -->
<svg version="1.1" xmlns="http://www.w3.org/2000/svg" xmlns:xlink="http://www.w3.org/1999/xlink" x="0px" y="0px" width="1302px"
	 height="350.7px" viewBox="0 0 1302 350.7" style="enable-background:new 0 0 1302 350.7;" xml:space="preserve">
<style type="text/css">
	.st0{display:none;}
	.st1{display:inline;}
	.st2{display:inline;fill:#F02C1C;}
	.st3{display:none;fill:#F02C1C;}
	.st4{fill:#F02C1C;}
	.st5{fill:#FFFFFF;}
</style>
<g id="Layer_2" class="st0">
</g>
<g id="Layer_9" class="st0">
	<rect x="0" y="-47.2" class="st1" width="1950" height="1170"/>
</g>
<g id="Layer_3">
</g>
<g id="Layer_5" class="st0">
</g>
<g id="Layer_4">
</g>
<g id="Layer_6">
	<g>
		<polygon class="st4" points="7.24,301.71 28.34,318.58 2.97,350.7 62.21,318.91 46.11,297.51 68.84,264.98 		"/>
		<polygon class="st4" points="1152.11,89.75 1169.45,102.18 1148.6,125.84 1197.29,102.42 1184.06,86.66 1202.74,62.68 		"/>
		<polygon class="st4" points="1285.55,253 1286.21,282.55 1261.53,265.87 1250.74,216.38 		"/>
		<polygon class="st4" points="1262.77,151.87 1287.82,136.17 1286.13,165.92 1249.13,200.51 		"/>
		<polygon class="st4" points="1282.34,188 1302,194.68 1292.27,213.38 1259.9,211.15 		"/>
		<polygon class="st4" points="11.45,102.08 0,74.34 28.19,76.06 56.01,116.97 		"/>
		<polygon class="st4" points="42.91,76.11 51.03,53.51 71.81,67.16 68.31,105.36 		"/>
		<g>
			<polygon class="st4" points="623.48,79.1 637.94,89.37 620.56,108.93 661.15,89.57 650.12,76.54 665.69,56.73 			"/>
			<g>
				<polygon class="st4" points="551.76,113.3 546.74,151.32 564.17,165.28 543.63,174.82 538.61,212.84 530.95,180.72 
					510.41,190.26 526.2,160.86 518.54,128.74 535.97,142.69 				"/>
			</g>
			<polygon class="st4" points="552.12,87.37 588.06,66.31 586.46,95.96 656.05,34.95 607.92,41.39 610.37,0 572.36,36.48 
				547.09,11.43 			"/>
			<polygon class="st4" points="583.66,235.74 584.08,254.23 568.64,243.79 561.89,212.84 			"/>
			<polygon class="st4" points="554.35,230.21 546.89,241.65 538.12,230.94 545.45,210.1 			"/>
			<polygon class="st4" points="515.24,63.49 517.87,45.19 531.38,58.02 532.94,89.66 			"/>
			<path class="st4" d="M492.96,137.59l19.03,21.64l-28.67-0.35l-8.22-16.29L492.96,137.59"/>
			<g>
				<path class="st4" d="M498.86,136.1l19.24,21.88l-6.58-27.57l-4.88-20.46l16.42,13.15l10.66,8.54l3.59-6.67
					c-3.11-12.01-9.33-18.85-9.33-18.85c-28.87-34.16-86.13-30.91-86.13-30.91S505.8,85.69,498.86,136.1z"/>
				<g>
					<polygon class="st4" points="715.03,272.22 714.88,272.03 714.88,272.35 					"/>
					<path class="st4" d="M646.81,244.3h9.02h36.38l-70.99-86.87l27.83-22.74c0.09-0.46,0.18-0.92,0.29-1.37l-54.9-26.24
						l-38.75,31.67l-1.25,9.48l6.84,5.48l22.68-19.33l21.98,3.14l-13.1,18.2l-26.65,1.94l2.49,2l9.09,7.28l-10.56,4.9l-16.94,7.87
						l-1.46,11.05l12.67,15.51l28.99-23.7l56.33,68.93V244.3z"/>
				</g>
				<g>
					<path class="st4" d="M487.97,164.35c-14.77,20.51-37.54,20.03-37.54,20.03l-16.98,27.38l0.28,55.71l27.05-65.89
						c15.43,1.63,27.99-0.8,38.08-5.07l5.2-9.67l11.89-22.14L487.97,164.35z"/>
				</g>
			</g>
		</g>
		<g>
			<g>
				<path class="st4" d="M671.23,333.53c-10.26-11.44-15.39-29.89-15.39-55.34v-24.86h50.02v31.67c0,12.63,4.04,18.94,12.13,18.94
					c4.54,0,7.7-1.33,9.47-4c1.78-2.66,2.66-7.15,2.66-13.47c0-8.29-0.99-15.14-2.96-20.57c-1.97-5.42-4.49-9.96-7.55-13.61
					c-3.06-3.65-8.54-9.32-16.43-17.02l-21.9-21.9c-16.97-16.57-25.45-34.92-25.45-55.05c0-21.7,4.98-38.22,14.94-49.57
					c9.96-11.34,24.51-17.02,43.65-17.02c22.89,0,39.36,6.07,49.42,18.2s15.09,31.13,15.09,56.97h-51.79l-0.3-17.46
					c0-3.35-0.94-6.02-2.81-7.99c-1.88-1.97-4.49-2.96-7.84-2.96c-3.95,0-6.91,1.09-8.88,3.26c-1.98,2.17-2.96,5.13-2.96,8.88
					c0,8.29,4.74,16.87,14.21,25.75l29.6,28.41c6.9,6.71,12.62,13.07,17.16,19.09c4.54,6.02,8.18,13.12,10.95,21.31
					c2.76,8.19,4.14,17.91,4.14,29.15c0,25.06-4.59,44.05-13.76,56.97c-9.17,12.93-24.32,19.39-45.43,19.39
					C698.16,350.7,681.48,344.98,671.23,333.53z"/>
			</g>
			<g>
				<path class="st4" d="M795.25,140.61h54.89c16.6,0,28.45,5.36,35.55,16.08c7.09,10.72,10.64,26.4,10.64,47.03
					c0,20.64-3.14,36.19-9.43,46.67c-6.29,10.48-17.57,15.72-33.85,15.72h-16.93v82.22h-40.87V140.61z M838.53,228.63
					c4.99,0,8.66-0.93,11-2.78c2.34-1.85,3.87-4.51,4.59-7.98c0.73-3.46,1.09-8.42,1.09-14.87c0-8.7-0.97-14.99-2.9-18.86
					c-1.94-3.87-5.8-5.8-11.61-5.8h-4.59v50.3H838.53z"/>
			</g>
			<g>
				<path class="st4" d="M903.82,348.33l20.07-207.72h70.37l19.83,207.72h-39.42l-2.9-33.61h-25.15l-2.42,33.61H903.82z
					 M949.76,281.59h18.86l-9.19-105.67h-1.93L949.76,281.59z"/>
			</g>
			<g>
				<path class="st4" d="M1026.66,140.61h63.84c10.16,0,18.02,2.3,23.58,6.89s9.31,11.04,11.24,19.35c1.94,8.3,2.9,18.9,2.9,31.8
					c0,11.77-1.54,20.96-4.59,27.57c-3.06,6.61-8.39,11.21-15.96,13.78c6.29,1.29,10.84,4.44,13.66,9.43
					c2.82,5,4.23,11.77,4.23,20.31l-0.48,78.59h-40.62v-81.25c0-5.8-1.13-9.51-3.39-11.12c-2.26-1.61-6.37-2.42-12.33-2.42v94.79
					h-42.08V140.61z M1078.89,217.5c5.8,0,8.71-6.29,8.71-18.86c0-5.48-0.24-9.59-0.73-12.33c-0.48-2.74-1.37-4.63-2.66-5.68
					c-1.29-1.05-3.14-1.57-5.56-1.57h-9.67v38.45H1078.89z"/>
			</g>
			<g>
				<path class="st4" d="M1142,348.33V140.61h41.11v83.19l19.34-83.19h41.84l-23.22,95.03l28.05,112.69h-43.04l-22.73-100.6v100.6
					H1142z"/>
			</g>
			<g>
				<g>
					<path class="st4" d="M83.54,96.47h78.13c12.43,0,22.05,2.81,28.86,8.43c6.81,5.62,11.39,13.52,13.76,23.68
						c2.37,10.16,3.55,23.14,3.55,38.92c0,14.41-1.88,25.65-5.62,33.74c-3.75,8.09-10.26,13.72-19.53,16.87
						c7.7,1.58,13.27,5.43,16.72,11.54c3.45,6.12,5.18,14.41,5.18,24.86L204,350.7h-49.72v-99.44c0-7.1-1.38-11.64-4.14-13.61
						c-2.77-1.97-7.8-2.96-15.09-2.96V350.7h-51.5V96.47z M147.47,190.58c7.1,0,10.65-7.69,10.65-23.08c0-6.7-0.3-11.74-0.89-15.09
						c-0.59-3.35-1.68-5.67-3.26-6.96c-1.58-1.28-3.85-1.92-6.81-1.92h-11.84v47.06H147.47z"/>
				</g>
				<g>
					<path class="st4" d="M222.65,350.7V142.97h83.19v40.14h-40.87v40.38h39.17v39.17h-39.17v47.64h43.53v40.38H222.65z"/>
				</g>
				<g>
					<path class="st4" d="M322.28,142.97h57.31c14.83,0,25.96,4.11,33.37,12.33c7.41,8.22,11.2,20.4,11.37,36.51l0.48,97.21
						c0.16,20.48-3.39,35.87-10.64,46.19c-7.25,10.32-19.27,15.48-36.03,15.48h-55.86V142.97z M371.37,313.94
						c7.58,0,11.37-3.71,11.37-11.12V195.69c0-4.67-0.36-8.18-1.09-10.52c-0.73-2.34-2.06-3.91-3.99-4.72
						c-1.94-0.8-4.92-1.21-8.95-1.21h-4.59v134.69H371.37z"/>
				</g>
			</g>
		</g>
	</g>
</g>
<g id="Layer_7">
</g>
<g id="Layer_8" class="st0">
</g>
<g id="originals" class="st0">
</g>
</svg>
