<?xml version="1.0" encoding="utf-8"?>
<!-- Generator: Adobe Adobe Illustrator 24.2.0, SVG Export Plug-In . SVG Version: 6.00 Build 0)  -->
<svg version="1.1" xmlns="http://www.w3.org/2000/svg" xmlns:xlink="http://www.w3.org/1999/xlink" x="0px" y="0px"
	 viewBox="0 0 474 243" style="enable-background:new 0 0 474 243;" xml:space="preserve">
<style type="text/css">
	.st0{display:none;}
	.st1{display:inline;}
	.st2{display:inline;fill:#F02C1C;}
	.st3{display:none;fill:#F02C1C;}
	.st4{fill:#F02C1C;}
	.st5{fill:#FFFFFF;}
</style>
<g id="Layer_2" class="st0">
</g>
<g id="Layer_9" class="st0">
</g>
<g id="Layer_3">
</g>
<g id="Layer_5" class="st0">
</g>
<g id="Layer_4">
</g>
<g id="Layer_6">
</g>
<g id="Layer_7">
	<g>
		<g class="st0">
			<g class="st1">
				<g>
					<path d="M328.43,165.46v-33.5h6.9l3.08,16.03v-16.03h6.47v33.5h-6.55l-3.35-16.77v16.77H328.43z"/>
					<path d="M347.85,165.46v-33.5h13.42v6.47h-6.59v6.51H361v6.32h-6.32v7.68h7.02v6.51H347.85z"/>
					<path d="M366.53,165.46l-3.59-33.5h6.55l1.87,21.14l1.87-21.14h6.24l1.79,21.14l1.79-21.14h6.63l-3.67,33.5H378l-1.68-16.15
						l-1.6,16.15H366.53z"/>
					<path d="M404.87,165.46v-11.04l-5.34-22.46h6.63l1.87,11.35l1.87-11.35h6.63l-5.34,22.46v11.04H404.87z"/>
					<path d="M420.04,163.29c-1.4-1.65-2.11-3.97-2.11-6.96v-15.95c0-2.89,0.7-5.06,2.11-6.53s3.46-2.2,6.16-2.2
						c2.7,0,4.76,0.74,6.16,2.2s2.11,3.65,2.11,6.53v15.95c0,3.02-0.7,5.34-2.11,6.98c-1.4,1.64-3.46,2.46-6.16,2.46
						C423.5,165.77,421.45,164.95,420.04,163.29z M427.41,158.83c0.21-0.52,0.31-1.25,0.31-2.18v-16.38c0-0.73-0.1-1.32-0.29-1.77
						c-0.2-0.45-0.59-0.68-1.19-0.68c-1.12,0-1.68,0.85-1.68,2.54v16.34c0,0.96,0.12,1.69,0.35,2.18s0.66,0.74,1.29,0.74
						C426.8,159.61,427.2,159.35,427.41,158.83z"/>
					<path d="M437.16,131.96h10.29c1.64,0,2.91,0.37,3.8,1.11c0.9,0.74,1.5,1.78,1.81,3.12c0.31,1.34,0.47,3.05,0.47,5.13
						c0,1.9-0.25,3.38-0.74,4.45c-0.49,1.07-1.35,1.81-2.57,2.22c1.01,0.21,1.75,0.71,2.2,1.52c0.46,0.81,0.68,1.9,0.68,3.28
						l-0.08,12.67h-6.55v-13.1c0-0.94-0.18-1.53-0.55-1.79c-0.36-0.26-1.03-0.39-1.99-0.39v15.29h-6.79V131.96z M445.59,144.36
						c0.94,0,1.4-1.01,1.4-3.04c0-0.88-0.04-1.55-0.12-1.99s-0.22-0.75-0.43-0.92c-0.21-0.17-0.51-0.25-0.9-0.25h-1.56v6.2H445.59z"
						/>
					<path d="M455.76,165.46v-33.5h6.63v13.42l3.12-13.42h6.75l-3.74,15.33l4.52,18.17h-6.94l-3.67-16.22v16.22H455.76z"/>
					<path d="M328.43,169.96h10.3c1.64,0,2.91,0.37,3.8,1.11s1.5,1.78,1.81,3.12c0.31,1.34,0.47,3.05,0.47,5.13
						c0,1.9-0.25,3.38-0.74,4.45c-0.49,1.07-1.35,1.81-2.57,2.22c1.01,0.21,1.75,0.71,2.2,1.52c0.45,0.81,0.68,1.9,0.68,3.28
						l-0.08,12.67h-6.55v-13.1c0-0.94-0.18-1.53-0.55-1.79c-0.37-0.26-1.03-0.39-1.99-0.39v15.29h-6.79V169.96z M336.86,182.36
						c0.94,0,1.4-1.01,1.4-3.04c0-0.88-0.04-1.55-0.12-1.99s-0.22-0.75-0.43-0.92c-0.21-0.17-0.51-0.25-0.9-0.25h-1.56v6.2H336.86z"
						/>
					<path d="M347.04,203.46v-33.5h13.42v6.47h-6.59v6.51h6.32v6.32h-6.32v7.68h7.02v6.51H347.04z"/>
					<path d="M366.18,203.46l-4.13-33.54h6.4l2.46,22.82l2.18-22.82h6.4l-4.13,33.54H366.18z"/>
					<path d="M383.23,201.29c-1.4-1.65-2.11-3.97-2.11-6.96v-15.95c0-2.89,0.7-5.06,2.11-6.53c1.4-1.47,3.46-2.2,6.16-2.2
						s4.76,0.74,6.16,2.2c1.4,1.47,2.11,3.65,2.11,6.53v15.95c0,3.02-0.7,5.34-2.11,6.98c-1.4,1.64-3.46,2.46-6.16,2.46
						S384.63,202.95,383.23,201.29z M390.6,196.83c0.21-0.52,0.31-1.25,0.31-2.18v-16.38c0-0.73-0.1-1.32-0.29-1.77
						c-0.19-0.45-0.59-0.68-1.19-0.68c-1.12,0-1.68,0.85-1.68,2.54v16.34c0,0.96,0.12,1.69,0.35,2.18s0.66,0.74,1.29,0.74
						C389.99,197.61,390.39,197.35,390.6,196.83z"/>
					<path d="M400.35,203.46v-33.5h6.71v27.81h6.9v5.69H400.35z"/>
					<path d="M417.45,201.43c-1.34-1.56-2.01-3.87-2.01-6.94v-24.53h6.51v24.26c0,1.07,0.1,1.9,0.31,2.5c0.21,0.6,0.65,0.9,1.33,0.9
						c0.68,0,1.12-0.29,1.33-0.88c0.21-0.58,0.31-1.42,0.31-2.52v-24.26h6.51v24.53c0,3.07-0.67,5.38-2.01,6.94
						c-1.34,1.56-3.39,2.34-6.14,2.34S418.79,202.99,417.45,201.43z"/>
					<path d="M437.2,203.46v-27.07h-3.98v-6.43h14.66v6.43h-3.98v27.07H437.2z"/>
					<path d="M449.45,203.46v-33.5h6.47v33.5H449.45z"/>
					<path d="M460.44,201.29c-1.4-1.65-2.11-3.97-2.11-6.96v-15.95c0-2.89,0.7-5.06,2.11-6.53c1.4-1.47,3.46-2.2,6.16-2.2
						s4.76,0.74,6.16,2.2s2.11,3.65,2.11,6.53v15.95c0,3.02-0.7,5.34-2.11,6.98c-1.4,1.64-3.46,2.46-6.16,2.46
						S461.85,202.95,460.44,201.29z M467.82,196.83c0.21-0.52,0.31-1.25,0.31-2.18v-16.38c0-0.73-0.1-1.32-0.29-1.77
						c-0.19-0.45-0.59-0.68-1.19-0.68c-1.12,0-1.68,0.85-1.68,2.54v16.34c0,0.96,0.12,1.69,0.35,2.18c0.23,0.49,0.66,0.74,1.29,0.74
						C467.2,197.61,467.61,197.35,467.82,196.83z"/>
					<path d="M329.8,239.51c-1.35-1.51-2.03-3.94-2.03-7.29v-3.28h6.59v4.17c0,1.66,0.53,2.5,1.6,2.5c0.6,0,1.01-0.18,1.25-0.53
						c0.23-0.35,0.35-0.94,0.35-1.77c0-1.09-0.13-2-0.39-2.71s-0.59-1.31-0.99-1.79c-0.4-0.48-1.12-1.23-2.17-2.24l-2.89-2.89
						c-2.24-2.18-3.35-4.6-3.35-7.25c0-2.86,0.66-5.04,1.97-6.53c1.31-1.5,3.23-2.24,5.75-2.24c3.02,0,5.19,0.8,6.51,2.4
						c1.33,1.6,1.99,4.1,1.99,7.51h-6.82l-0.04-2.3c0-0.44-0.12-0.79-0.37-1.05s-0.59-0.39-1.03-0.39c-0.52,0-0.91,0.14-1.17,0.43
						s-0.39,0.68-0.39,1.17c0,1.09,0.62,2.22,1.87,3.39l3.9,3.74c0.91,0.88,1.66,1.72,2.26,2.52c0.6,0.79,1.08,1.73,1.44,2.81
						c0.36,1.08,0.55,2.36,0.55,3.84c0,3.3-0.6,5.8-1.81,7.51s-3.2,2.55-5.99,2.55C333.35,241.77,331.15,241.02,329.8,239.51z"/>
					<path d="M348.25,239.29c-1.4-1.65-2.11-3.97-2.11-6.96v-15.95c0-2.89,0.7-5.06,2.11-6.53s3.46-2.2,6.16-2.2
						c2.7,0,4.76,0.74,6.16,2.2c1.4,1.47,2.11,3.65,2.11,6.53v15.95c0,3.02-0.7,5.34-2.11,6.98c-1.4,1.64-3.46,2.46-6.16,2.46
						C351.7,241.77,349.65,240.95,348.25,239.29z M355.62,234.83c0.21-0.52,0.31-1.25,0.31-2.18v-16.38c0-0.73-0.1-1.32-0.29-1.77
						c-0.2-0.45-0.59-0.68-1.19-0.68c-1.12,0-1.68,0.85-1.68,2.54v16.34c0,0.96,0.12,1.69,0.35,2.18c0.23,0.49,0.66,0.74,1.29,0.74
						C355,235.61,355.41,235.35,355.62,234.83z"/>
					<path d="M367.3,239.47c-1.47-1.53-2.2-3.64-2.2-6.32v-15.44c0-3.33,0.66-5.84,1.99-7.53c1.33-1.69,3.41-2.54,6.24-2.54
						c2.47,0,4.46,0.68,5.97,2.03c1.51,1.35,2.26,3.3,2.26,5.85v5.77h-6.67v-4.95c0-0.96-0.12-1.62-0.35-1.99
						c-0.23-0.36-0.64-0.55-1.21-0.55c-0.6,0-1.01,0.21-1.23,0.62c-0.22,0.42-0.33,1.03-0.33,1.83v16.81c0,0.88,0.13,1.53,0.39,1.93
						s0.65,0.6,1.17,0.6c1.04,0,1.56-0.84,1.56-2.54v-6.04h6.75v6.32c0,5.62-2.82,8.42-8.46,8.42
						C370.72,241.77,368.76,241,367.3,239.47z"/>
					<path d="M383.54,241.46v-33.5h6.47v33.5H383.54z"/>
					<path d="M391.81,241.46l3.24-33.5h11.35l3.2,33.5h-6.36l-0.47-5.42h-4.06l-0.39,5.42H391.81z M399.22,230.7h3.04l-1.48-17.04
						h-0.31L399.22,230.7z"/>
					<path d="M411.62,241.46v-33.5h6.71v27.81h6.9v5.69H411.62z"/>
					<path d="M426.79,241.46v-33.5h6.47v33.5H426.79z"/>
					<path d="M437.32,239.51c-1.35-1.51-2.03-3.94-2.03-7.29v-3.28h6.59v4.17c0,1.66,0.53,2.5,1.6,2.5c0.6,0,1.01-0.18,1.25-0.53
						c0.23-0.35,0.35-0.94,0.35-1.77c0-1.09-0.13-2-0.39-2.71s-0.59-1.31-0.99-1.79c-0.4-0.48-1.12-1.23-2.16-2.24l-2.89-2.89
						c-2.24-2.18-3.35-4.6-3.35-7.25c0-2.86,0.66-5.04,1.97-6.53c1.31-1.5,3.23-2.24,5.75-2.24c3.02,0,5.19,0.8,6.51,2.4
						c1.33,1.6,1.99,4.1,1.99,7.51h-6.83l-0.04-2.3c0-0.44-0.12-0.79-0.37-1.05c-0.25-0.26-0.59-0.39-1.03-0.39
						c-0.52,0-0.91,0.14-1.17,0.43c-0.26,0.29-0.39,0.68-0.39,1.17c0,1.09,0.62,2.22,1.87,3.39l3.9,3.74
						c0.91,0.88,1.66,1.72,2.26,2.52s1.08,1.73,1.44,2.81c0.36,1.08,0.55,2.36,0.55,3.84c0,3.3-0.6,5.8-1.81,7.51
						s-3.21,2.55-5.99,2.55C440.87,241.77,438.67,241.02,437.32,239.51z"/>
					<path d="M456.82,241.46v-27.07h-3.98v-6.43h14.66v6.43h-3.98v27.07H456.82z"/>
					<path d="M470.74,239.51c-1.35-1.51-2.03-3.94-2.03-7.29v-3.28h6.59v4.17c0,1.66,0.53,2.5,1.6,2.5c0.6,0,1.01-0.18,1.25-0.53
						c0.23-0.35,0.35-0.94,0.35-1.77c0-1.09-0.13-2-0.39-2.71s-0.59-1.31-0.99-1.79c-0.4-0.48-1.12-1.23-2.17-2.24l-2.89-2.89
						c-2.24-2.18-3.35-4.6-3.35-7.25c0-2.86,0.66-5.04,1.97-6.53c1.31-1.5,3.23-2.24,5.75-2.24c3.02,0,5.19,0.8,6.51,2.4
						c1.33,1.6,1.99,4.1,1.99,7.51h-6.82l-0.04-2.3c0-0.44-0.12-0.79-0.37-1.05s-0.59-0.39-1.03-0.39c-0.52,0-0.91,0.14-1.17,0.43
						s-0.39,0.68-0.39,1.17c0,1.09,0.62,2.22,1.87,3.39l3.9,3.74c0.91,0.88,1.66,1.72,2.26,2.52c0.6,0.79,1.08,1.73,1.44,2.81
						c0.36,1.08,0.55,2.36,0.55,3.84c0,3.3-0.6,5.8-1.81,7.51s-3.2,2.55-5.99,2.55C474.29,241.77,472.09,241.02,470.74,239.51z"/>
				</g>
				<g>
					<g>
						<path class="st4" d="M252.34,235.02c-5.92-5.16-8.88-13.48-8.88-24.96v-11.21h28.87v14.28c0,5.7,2.33,8.54,7,8.54
							c2.62,0,4.44-0.6,5.47-1.8c1.02-1.2,1.54-3.22,1.54-6.07c0-3.74-0.57-6.83-1.71-9.28c-1.14-2.45-2.59-4.49-4.36-6.14
							c-1.77-1.65-4.93-4.2-9.48-7.67l-12.64-9.88c-9.8-7.47-14.69-15.75-14.69-24.83c0-9.79,2.87-17.24,8.63-22.36
							c5.75-5.12,14.15-7.67,25.2-7.67c13.21,0,22.72,2.74,28.53,8.21c5.81,5.47,8.71,14.04,8.71,25.69h-29.9l-0.17-7.87
							c0-1.51-0.54-2.71-1.62-3.6c-1.08-0.89-2.59-1.33-4.53-1.33c-2.28,0-3.99,0.49-5.13,1.47c-1.14,0.98-1.71,2.32-1.71,4
							c0,3.74,2.73,7.61,8.2,11.61l17.08,12.81c3.99,3.03,7.29,5.9,9.91,8.61c2.62,2.72,4.73,5.92,6.32,9.61
							c1.59,3.69,2.39,8.08,2.39,13.15c0,11.3-2.65,19.87-7.94,25.69c-5.3,5.83-14.04,8.74-26.23,8.74
							C267.89,242.76,258.26,240.18,252.34,235.02z"/>
					</g>
					<g>
						<path class="st4" d="M4.28,241.29V126.63h30.24l13.5,54.86v-54.86h28.36v114.66h-28.7l-14.69-57.39v57.39H4.28z"/>
						<g>
							<g>
								<polygon class="st4" points="149.32,140.23 148.22,138.89 148.79,137.25 152.53,126.63 129.17,126.63 120.97,165.48 
									112.77,126.63 83.73,126.63 107.13,203.52 107.13,241.29 134.81,241.29 134.81,203.52 152.79,144.46 								"/>
							</g>
						</g>
					</g>
					<g>
						<path class="st4" d="M222.48,182.42c5.44-1.45,9.26-4.02,11.46-7.73c2.2-3.71,3.3-8.87,3.3-15.47
							c0-7.24-0.69-13.18-2.08-17.84c-1.39-4.66-4.08-8.28-8.08-10.86c-3.99-2.58-9.64-3.87-16.94-3.87h-41.48l14.17,14.91
							l0.28,12.64l-10.55-7.13l-4.45-20.41h-3.83v6.87l1.33,3l0.68,1.53l-0.91,1.4l-1.09,1.67v102.09h30.22v-53.19
							c4.28,0,7.24,0.45,8.86,1.36c1.62,0.9,2.43,2.99,2.43,6.24v45.59h29.18l0.35-44.1c0-4.79-1.01-8.59-3.04-11.4
							C230.26,184.91,226.99,183.14,222.48,182.42z M201.81,169.8h-7.12v-21.58h6.95c1.74,0,3.07,0.3,3.99,0.88
							c0.93,0.59,1.56,1.65,1.91,3.19c0.35,1.54,0.52,3.85,0.52,6.92C208.06,166.27,205.97,169.8,201.81,169.8z"/>
					</g>
					<g>
						<polygon class="st4" points="210.06,34.47 219.94,41.49 208.06,54.86 235.81,41.63 228.27,32.72 238.91,19.18 						"/>
						<g>
							<polygon class="st4" points="161.03,57.85 157.59,83.84 169.51,93.38 155.47,99.91 152.04,125.9 146.8,103.94 132.76,110.46 
								143.56,90.36 138.32,68.4 150.23,77.95 							"/>
						</g>
						<polygon class="st4" points="161.28,40.13 185.84,25.73 184.75,46 232.32,4.29 199.42,8.69 201.1,-19.6 175.11,5.34 
							157.83,-11.79 						"/>
						<polygon class="st4" points="136.06,23.8 137.86,11.29 147.09,20.06 148.16,41.69 						"/>
						<path class="st4" d="M120.83,74.46l13.01,14.79l-19.6-0.24l-5.62-11.14L120.83,74.46"/>
						<g>
							<path class="st4" d="M124.86,73.44l13.15,14.96l-4.5-18.85l-3.34-13.99l11.22,8.99l7.29,5.84l2.45-4.56
								c-2.13-8.21-6.38-12.88-6.38-12.88c-19.73-23.35-58.88-21.13-58.88-21.13S129.61,38.98,124.86,73.44z"/>
							<g>
								<path class="st4" d="M96.99,122.17l1.84-3.97c10.55,1.11,19.14-0.55,26.03-3.47l3.55-6.61l8.13-15.13l-19.13-0.24
									c-10.1,14.02-25.66,13.69-25.66,13.69L80.7,122.17H96.99z"/>
							</g>
							<g>
								<path class="st4" d="M240.45,142.86c1.69-5.14,4.47-9.46,8.35-12.91c2.32-2.07,5.01-3.77,8.03-5.12l0.74-0.81l-49.06-36
									l19.82-16.2L190.2,53.6l-26.49,21.65l-0.86,6.48l4.68,3.75l15.51-13.21l15.02,2.14l-8.95,12.44l-18.22,1.32l1.7,1.36
									l6.21,4.97l-7.22,3.35l-11.58,5.38l-1,7.56l8.66,10.6l19.82-16.2l22.77,17.7c0,0,24.56-2.91,29.88,20.3L240.45,142.86z"/>
							</g>
						</g>
						<polygon class="st4" points="162.79,137.77 157.7,145.59 151.7,138.27 156.71,124.02 						"/>
					</g>
				</g>
			</g>
		</g>
		<g class="st0">
			<g class="st1">
				<g>
					<path d="M264.94,130.53h9.09c2.44,0,4.22,0.6,5.32,1.79c1.1,1.2,1.66,3.15,1.66,5.85v1.48c0,3.2-1.14,5.11-3.43,5.73
						c1.4,0.36,2.39,1.21,2.96,2.53c0.57,1.33,0.86,3.08,0.86,5.27c0,3.56-0.53,6.26-1.6,8.09c-1.07,1.83-2.99,2.75-5.77,2.75h-9.09
						V130.53z M272.85,143.12c0.57,0,0.96-0.21,1.17-0.64c0.21-0.43,0.31-1.03,0.31-1.81v-3.35c0-1.09-0.48-1.64-1.44-1.64h-1.4
						v7.45H272.85z M274.77,155.64v-4.17c0-1.01-0.15-1.78-0.45-2.3c-0.3-0.52-0.83-0.78-1.58-0.78h-1.25v9.71l0.66,0.04
						C273.89,158.14,274.77,157.31,274.77,155.64z"/>
					<path d="M285.45,161.86c-1.4-1.65-2.11-3.97-2.11-6.96v-15.95c0-2.89,0.7-5.06,2.11-6.53s3.46-2.2,6.16-2.2
						c2.7,0,4.76,0.74,6.16,2.2c1.4,1.47,2.11,3.65,2.11,6.53v15.95c0,3.02-0.7,5.34-2.11,6.98c-1.4,1.64-3.46,2.46-6.16,2.46
						C288.91,164.34,286.86,163.51,285.45,161.86z M292.82,157.4c0.21-0.52,0.31-1.25,0.31-2.18v-16.38c0-0.73-0.1-1.32-0.29-1.77
						c-0.2-0.45-0.59-0.68-1.19-0.68c-1.12,0-1.68,0.85-1.68,2.54v16.34c0,0.96,0.12,1.69,0.35,2.18c0.23,0.49,0.66,0.74,1.29,0.74
						C292.21,158.18,292.61,157.92,292.82,157.4z"/>
					<path d="M303.94,162.08c-1.35-1.51-2.03-3.94-2.03-7.29v-3.28h6.59v4.17c0,1.66,0.53,2.5,1.6,2.5c0.6,0,1.01-0.18,1.25-0.53
						c0.23-0.35,0.35-0.94,0.35-1.77c0-1.09-0.13-2-0.39-2.71s-0.59-1.31-0.99-1.79c-0.4-0.48-1.12-1.23-2.16-2.24l-2.89-2.89
						c-2.24-2.18-3.35-4.6-3.35-7.25c0-2.86,0.66-5.04,1.97-6.53c1.31-1.5,3.23-2.24,5.75-2.24c3.02,0,5.19,0.8,6.51,2.4
						c1.33,1.6,1.99,4.1,1.99,7.51h-6.83l-0.04-2.3c0-0.44-0.12-0.79-0.37-1.05c-0.25-0.26-0.59-0.39-1.03-0.39
						c-0.52,0-0.91,0.14-1.17,0.43c-0.26,0.29-0.39,0.68-0.39,1.17c0,1.09,0.62,2.22,1.87,3.39l3.9,3.74
						c0.91,0.88,1.66,1.72,2.26,2.52s1.08,1.73,1.44,2.81c0.36,1.08,0.55,2.36,0.55,3.84c0,3.3-0.6,5.8-1.81,7.51
						s-3.21,2.55-5.99,2.55C307.49,164.34,305.29,163.58,303.94,162.08z"/>
					<path d="M323.44,164.03v-27.07h-3.98v-6.43h14.66v6.43h-3.98v27.07H323.44z"/>
					<path d="M337.83,161.86c-1.4-1.65-2.11-3.97-2.11-6.96v-15.95c0-2.89,0.7-5.06,2.11-6.53c1.4-1.47,3.46-2.2,6.16-2.2
						s4.76,0.74,6.16,2.2c1.4,1.47,2.11,3.65,2.11,6.53v15.95c0,3.02-0.7,5.34-2.11,6.98c-1.4,1.64-3.46,2.46-6.16,2.46
						S339.23,163.51,337.83,161.86z M345.2,157.4c0.21-0.52,0.31-1.25,0.31-2.18v-16.38c0-0.73-0.1-1.32-0.29-1.77
						c-0.19-0.45-0.59-0.68-1.19-0.68c-1.12,0-1.68,0.85-1.68,2.54v16.34c0,0.96,0.12,1.69,0.35,2.18s0.66,0.74,1.29,0.74
						C344.59,158.18,344.99,157.92,345.2,157.4z"/>
					<path d="M354.95,164.03v-33.5h6.9l3.08,16.03v-16.03h6.47v33.5h-6.55l-3.35-16.77v16.77H354.95z"/>
					<path d="M264.94,168.53h10.29c1.64,0,2.91,0.37,3.8,1.11c0.9,0.74,1.5,1.78,1.81,3.12c0.31,1.34,0.47,3.05,0.47,5.13
						c0,1.9-0.25,3.38-0.74,4.45c-0.49,1.07-1.35,1.81-2.57,2.22c1.01,0.21,1.75,0.71,2.2,1.52c0.46,0.81,0.68,1.9,0.68,3.28
						l-0.08,12.67h-6.55v-13.1c0-0.94-0.18-1.53-0.55-1.79c-0.36-0.26-1.03-0.39-1.99-0.39v15.29h-6.79V168.53z M273.36,180.93
						c0.94,0,1.4-1.01,1.4-3.04c0-0.88-0.04-1.55-0.12-1.99s-0.22-0.75-0.43-0.92c-0.21-0.17-0.51-0.25-0.9-0.25h-1.56v6.2H273.36z"
						/>
					<path d="M283.54,202.03v-33.5h13.42V175h-6.59v6.51h6.32v6.32h-6.32v7.68h7.02v6.51H283.54z"/>
					<path d="M302.69,202.03l-4.13-33.54h6.4l2.46,22.82l2.18-22.82h6.4l-4.13,33.54H302.69z"/>
					<path d="M319.73,199.86c-1.4-1.65-2.11-3.97-2.11-6.96v-15.95c0-2.89,0.7-5.06,2.11-6.53s3.46-2.2,6.16-2.2
						c2.7,0,4.76,0.74,6.16,2.2s2.11,3.65,2.11,6.53v15.95c0,3.02-0.7,5.34-2.11,6.98c-1.4,1.64-3.46,2.46-6.16,2.46
						C323.19,202.34,321.13,201.51,319.73,199.86z M327.1,195.4c0.21-0.52,0.31-1.25,0.31-2.18v-16.38c0-0.73-0.1-1.32-0.29-1.77
						c-0.2-0.45-0.59-0.68-1.19-0.68c-1.12,0-1.68,0.85-1.68,2.54v16.34c0,0.96,0.12,1.69,0.35,2.18s0.66,0.74,1.29,0.74
						C326.49,196.18,326.89,195.92,327.1,195.4z"/>
					<path d="M336.85,202.03v-33.5h6.71v27.81h6.9v5.69H336.85z"/>
					<path d="M353.95,200c-1.34-1.56-2.01-3.87-2.01-6.94v-24.53h6.51v24.26c0,1.07,0.1,1.9,0.31,2.5c0.21,0.6,0.65,0.9,1.33,0.9
						c0.68,0,1.12-0.29,1.33-0.88c0.21-0.58,0.31-1.42,0.31-2.52v-24.26h6.51v24.53c0,3.07-0.67,5.38-2.01,6.94
						c-1.34,1.56-3.39,2.34-6.14,2.34C357.34,202.34,355.29,201.56,353.95,200z"/>
					<path d="M373.71,202.03v-27.07h-3.98v-6.43h14.66v6.43h-3.98v27.07H373.71z"/>
					<path d="M385.95,202.03v-33.5h6.47v33.5H385.95z"/>
					<path d="M396.95,199.86c-1.4-1.65-2.11-3.97-2.11-6.96v-15.95c0-2.89,0.7-5.06,2.11-6.53s3.46-2.2,6.16-2.2
						c2.7,0,4.76,0.74,6.16,2.2c1.4,1.47,2.11,3.65,2.11,6.53v15.95c0,3.02-0.7,5.34-2.11,6.98c-1.4,1.64-3.46,2.46-6.16,2.46
						C400.41,202.34,398.35,201.51,396.95,199.86z M404.32,195.4c0.21-0.52,0.31-1.25,0.31-2.18v-16.38c0-0.73-0.1-1.32-0.29-1.77
						c-0.2-0.45-0.59-0.68-1.19-0.68c-1.12,0-1.68,0.85-1.68,2.54v16.34c0,0.96,0.12,1.69,0.35,2.18c0.23,0.49,0.66,0.74,1.29,0.74
						C403.71,196.18,404.11,195.92,404.32,195.4z"/>
					<path d="M414.07,202.03v-33.5h6.9l3.08,16.03v-16.03h6.47v33.5h-6.55l-3.35-16.77v16.77H414.07z"/>
					<path d="M432.59,202.03l3.24-33.5h11.35l3.2,33.5h-6.36l-0.47-5.42h-4.06l-0.39,5.42H432.59z M440,191.26h3.04l-1.48-17.04
						h-0.31L440,191.26z"/>
					<path d="M452.41,168.53h10.3c1.64,0,2.91,0.37,3.8,1.11s1.5,1.78,1.81,3.12c0.31,1.34,0.47,3.05,0.47,5.13
						c0,1.9-0.25,3.38-0.74,4.45c-0.49,1.07-1.35,1.81-2.57,2.22c1.01,0.21,1.75,0.71,2.2,1.52c0.46,0.81,0.68,1.9,0.68,3.28
						l-0.08,12.67h-6.55v-13.1c0-0.94-0.18-1.53-0.55-1.79c-0.36-0.26-1.03-0.39-1.99-0.39v15.29h-6.79V168.53z M460.83,180.93
						c0.94,0,1.4-1.01,1.4-3.04c0-0.88-0.04-1.55-0.12-1.99c-0.08-0.44-0.22-0.75-0.43-0.92c-0.21-0.17-0.51-0.25-0.9-0.25h-1.56
						v6.2H460.83z"/>
					<path d="M475.06,202.03v-11.04l-5.34-22.46h6.63l1.87,11.35l1.87-11.35h6.63l-5.34,22.46v11.04H475.06z"/>
					<path d="M266.3,238.08c-1.35-1.51-2.03-3.94-2.03-7.29v-3.28h6.59v4.17c0,1.66,0.53,2.5,1.6,2.5c0.6,0,1.01-0.18,1.25-0.53
						c0.23-0.35,0.35-0.94,0.35-1.77c0-1.09-0.13-2-0.39-2.71s-0.59-1.31-0.99-1.79s-1.12-1.23-2.17-2.24l-2.89-2.89
						c-2.24-2.18-3.35-4.6-3.35-7.25c0-2.86,0.66-5.04,1.97-6.53c1.31-1.5,3.23-2.24,5.75-2.24c3.02,0,5.19,0.8,6.51,2.4
						c1.33,1.6,1.99,4.1,1.99,7.51h-6.83l-0.04-2.3c0-0.44-0.12-0.79-0.37-1.05c-0.25-0.26-0.59-0.39-1.03-0.39
						c-0.52,0-0.91,0.14-1.17,0.43c-0.26,0.29-0.39,0.68-0.39,1.17c0,1.09,0.62,2.22,1.87,3.39l3.9,3.74
						c0.91,0.88,1.66,1.72,2.26,2.52c0.6,0.79,1.08,1.73,1.44,2.81c0.36,1.08,0.55,2.36,0.55,3.84c0,3.3-0.61,5.8-1.81,7.51
						s-3.2,2.55-5.99,2.55C269.85,240.34,267.65,239.58,266.3,238.08z"/>
					<path d="M284.75,237.86c-1.4-1.65-2.11-3.97-2.11-6.96v-15.95c0-2.89,0.7-5.06,2.11-6.53c1.4-1.47,3.46-2.2,6.16-2.2
						s4.76,0.74,6.16,2.2c1.4,1.47,2.11,3.65,2.11,6.53v15.95c0,3.02-0.7,5.34-2.11,6.98c-1.4,1.64-3.46,2.46-6.16,2.46
						S286.15,239.51,284.75,237.86z M292.12,233.4c0.21-0.52,0.31-1.25,0.31-2.18v-16.38c0-0.73-0.1-1.32-0.29-1.77
						c-0.19-0.45-0.59-0.68-1.19-0.68c-1.12,0-1.68,0.85-1.68,2.54v16.34c0,0.96,0.12,1.69,0.35,2.18s0.66,0.74,1.29,0.74
						C291.51,234.18,291.91,233.92,292.12,233.4z"/>
					<path d="M303.8,238.04c-1.47-1.53-2.2-3.64-2.2-6.32v-15.44c0-3.33,0.66-5.84,1.99-7.53c1.33-1.69,3.41-2.54,6.24-2.54
						c2.47,0,4.46,0.68,5.97,2.03c1.51,1.35,2.26,3.3,2.26,5.85v5.77h-6.67v-4.95c0-0.96-0.12-1.62-0.35-1.99
						c-0.23-0.36-0.64-0.55-1.21-0.55c-0.6,0-1.01,0.21-1.23,0.62c-0.22,0.42-0.33,1.03-0.33,1.83v16.81c0,0.88,0.13,1.53,0.39,1.93
						c0.26,0.4,0.65,0.6,1.17,0.6c1.04,0,1.56-0.84,1.56-2.54v-6.04h6.75v6.32c0,5.62-2.82,8.42-8.46,8.42
						C307.23,240.34,305.27,239.57,303.8,238.04z"/>
					<path d="M320.04,240.03v-33.5h6.47v33.5H320.04z"/>
					<path d="M328.31,240.03l3.24-33.5h11.35l3.2,33.5h-6.36l-0.47-5.42h-4.06l-0.39,5.42H328.31z M335.72,229.26h3.04l-1.48-17.04
						h-0.31L335.72,229.26z"/>
					<path d="M348.12,240.03v-33.5h6.71v27.81h6.9v5.69H348.12z"/>
					<path d="M363.29,240.03v-33.5h6.47v33.5H363.29z"/>
					<path d="M373.82,238.08c-1.35-1.51-2.03-3.94-2.03-7.29v-3.28h6.59v4.17c0,1.66,0.53,2.5,1.6,2.5c0.6,0,1.01-0.18,1.25-0.53
						c0.23-0.35,0.35-0.94,0.35-1.77c0-1.09-0.13-2-0.39-2.71s-0.59-1.31-0.99-1.79c-0.4-0.48-1.12-1.23-2.16-2.24l-2.89-2.89
						c-2.24-2.18-3.35-4.6-3.35-7.25c0-2.86,0.66-5.04,1.97-6.53s3.23-2.24,5.75-2.24c3.02,0,5.19,0.8,6.51,2.4
						c1.33,1.6,1.99,4.1,1.99,7.51h-6.83l-0.04-2.3c0-0.44-0.12-0.79-0.37-1.05s-0.59-0.39-1.03-0.39c-0.52,0-0.91,0.14-1.17,0.43
						s-0.39,0.68-0.39,1.17c0,1.09,0.62,2.22,1.87,3.39l3.9,3.74c0.91,0.88,1.66,1.72,2.26,2.52c0.6,0.79,1.08,1.73,1.44,2.81
						c0.36,1.08,0.54,2.36,0.54,3.84c0,3.3-0.6,5.8-1.81,7.51s-3.21,2.55-5.99,2.55C377.37,240.34,375.17,239.58,373.82,238.08z"/>
					<path d="M393.32,240.03v-27.07h-3.98v-6.43h14.66v6.43h-3.98v27.07H393.32z"/>
					<path d="M407.25,238.08c-1.35-1.51-2.03-3.94-2.03-7.29v-3.28h6.59v4.17c0,1.66,0.53,2.5,1.6,2.5c0.6,0,1.01-0.18,1.25-0.53
						c0.23-0.35,0.35-0.94,0.35-1.77c0-1.09-0.13-2-0.39-2.71s-0.59-1.31-0.99-1.79s-1.12-1.23-2.17-2.24l-2.89-2.89
						c-2.24-2.18-3.35-4.6-3.35-7.25c0-2.86,0.66-5.04,1.97-6.53c1.31-1.5,3.23-2.24,5.75-2.24c3.02,0,5.19,0.8,6.51,2.4
						c1.33,1.6,1.99,4.1,1.99,7.51h-6.83l-0.04-2.3c0-0.44-0.12-0.79-0.37-1.05c-0.25-0.26-0.59-0.39-1.03-0.39
						c-0.52,0-0.91,0.14-1.17,0.43c-0.26,0.29-0.39,0.68-0.39,1.17c0,1.09,0.62,2.22,1.87,3.39l3.9,3.74
						c0.91,0.88,1.66,1.72,2.26,2.52c0.6,0.79,1.08,1.73,1.44,2.81c0.36,1.08,0.55,2.36,0.55,3.84c0,3.3-0.61,5.8-1.81,7.51
						s-3.2,2.55-5.99,2.55C410.79,240.34,408.6,239.58,407.25,238.08z"/>
				</g>
				<g>
					<g>
						<path class="st4" d="M145.68,125.22l0.4,0.91l0.4,0.9l-0.39-1.8c-0.03,0-0.05,0-0.08,0H145.68z"/>
						<path class="st4" d="M158.18,180.3c5.37-1.43,9.15-3.97,11.32-7.64c2.17-3.66,3.26-8.75,3.26-15.28
							c0-7.15-0.69-13.02-2.06-17.62c-1.37-4.6-4.03-8.17-7.98-10.72c-0.22-0.14-0.45-0.26-0.68-0.39l0.51,0.53l0.03,1.16
							l0.23,10.24l0.13,5.8l-4.81-3.25l-8.55-5.78l-1-0.67l-0.26-1.17l-1.69-7.74l-0.79,1.21l-4.13,6.34l-2.24,3.43l-2.6-3.17
							l-4.86-5.93l-1.07-1.3l0.56-1.59l0.54-1.54h-31.34v115.11h29.84V187.8c4.23,0,7.15,0.45,8.75,1.34c1.6,0.89,2.4,2.95,2.4,6.16
							v45.02h28.81l0.34-43.55c0-4.73-1-8.49-3-11.26C165.87,182.76,162.64,181.01,158.18,180.3z M137.77,167.84h-7.03v-21.31h6.86
							c1.72,0,3.03,0.29,3.94,0.87c0.91,0.58,1.54,1.63,1.89,3.15c0.34,1.52,0.51,3.8,0.51,6.83
							C143.94,164.35,141.88,167.84,137.77,167.84z"/>
					</g>
					<g>
						<path class="st4" d="M188.54,233.63c-5.95-5.18-8.92-13.53-8.92-25.06v-11.26h28.99v14.34c0,5.72,2.34,8.58,7.03,8.58
							c2.63,0,4.46-0.6,5.49-1.81c1.03-1.21,1.54-3.24,1.54-6.1c0-3.75-0.57-6.85-1.71-9.31c-1.14-2.46-2.6-4.51-4.37-6.16
							c-1.77-1.65-4.95-4.22-9.52-7.71l-12.69-9.92c-9.84-7.5-14.75-15.81-14.75-24.92c0-9.83,2.89-17.31,8.66-22.45
							c5.77-5.14,14.21-7.71,25.3-7.71c13.26,0,22.81,2.75,28.64,8.24c5.83,5.49,8.75,14.09,8.75,25.79h-30.02l-0.17-7.91
							c0-1.52-0.54-2.72-1.63-3.62c-1.09-0.89-2.6-1.34-4.55-1.34c-2.29,0-4,0.49-5.15,1.47c-1.14,0.98-1.72,2.32-1.72,4.02
							c0,3.75,2.74,7.64,8.23,11.66l17.15,12.86c4,3.04,7.32,5.92,9.95,8.64c2.63,2.73,4.74,5.94,6.35,9.65
							c1.6,3.71,2.4,8.11,2.4,13.2c0,11.35-2.66,19.94-7.98,25.79c-5.32,5.85-14.09,8.78-26.33,8.78
							C204.14,241.4,194.48,238.81,188.54,233.63z"/>
					</g>
					<g>
						<polygon class="st4" points="181.65,43.61 189.66,49.3 180.03,60.14 202.52,49.41 196.41,42.2 205.04,31.22 						"/>
						<g>
							<polygon class="st4" points="141.9,62.56 139.12,83.63 148.78,91.37 137.4,96.65 134.62,117.72 130.37,99.92 118.99,105.21 
								127.74,88.92 123.49,71.12 133.15,78.85 							"/>
						</g>
						<polygon class="st4" points="142.11,48.2 162.02,36.52 161.13,52.96 199.7,19.15 173.02,22.72 174.38,-0.22 153.32,20 
							139.31,6.12 						"/>
						<polygon class="st4" points="121.67,34.96 123.12,24.82 130.61,31.93 131.47,49.46 						"/>
						<path class="st4" d="M109.32,76.03l10.54,11.99l-15.88-0.2l-4.56-9.03L109.32,76.03"/>
						<g>
							<path class="st4" d="M112.59,75.2l10.66,12.13l-3.65-15.28l-2.71-11.34l9.1,7.29l5.91,4.73l1.99-3.7
								c-1.72-6.65-5.17-10.44-5.17-10.44c-16-18.93-47.73-17.13-47.73-17.13S116.44,47.27,112.59,75.2z"/>
							<g>
								<path class="st4" d="M86.5,129.19l4.99-17.71c8.55,0.9,15.51-0.44,21.1-2.81l2.88-5.36l6.59-12.27l-15.51-0.19
									c-8.19,11.37-20.8,11.1-20.8,11.1l-12.46,20.1C77.75,123.59,83.47,126.41,86.5,129.19z"/>
							</g>
							<g>
								<path class="st4" d="M163.36,100.94l21.96,26.87c5.39-4.64,12.63-7.44,21.59-8.34l-26.52-32.45l16.07-13.13l-30.91-14.77
									l-21.47,17.55l-0.69,5.25l3.79,3.04l12.57-10.71l12.18,1.74l-7.26,10.08l-14.77,1.07l1.38,1.11l5.03,4.03L150.46,95
									l-9.39,4.36l-0.81,6.12l7.02,8.59L163.36,100.94z"/>
							</g>
						</g>
						<g>
							<polygon class="st4" points="159.58,130.41 159.81,140.66 151.26,134.87 147.52,117.72 							"/>
						</g>
						<g>
							<polygon class="st4" points="143.34,127.35 139.2,133.69 134.35,127.76 138.41,116.2 							"/>
						</g>
					</g>
					<g>
						<path class="st4" d="M20,125.89h39.96c10.75,0,18.55,2.06,23.41,6.16c4.86,4.11,7.29,10.81,7.29,20.1v5.09
							c0,10.99-5.03,17.55-15.09,19.7c6.17,1.25,10.52,4.15,13.04,8.71c2.51,4.56,3.77,10.59,3.77,18.09
							c0,12.24-2.35,21.51-7.03,27.8c-4.69,6.3-13.15,9.45-25.38,9.45H20V125.89z M54.82,169.18c2.51,0,4.23-0.74,5.15-2.21
							c0.91-1.47,1.37-3.55,1.37-6.23v-11.52c0-3.75-2.12-5.63-6.35-5.63h-6.17v25.59H54.82z M63.22,212.19v-14.34
							c0-3.48-0.66-6.12-1.97-7.91c-1.32-1.79-3.63-2.68-6.95-2.68h-5.49v33.37l2.92,0.13C59.39,220.77,63.22,217.91,63.22,212.19z"
							/>
					</g>
				</g>
			</g>
		</g>
		<g>
			<g>
				<g>
					<g>
						<path class="st4" d="M10.94,233.63c-5.95-5.18-8.92-13.53-8.92-25.06v-11.26H31v14.34c0,5.72,2.34,8.58,7.03,8.58
							c2.63,0,4.46-0.6,5.49-1.81c1.03-1.21,1.54-3.24,1.54-6.1c0-3.75-0.57-6.85-1.71-9.31c-1.14-2.46-2.6-4.51-4.37-6.16
							c-1.77-1.65-4.95-4.22-9.52-7.71l-12.69-9.92c-9.84-7.5-14.75-15.81-14.75-24.92c0-9.83,2.89-17.31,8.66-22.45
							c5.77-5.14,14.21-7.71,25.3-7.71c13.26,0,22.81,2.75,28.64,8.24c5.83,5.49,8.75,14.09,8.75,25.79H43.35l-0.17-7.91
							c0-1.52-0.54-2.72-1.63-3.62c-1.09-0.89-2.6-1.34-4.55-1.34c-2.29,0-4,0.49-5.15,1.47c-1.14,0.98-1.72,2.32-1.72,4.02
							c0,3.75,2.74,7.64,8.23,11.66l17.15,12.86c4,3.04,7.32,5.92,9.95,8.64c2.63,2.73,4.74,5.94,6.35,9.65
							c1.6,3.71,2.4,8.11,2.4,13.2c0,11.35-2.66,19.94-7.98,25.79c-5.32,5.85-14.09,8.78-26.33,8.78
							C26.54,241.4,16.88,238.81,10.94,233.63z"/>
					</g>
				</g>
				<g>
					<path class="st4" d="M128.96,125.22l0.4,0.91l0.4,0.9l-0.39-1.8c-0.03,0-0.05,0-0.08,0H128.96z"/>
					<path class="st4" d="M141.46,180.3c5.37-1.43,9.15-3.97,11.32-7.64c2.17-3.66,3.26-8.75,3.26-15.28
						c0-7.15-0.69-13.02-2.06-17.62c-1.37-4.6-4.03-8.17-7.98-10.72c-0.22-0.14-0.45-0.26-0.68-0.39l0.51,0.53l0.03,1.16l0.23,10.24
						l0.13,5.8l-4.81-3.25l-8.55-5.78l-1-0.67l-0.26-1.17l-1.69-7.74l-0.79,1.21l-4.13,6.34l-2.24,3.43l-2.6-3.17l-4.86-5.93
						l-1.07-1.3l0.56-1.59l0.54-1.54H84v115.11h29.84V187.8c4.23,0,7.15,0.45,8.75,1.34c1.6,0.89,2.4,2.95,2.4,6.16v45.02h28.81
						l0.34-43.55c0-4.73-1-8.49-3-11.26C149.15,182.76,145.92,181.01,141.46,180.3z M121.05,167.84h-7.03v-21.31h6.86
						c1.72,0,3.03,0.29,3.94,0.87c0.91,0.58,1.54,1.63,1.89,3.15c0.34,1.52,0.51,3.8,0.51,6.83
						C127.23,164.35,125.17,167.84,121.05,167.84z"/>
				</g>
				<g>
					<g>
						<path class="st4" d="M171.82,233.63c-5.95-5.18-8.92-13.53-8.92-25.06v-11.26h28.99v14.34c0,5.72,2.34,8.58,7.03,8.58
							c2.63,0,4.46-0.6,5.49-1.81c1.03-1.21,1.54-3.24,1.54-6.1c0-3.75-0.57-6.85-1.71-9.31c-1.14-2.46-2.6-4.51-4.37-6.16
							c-1.77-1.65-4.95-4.22-9.52-7.71l-12.69-9.92c-9.84-7.5-14.75-15.81-14.75-24.92c0-9.83,2.89-17.31,8.66-22.45
							c5.77-5.14,14.21-7.71,25.3-7.71c13.26,0,22.81,2.75,28.64,8.24c5.83,5.49,8.75,14.09,8.75,25.79h-30.02l-0.17-7.91
							c0-1.52-0.54-2.72-1.63-3.62c-1.09-0.89-2.6-1.34-4.55-1.34c-2.29,0-4,0.49-5.15,1.47c-1.14,0.98-1.72,2.32-1.72,4.02
							c0,3.75,2.74,7.64,8.23,11.66l17.15,12.86c4,3.04,7.32,5.92,9.95,8.64c2.63,2.73,4.74,5.94,6.35,9.65
							c1.6,3.71,2.4,8.11,2.4,13.2c0,11.35-2.66,19.94-7.98,25.79c-5.32,5.85-14.09,8.78-26.33,8.78
							C187.43,241.4,177.76,238.81,171.82,233.63z"/>
					</g>
				</g>
				<g>
					<polygon class="st4" points="164.93,43.61 172.94,49.3 163.31,60.14 185.81,49.41 179.69,42.2 188.32,31.22 					"/>
					<g>
						<polygon class="st4" points="125.19,62.56 122.4,83.63 132.06,91.37 120.68,96.65 117.9,117.72 113.65,99.92 102.27,105.21 
							111.03,88.92 106.78,71.12 116.43,78.85 						"/>
					</g>
					<polygon class="st4" points="125.39,48.2 145.3,36.52 144.42,52.96 182.98,19.15 156.31,22.72 157.67,-0.22 136.6,20 
						122.6,6.12 					"/>
					<polygon class="st4" points="104.95,34.96 106.41,24.82 113.89,31.93 114.76,49.46 					"/>
					<path class="st4" d="M92.6,76.03l10.54,11.99l-15.88-0.2l-4.56-9.03L92.6,76.03"/>
					<g>
						<path class="st4" d="M95.87,75.2l10.66,12.13l-3.65-15.28l-2.71-11.34l9.1,7.29l5.91,4.73l1.99-3.7
							c-1.72-6.65-5.17-10.44-5.17-10.44c-16-18.93-47.73-17.13-47.73-17.13S99.72,47.27,95.87,75.2z"/>
						<g>
							<path class="st4" d="M67.78,128.51l6.99-17.03c8.55,0.9,15.51-0.44,21.1-2.81l2.88-5.36l6.59-12.27l-15.51-0.19
								c-8.19,11.37-20.8,11.1-20.8,11.1l-12.46,20.1C61.03,123.59,64.75,125.74,67.78,128.51z"/>
						</g>
						<g>
							<path class="st4" d="M146.64,100.94l21.96,26.87c5.39-4.64,12.63-7.44,21.59-8.34l-26.52-32.45l16.07-13.13l-30.91-14.77
								l-21.47,17.55l-0.69,5.25l3.79,3.04l12.57-10.71l12.18,1.74l-7.26,10.08l-14.77,1.07l1.38,1.11l5.03,4.03L133.75,95
								l-9.39,4.36l-0.81,6.12l7.02,8.59L146.64,100.94z"/>
						</g>
					</g>
					<g>
						<polygon class="st4" points="142.86,130.41 143.09,140.66 134.54,134.87 130.8,117.72 						"/>
					</g>
					<g>
						<polygon class="st4" points="126.62,127.35 122.49,133.69 117.63,127.76 121.69,116.2 						"/>
					</g>
				</g>
				<g>
					<path class="st4" d="M249.58,162.08c-1.35-1.51-2.03-3.94-2.03-7.29v-3.28h6.59v4.17c0,1.66,0.53,2.5,1.6,2.5
						c0.6,0,1.01-0.18,1.25-0.53c0.23-0.35,0.35-0.94,0.35-1.77c0-1.09-0.13-2-0.39-2.71s-0.59-1.31-0.99-1.79
						c-0.4-0.48-1.12-1.23-2.17-2.24l-2.89-2.89c-2.24-2.18-3.35-4.6-3.35-7.25c0-2.86,0.66-5.04,1.97-6.53
						c1.31-1.5,3.23-2.24,5.75-2.24c3.02,0,5.19,0.8,6.51,2.4c1.33,1.6,1.99,4.1,1.99,7.51h-6.83l-0.04-2.3
						c0-0.44-0.12-0.79-0.37-1.05s-0.59-0.39-1.03-0.39c-0.52,0-0.91,0.14-1.17,0.43c-0.26,0.29-0.39,0.68-0.39,1.17
						c0,1.09,0.62,2.22,1.87,3.39l3.9,3.74c0.91,0.88,1.66,1.72,2.26,2.52c0.6,0.79,1.08,1.73,1.44,2.81
						c0.36,1.08,0.55,2.36,0.55,3.84c0,3.3-0.6,5.8-1.81,7.51s-3.21,2.55-5.99,2.55C253.13,164.34,250.94,163.59,249.58,162.08z"/>
					<path class="st4" d="M266.2,164.03v-33.5h13.42V137h-6.59v6.51h6.32v6.32h-6.32v7.68h7.02v6.51H266.2z"/>
					<path class="st4" d="M281.37,164.03l3.24-33.5h11.35l3.2,33.5h-6.36l-0.47-5.42h-4.06l-0.39,5.42H281.37z M288.78,153.26h3.04
						l-1.48-17.04h-0.31L288.78,153.26z"/>
					<path class="st4" d="M304.07,164.03v-27.07h-3.98v-6.43h14.66v6.43h-3.98v27.07H304.07z"/>
					<path class="st4" d="M319.51,164.03v-27.07h-3.98v-6.43h14.66v6.43h-3.98v27.07H319.51z"/>
					<path class="st4" d="M332.07,164.03v-33.5h6.71v27.81h6.9v5.69H332.07z"/>
					<path class="st4" d="M347.55,164.03v-33.5h13.42V137h-6.59v6.51h6.32v6.32h-6.32v7.68h7.02v6.51H347.55z"/>
					<path class="st4" d="M248.22,168.53h10.3c1.64,0,2.91,0.37,3.8,1.11c0.9,0.74,1.5,1.78,1.81,3.12
						c0.31,1.34,0.47,3.05,0.47,5.13c0,1.9-0.25,3.38-0.74,4.45c-0.49,1.07-1.35,1.81-2.57,2.22c1.01,0.21,1.75,0.71,2.2,1.52
						c0.45,0.81,0.68,1.9,0.68,3.28l-0.08,12.67h-6.55v-13.1c0-0.94-0.18-1.53-0.55-1.79c-0.36-0.26-1.03-0.39-1.99-0.39v15.29
						h-6.79V168.53z M256.64,180.93c0.94,0,1.4-1.01,1.4-3.04c0-0.88-0.04-1.55-0.12-1.99s-0.22-0.75-0.43-0.92
						c-0.21-0.17-0.51-0.25-0.9-0.25h-1.56v6.2H256.64z"/>
					<path class="st4" d="M266.82,202.03v-33.5h13.42V175h-6.59v6.51h6.32v6.32h-6.32v7.68h7.02v6.51H266.82z"/>
					<path class="st4" d="M285.97,202.03l-4.13-33.54h6.4l2.46,22.82l2.18-22.82h6.4l-4.13,33.54H285.97z"/>
					<path class="st4" d="M303.01,199.86c-1.4-1.65-2.11-3.97-2.11-6.96v-15.95c0-2.89,0.7-5.06,2.11-6.53
						c1.4-1.47,3.46-2.2,6.16-2.2s4.76,0.74,6.16,2.2c1.4,1.47,2.11,3.65,2.11,6.53v15.95c0,3.02-0.7,5.34-2.11,6.98
						c-1.4,1.64-3.46,2.46-6.16,2.46S304.42,201.51,303.01,199.86z M310.38,195.4c0.21-0.52,0.31-1.25,0.31-2.18v-16.38
						c0-0.73-0.1-1.32-0.29-1.77c-0.19-0.45-0.59-0.68-1.19-0.68c-1.12,0-1.68,0.85-1.68,2.54v16.34c0,0.96,0.12,1.69,0.35,2.18
						c0.23,0.49,0.66,0.74,1.29,0.74C309.77,196.18,310.18,195.92,310.38,195.4z"/>
					<path class="st4" d="M320.13,202.03v-33.5h6.71v27.81h6.9v5.69H320.13z"/>
					<path class="st4" d="M337.24,200c-1.34-1.56-2.01-3.87-2.01-6.94v-24.53h6.51v24.26c0,1.07,0.1,1.9,0.31,2.5
						c0.21,0.6,0.65,0.9,1.33,0.9c0.68,0,1.12-0.29,1.33-0.88c0.21-0.58,0.31-1.42,0.31-2.52v-24.26h6.51v24.53
						c0,3.07-0.67,5.38-2.01,6.94c-1.34,1.56-3.39,2.34-6.14,2.34C340.62,202.34,338.57,201.56,337.24,200z"/>
					<path class="st4" d="M356.99,202.03v-27.07h-3.98v-6.43h14.66v6.43h-3.98v27.07H356.99z"/>
					<path class="st4" d="M369.24,202.03v-33.5h6.47v33.5H369.24z"/>
					<path class="st4" d="M380.23,199.86c-1.4-1.65-2.11-3.97-2.11-6.96v-15.95c0-2.89,0.7-5.06,2.11-6.53
						c1.4-1.47,3.46-2.2,6.16-2.2s4.76,0.74,6.16,2.2c1.4,1.47,2.11,3.65,2.11,6.53v15.95c0,3.02-0.7,5.34-2.11,6.98
						c-1.4,1.64-3.46,2.46-6.16,2.46S381.64,201.51,380.23,199.86z M387.6,195.4c0.21-0.52,0.31-1.25,0.31-2.18v-16.38
						c0-0.73-0.1-1.32-0.29-1.77c-0.19-0.45-0.59-0.68-1.19-0.68c-1.12,0-1.68,0.85-1.68,2.54v16.34c0,0.96,0.12,1.69,0.35,2.18
						c0.23,0.49,0.66,0.74,1.29,0.74C386.99,196.18,387.4,195.92,387.6,195.4z"/>
					<path class="st4" d="M397.35,202.03v-33.5h6.9l3.08,16.03v-16.03h6.47v33.5h-6.55l-3.35-16.77v16.77H397.35z"/>
					<path class="st4" d="M415.88,202.03l3.24-33.5h11.35l3.2,33.5h-6.36l-0.47-5.42h-4.06l-0.39,5.42H415.88z M423.29,191.26h3.04
						l-1.48-17.04h-0.31L423.29,191.26z"/>
					<path class="st4" d="M435.69,168.53h10.3c1.64,0,2.91,0.37,3.8,1.11c0.9,0.74,1.5,1.78,1.81,3.12
						c0.31,1.34,0.47,3.05,0.47,5.13c0,1.9-0.25,3.38-0.74,4.45c-0.49,1.07-1.35,1.81-2.57,2.22c1.01,0.21,1.75,0.71,2.2,1.52
						c0.45,0.81,0.68,1.9,0.68,3.28l-0.08,12.67h-6.55v-13.1c0-0.94-0.18-1.53-0.55-1.79c-0.36-0.26-1.03-0.39-1.99-0.39v15.29
						h-6.79V168.53z M444.11,180.93c0.94,0,1.4-1.01,1.4-3.04c0-0.88-0.04-1.55-0.12-1.99s-0.22-0.75-0.43-0.92
						c-0.21-0.17-0.51-0.25-0.9-0.25h-1.56v6.2H444.11z"/>
					<path class="st4" d="M458.35,202.03v-11.04l-5.34-22.46h6.63l1.87,11.35l1.87-11.35h6.63l-5.34,22.46v11.04H458.35z"/>
					<path class="st4" d="M249.58,238.08c-1.35-1.51-2.03-3.94-2.03-7.29v-3.28h6.59v4.17c0,1.66,0.53,2.5,1.6,2.5
						c0.6,0,1.01-0.18,1.25-0.53c0.23-0.35,0.35-0.94,0.35-1.77c0-1.09-0.13-2-0.39-2.71s-0.59-1.31-0.99-1.79
						c-0.4-0.48-1.12-1.23-2.17-2.24l-2.89-2.89c-2.24-2.18-3.35-4.6-3.35-7.25c0-2.86,0.66-5.04,1.97-6.53
						c1.31-1.5,3.23-2.24,5.75-2.24c3.02,0,5.19,0.8,6.51,2.4c1.33,1.6,1.99,4.1,1.99,7.51h-6.83l-0.04-2.3
						c0-0.44-0.12-0.79-0.37-1.05s-0.59-0.39-1.03-0.39c-0.52,0-0.91,0.14-1.17,0.43c-0.26,0.29-0.39,0.68-0.39,1.17
						c0,1.09,0.62,2.22,1.87,3.39l3.9,3.74c0.91,0.88,1.66,1.72,2.26,2.52c0.6,0.79,1.08,1.73,1.44,2.81
						c0.36,1.08,0.55,2.36,0.55,3.84c0,3.3-0.6,5.8-1.81,7.51s-3.21,2.55-5.99,2.55C253.13,240.34,250.94,239.59,249.58,238.08z"/>
					<path class="st4" d="M268.03,237.86c-1.4-1.65-2.11-3.97-2.11-6.96v-15.95c0-2.89,0.7-5.06,2.11-6.53
						c1.4-1.47,3.46-2.2,6.16-2.2s4.76,0.74,6.16,2.2c1.4,1.47,2.11,3.65,2.11,6.53v15.95c0,3.02-0.7,5.34-2.11,6.98
						c-1.4,1.64-3.46,2.46-6.16,2.46S269.43,239.51,268.03,237.86z M275.4,233.4c0.21-0.52,0.31-1.25,0.31-2.18v-16.38
						c0-0.73-0.1-1.32-0.29-1.77c-0.19-0.45-0.59-0.68-1.19-0.68c-1.12,0-1.68,0.85-1.68,2.54v16.34c0,0.96,0.12,1.69,0.35,2.18
						c0.23,0.49,0.66,0.74,1.29,0.74C274.79,234.18,275.19,233.92,275.4,233.4z"/>
					<path class="st4" d="M287.08,238.04c-1.47-1.53-2.2-3.64-2.2-6.32v-15.44c0-3.33,0.66-5.84,1.99-7.53
						c1.33-1.69,3.41-2.54,6.24-2.54c2.47,0,4.46,0.68,5.97,2.03c1.51,1.35,2.26,3.3,2.26,5.85v5.77h-6.67v-4.95
						c0-0.96-0.12-1.62-0.35-1.99c-0.23-0.36-0.64-0.55-1.21-0.55c-0.6,0-1.01,0.21-1.23,0.62c-0.22,0.42-0.33,1.03-0.33,1.83v16.81
						c0,0.88,0.13,1.53,0.39,1.93s0.65,0.6,1.17,0.6c1.04,0,1.56-0.84,1.56-2.54v-6.04h6.75v6.32c0,5.62-2.82,8.42-8.46,8.42
						C290.51,240.34,288.55,239.57,287.08,238.04z"/>
					<path class="st4" d="M303.33,240.03v-33.5h6.47v33.5H303.33z"/>
					<path class="st4" d="M311.59,240.03l3.24-33.5h11.35l3.2,33.5h-6.36l-0.47-5.42h-4.06l-0.39,5.42H311.59z M319,229.26h3.04
						l-1.48-17.04h-0.31L319,229.26z"/>
					<path class="st4" d="M331.41,240.03v-33.5h6.71v27.81h6.9v5.69H331.41z"/>
					<path class="st4" d="M346.58,240.03v-33.5h6.47v33.5H346.58z"/>
					<path class="st4" d="M357.1,238.08c-1.35-1.51-2.03-3.94-2.03-7.29v-3.28h6.59v4.17c0,1.66,0.53,2.5,1.6,2.5
						c0.6,0,1.01-0.18,1.25-0.53c0.23-0.35,0.35-0.94,0.35-1.77c0-1.09-0.13-2-0.39-2.71s-0.59-1.31-0.99-1.79
						c-0.4-0.48-1.12-1.23-2.17-2.24l-2.89-2.89c-2.24-2.18-3.35-4.6-3.35-7.25c0-2.86,0.66-5.04,1.97-6.53
						c1.31-1.5,3.23-2.24,5.75-2.24c3.02,0,5.19,0.8,6.51,2.4c1.33,1.6,1.99,4.1,1.99,7.51h-6.83l-0.04-2.3
						c0-0.44-0.12-0.79-0.37-1.05s-0.59-0.39-1.03-0.39c-0.52,0-0.91,0.14-1.17,0.43c-0.26,0.29-0.39,0.68-0.39,1.17
						c0,1.09,0.62,2.22,1.87,3.39l3.9,3.74c0.91,0.88,1.66,1.72,2.26,2.52c0.6,0.79,1.08,1.73,1.44,2.81
						c0.36,1.08,0.55,2.36,0.55,3.84c0,3.3-0.6,5.8-1.81,7.51s-3.21,2.55-5.99,2.55C360.65,240.34,358.46,239.59,357.1,238.08z"/>
					<path class="st4" d="M376.6,240.03v-27.07h-3.98v-6.43h14.66v6.43h-3.98v27.07H376.6z"/>
					<path class="st4" d="M390.53,238.08c-1.35-1.51-2.03-3.94-2.03-7.29v-3.28h6.59v4.17c0,1.66,0.53,2.5,1.6,2.5
						c0.6,0,1.01-0.18,1.25-0.53c0.23-0.35,0.35-0.94,0.35-1.77c0-1.09-0.13-2-0.39-2.71s-0.59-1.31-0.99-1.79
						c-0.4-0.48-1.12-1.23-2.17-2.24l-2.89-2.89c-2.24-2.18-3.35-4.6-3.35-7.25c0-2.86,0.66-5.04,1.97-6.53
						c1.31-1.5,3.23-2.24,5.75-2.24c3.02,0,5.19,0.8,6.51,2.4c1.33,1.6,1.99,4.1,1.99,7.51h-6.83l-0.04-2.3
						c0-0.44-0.12-0.79-0.37-1.05s-0.59-0.39-1.03-0.39c-0.52,0-0.91,0.14-1.17,0.43c-0.26,0.29-0.39,0.68-0.39,1.17
						c0,1.09,0.62,2.22,1.87,3.39l3.9,3.74c0.91,0.88,1.66,1.72,2.26,2.52c0.6,0.79,1.08,1.73,1.44,2.81
						c0.36,1.08,0.55,2.36,0.55,3.84c0,3.3-0.6,5.8-1.81,7.51s-3.21,2.55-5.99,2.55C394.08,240.34,391.88,239.59,390.53,238.08z"/>
				</g>
			</g>
		</g>
	</g>
</g>
<g id="Layer_8" class="st0">
</g>
<g id="originals" class="st0">
</g>
</svg>
