<?xml version="1.0" encoding="utf-8"?>
<!-- Generator: Adobe Adobe Illustrator 24.2.0, SVG Export Plug-In . SVG Version: 6.00 Build 0)  -->
<svg version="1.1" xmlns="http://www.w3.org/2000/svg" xmlns:xlink="http://www.w3.org/1999/xlink" x="0px" y="0px" width="416px"
	 height="425px" viewBox="0 0 416 425" style="enable-background:new 0 0 416 425;" xml:space="preserve">
<style type="text/css">
	.st0{display:none;}
	.st1{display:inline;}
	.st2{display:inline;fill:#F02C1C;}
	.st3{display:none;fill:#F02C1C;}
	.st4{fill:#F02C1C;}
	.st5{fill:#FFFFFF;}
</style>
<g id="Layer_2" class="st0">
</g>
<g id="Layer_9" class="st0">
</g>
<g id="Layer_3">
</g>
<g id="Layer_5" class="st0">
</g>
<g id="Layer_4">
</g>
<g id="Layer_6">
</g>
<g id="Layer_7">
	<g>
		<g class="st0">
			<g class="st1">
				<g>
					<path d="M29.02,200.95c0.76,1.54,1.09,3.33,0.98,5.38l-6.36-0.35l0.09-1.56c0.13-2.41-0.38-4.27-1.53-5.57
						c-1.15-1.31-3.24-2.04-6.26-2.21l-15.64-0.86l0.34-6.15l29.71,1.63L30,197.4l-4.31-0.24
						C27.15,198.15,28.26,199.41,29.02,200.95z"/>
					<path d="M14.64,238.93l-2.05-22.64c-2.35,0.39-4.17,1.44-5.46,3.15c-1.29,1.71-1.83,3.71-1.62,6c0.3,3.3,1.89,5.5,4.77,6.62
						l0.6,6.61c-2.81-0.65-5.19-2.07-7.14-4.26c-1.95-2.19-3.08-5.03-3.4-8.5c-0.26-2.83,0.15-5.43,1.22-7.78
						c1.07-2.36,2.7-4.28,4.9-5.76c2.2-1.48,4.82-2.36,7.87-2.64c3.05-0.28,5.78,0.1,8.21,1.13c2.42,1.03,4.37,2.61,5.82,4.73
						c1.46,2.13,2.32,4.64,2.58,7.55c0.25,2.8-0.13,5.34-1.15,7.64c-1.02,2.3-2.58,4.15-4.67,5.57c-2.09,1.42-4.58,2.26-7.44,2.52
						C16.56,238.97,15.55,238.99,14.64,238.93z M19.03,232.29c2.26-0.24,3.99-1.21,5.21-2.91c1.22-1.7,1.72-3.72,1.51-6.05
						c-0.19-2.12-1.03-3.87-2.51-5.25c-1.48-1.38-3.38-2.12-5.7-2.19L19.03,232.29z"/>
					<path d="M12.37,259.09l25.6,1.79l1.71,6.31L8,264.03l-1.92-7.09l25.77-18.68l1.72,6.36L12.37,259.09z"/>
					<path d="M17.46,286.64c0.19-2.6,1.05-4.98,2.6-7.14s3.7-3.9,6.47-5.21c2.73-1.29,5.44-1.84,8.13-1.63
						c2.68,0.2,5.09,1.08,7.21,2.62c2.12,1.54,3.79,3.6,5.01,6.17c1.21,2.57,1.75,5.17,1.59,7.79c-0.15,2.62-1,5.04-2.55,7.24
						c-1.55,2.21-3.69,3.95-6.42,5.25c-2.73,1.29-5.45,1.82-8.15,1.58c-2.7-0.24-5.13-1.15-7.3-2.73c-2.16-1.58-3.85-3.66-5.07-6.23
						C17.78,291.8,17.28,289.23,17.46,286.64z M26.75,295.6c1.28,0.93,2.78,1.46,4.52,1.6c1.74,0.13,3.58-0.26,5.53-1.18
						c1.95-0.92,3.43-2.08,4.42-3.47c1-1.39,1.54-2.86,1.64-4.42c0.1-1.56-0.19-3.06-0.87-4.49c-0.68-1.43-1.65-2.6-2.91-3.49
						c-1.26-0.9-2.74-1.39-4.42-1.46c-1.69-0.08-3.51,0.35-5.46,1.27c-2.9,1.37-4.78,3.17-5.66,5.4c-0.88,2.23-0.79,4.46,0.28,6.71
						C24.49,293.49,25.47,294.67,26.75,295.6z"/>
					<path d="M67.81,298.75l-33.59,21.64l-3.33-5.17l33.59-21.64L67.81,298.75z"/>
					<path d="M80.1,330.58l-22.68,19.26l-3.99-4.69l2.68-2.27c-1.56,0.05-3.12-0.29-4.67-1.03s-2.89-1.78-4.04-3.12
						c-1.52-1.78-2.5-3.7-2.96-5.74c-0.46-2.04-0.31-4.09,0.46-6.13c0.77-2.04,2.18-3.94,4.24-5.69l13.33-11.33l3.95,4.65
						l-12.64,10.73c-2.03,1.72-3.16,3.55-3.38,5.49c-0.22,1.94,0.41,3.78,1.9,5.54c1.49,1.76,3.22,2.69,5.17,2.8
						c1.96,0.11,3.95-0.7,5.98-2.42l12.64-10.73L80.1,330.58z"/>
					<path d="M87.14,343.32l-10.85,12.39c-0.74,0.84-1.07,1.61-0.99,2.32c0.07,0.71,0.58,1.48,1.53,2.31l2.84,2.49l-3.38,3.86
						l-3.66-3.2c-2.09-1.83-3.26-3.71-3.51-5.66c-0.26-1.95,0.58-4.02,2.5-6.21l10.85-12.39l-2.64-2.31l3.31-3.78l2.64,2.31
						l4.87-5.57l4.67,4.09l-4.87,5.57l5.44,4.77l-3.31,3.78L87.14,343.32z"/>
					<path d="M104.68,350.64l-17.46,24.1l-4.99-3.61l17.46-24.1L104.68,350.64z M102.94,343.11c-0.17-1.06,0.07-2.04,0.73-2.94
						c0.65-0.9,1.51-1.44,2.57-1.61s2.04,0.07,2.94,0.73c0.87,0.63,1.4,1.48,1.56,2.53c0.17,1.06-0.07,2.04-0.73,2.94
						c-0.65,0.9-1.51,1.44-2.57,1.61c-1.06,0.17-2.02-0.06-2.9-0.7C103.64,345.02,103.11,344.17,102.94,343.11z"/>
					<path d="M101.17,382.2c-1.39-2.2-2.1-4.63-2.14-7.29c-0.04-2.66,0.67-5.33,2.13-8.03c1.44-2.66,3.3-4.7,5.58-6.13
						c2.28-1.43,4.74-2.14,7.37-2.16c2.63-0.01,5.19,0.65,7.69,2.01c2.5,1.35,4.47,3.13,5.9,5.33c1.43,2.2,2.17,4.65,2.23,7.34
						c0.06,2.69-0.63,5.37-2.07,8.03c-1.44,2.66-3.31,4.7-5.63,6.1c-2.32,1.41-4.82,2.12-7.5,2.12c-2.68,0-5.27-0.67-7.78-2.02
						C104.49,386.17,102.56,384.4,101.17,382.2z M113.96,383.92c1.58-0.01,3.11-0.47,4.59-1.39c1.48-0.92,2.73-2.33,3.76-4.23
						c1.03-1.9,1.53-3.7,1.51-5.41c-0.02-1.71-0.45-3.22-1.29-4.53c-0.84-1.32-1.96-2.35-3.36-3.1c-1.39-0.75-2.86-1.12-4.41-1.09
						c-1.55,0.02-3.02,0.5-4.43,1.44c-1.41,0.94-2.62,2.36-3.65,4.26c-1.52,2.82-1.98,5.39-1.37,7.7c0.61,2.31,2.01,4.06,4.19,5.24
						C110.9,383.55,112.38,383.92,113.96,383.92z"/>
					<path d="M158.79,377.06c1.47,1.49,2.42,3.3,2.84,5.43c0.42,2.13,0.22,4.49-0.6,7.06l-5.31,16.73l-5.82-1.84l5.03-15.85
						c0.81-2.54,0.79-4.69-0.05-6.45c-0.84-1.76-2.36-2.99-4.55-3.68c-2.2-0.7-4.15-0.57-5.87,0.38c-1.72,0.95-2.98,2.69-3.78,5.23
						l-5.03,15.85l-5.87-1.86l9-28.36l5.87,1.86l-1.03,3.24c1.33-0.86,2.85-1.38,4.55-1.56c1.7-0.18,3.39,0,5.07,0.53
						C155.46,374.48,157.31,375.57,158.79,377.06z"/>
					<path d="M169.45,385.76c1.52-2.13,3.42-3.69,5.71-4.69c2.29-1,4.71-1.34,7.29-1.01c2.32,0.29,4.29,1.01,5.91,2.14
						c1.62,1.13,2.86,2.44,3.72,3.93l0.54-4.29l6.16,0.78l-3.74,29.52l-6.16-0.78l0.56-4.39c-1.21,1.26-2.77,2.24-4.67,2.95
						c-1.9,0.7-4,0.91-6.28,0.62c-2.54-0.32-4.78-1.27-6.72-2.84c-1.94-1.57-3.38-3.6-4.32-6.1c-0.94-2.5-1.22-5.22-0.84-8.19
						C166.98,390.44,167.93,387.89,169.45,385.76z M190.16,391.11c-0.65-1.61-1.6-2.89-2.86-3.85c-1.26-0.96-2.67-1.54-4.24-1.73
						c-1.57-0.2-3.08,0-4.54,0.59c-1.46,0.6-2.7,1.58-3.72,2.96c-1.03,1.38-1.67,3.08-1.93,5.12c-0.26,2.04-0.06,3.88,0.58,5.52
						c0.64,1.64,1.6,2.95,2.88,3.93c1.27,0.98,2.68,1.56,4.21,1.76c1.57,0.2,3.08-0.01,4.54-0.62c1.46-0.61,2.7-1.63,3.73-3.04
						c1.03-1.41,1.68-3.13,1.93-5.17C191.01,394.53,190.81,392.71,190.16,391.11z"/>
					<path d="M214.93,382.53c1.46-0.9,3.22-1.39,5.27-1.47l0.24,6.37l-1.56,0.06c-2.41,0.09-4.21,0.77-5.41,2.04
						c-1.2,1.27-1.74,3.42-1.62,6.44l0.58,15.65l-6.15,0.23l-1.11-29.73l6.15-0.23l0.16,4.32
						C212.31,384.65,213.47,383.43,214.93,382.53z"/>
					<path d="M250.72,376.56l-10.2,46.29l-6.27,1.13l3.38-15.32l-16.73-26.72l6.75-1.22l12.26,20.84l4.53-23.86L250.72,376.56z"/>
					<path d="M281.84,395.93c-2.04-0.02-3.85-0.48-5.42-1.38c-1.58-0.89-2.77-2.15-3.56-3.77l5.83-2.58
						c0.61,1.11,1.59,1.83,2.93,2.16s2.78,0.16,4.29-0.51c1.58-0.7,2.67-1.55,3.27-2.54c0.6-0.99,0.69-1.97,0.27-2.92
						c-0.45-1.02-1.27-1.56-2.46-1.62c-1.19-0.06-2.97,0.08-5.34,0.42c-2.29,0.34-4.19,0.54-5.71,0.58
						c-1.52,0.04-2.99-0.27-4.4-0.94c-1.42-0.67-2.52-1.89-3.31-3.67c-0.64-1.45-0.8-2.96-0.48-4.54c0.32-1.58,1.13-3.07,2.42-4.47
						c1.29-1.4,2.97-2.56,5.04-3.48c3.09-1.37,5.93-1.69,8.52-0.97c2.58,0.72,4.54,2.41,5.87,5.05l-5.63,2.49
						c-0.64-1.17-1.56-1.92-2.77-2.26c-1.21-0.33-2.57-0.16-4.09,0.51c-1.48,0.66-2.49,1.44-3.03,2.35
						c-0.54,0.91-0.61,1.83-0.2,2.75c0.32,0.72,0.85,1.22,1.6,1.48c0.74,0.26,1.56,0.36,2.44,0.31c0.88-0.06,2.16-0.2,3.83-0.43
						c2.21-0.35,4.07-0.53,5.57-0.55c1.51-0.02,2.96,0.29,4.34,0.94c1.39,0.65,2.49,1.83,3.29,3.56c0.69,1.55,0.87,3.12,0.55,4.72
						c-0.32,1.6-1.1,3.09-2.36,4.47c-1.26,1.38-2.94,2.54-5.05,3.48C285.96,395.49,283.87,395.96,281.84,395.93z"/>
					<path d="M310.65,380.71c-2.6,0.19-5.08-0.32-7.44-1.54c-2.37-1.22-4.4-3.1-6.09-5.65c-1.67-2.52-2.61-5.12-2.79-7.81
						c-0.19-2.69,0.33-5.19,1.55-7.52c1.22-2.33,3.02-4.28,5.38-5.85c2.37-1.57,4.86-2.47,7.48-2.7s5.13,0.27,7.53,1.48
						c2.4,1.21,4.44,3.07,6.12,5.59c1.67,2.52,2.59,5.13,2.75,7.84c0.16,2.71-0.39,5.24-1.65,7.61c-1.26,2.37-3.07,4.34-5.44,5.92
						C315.71,379.64,313.24,380.52,310.65,380.71z M318.17,370.23c0.73-1.4,1.04-2.96,0.93-4.7c-0.12-1.74-0.78-3.5-1.97-5.3
						c-1.2-1.8-2.55-3.09-4.07-3.88c-1.52-0.78-3.05-1.11-4.61-0.99c-1.56,0.13-3,0.63-4.32,1.51c-1.32,0.88-2.33,2-3.04,3.38
						c-0.71,1.38-0.97,2.91-0.81,4.59c0.17,1.68,0.85,3.42,2.05,5.22c1.77,2.67,3.83,4.28,6.16,4.82c2.33,0.55,4.53,0.13,6.6-1.24
						C316.4,372.76,317.43,371.62,318.17,370.23z"/>
					<path d="M321.84,346.53c-0.71-2.53-0.72-5.02-0.01-7.45c0.71-2.43,2.09-4.63,4.14-6.6c2.6-2.49,5.34-3.94,8.22-4.34
						s5.72,0.25,8.52,1.96l-4.79,4.6c-1.41-0.69-2.83-0.92-4.26-0.69c-1.43,0.23-2.79,0.96-4.09,2.21c-1.82,1.75-2.65,3.78-2.49,6.1
						c0.16,2.32,1.35,4.64,3.57,6.95c2.22,2.31,4.49,3.6,6.82,3.86c2.32,0.26,4.4-0.48,6.21-2.23c2.57-2.47,3.18-5.23,1.84-8.29
						l4.79-4.6c1.47,2.78,1.97,5.63,1.49,8.57c-0.48,2.93-1.99,5.62-4.53,8.06c-2.05,1.97-4.31,3.26-6.78,3.86
						c-2.47,0.6-4.96,0.49-7.46-0.32s-4.82-2.32-6.94-4.53C323.97,351.43,322.55,349.06,321.84,346.53z"/>
					<path d="M335.2,315.87c-1.06,0.11-2.03-0.18-2.9-0.88c-0.87-0.7-1.36-1.58-1.47-2.65c-0.11-1.06,0.18-2.03,0.88-2.9
						c0.68-0.84,1.55-1.32,2.61-1.43c1.06-0.11,2.03,0.18,2.9,0.88c0.87,0.7,1.36,1.58,1.47,2.65c0.11,1.06-0.17,2.01-0.85,2.85
						C337.15,315.27,336.26,315.76,335.2,315.87z M342.82,314.53l23.13,18.71l-3.87,4.79l-23.13-18.71L342.82,314.53z"/>
					<path d="M352.97,313.22c-1.33-2.25-1.99-4.63-1.98-7.12c0.01-2.49,0.69-4.85,2.03-7.07c1.21-2,2.66-3.51,4.35-4.54
						c1.69-1.02,3.39-1.62,5.1-1.81l-3.7-2.23l3.21-5.32l25.47,15.37l-3.21,5.32l-3.79-2.29c0.66,1.62,0.93,3.44,0.8,5.46
						c-0.13,2.03-0.79,4.03-1.98,6c-1.32,2.19-3.09,3.85-5.31,4.99c-2.22,1.14-4.66,1.63-7.32,1.48c-2.66-0.15-5.27-1-7.83-2.55
						C356.25,317.38,354.3,315.48,352.97,313.22z M366.25,296.45c-1.73-0.06-3.29,0.3-4.67,1.06c-1.38,0.76-2.49,1.82-3.31,3.18
						c-0.82,1.36-1.25,2.82-1.29,4.39c-0.04,1.57,0.35,3.11,1.2,4.6c0.84,1.5,2.14,2.78,3.9,3.83c1.76,1.06,3.52,1.63,5.28,1.7
						c1.76,0.08,3.35-0.27,4.76-1.04s2.51-1.81,3.31-3.14c0.82-1.36,1.24-2.82,1.27-4.41c0.03-1.58-0.39-3.13-1.27-4.64
						s-2.19-2.8-3.94-3.86S367.98,296.51,366.25,296.45z"/>
					<path d="M357.35,269.23l36.72,15.76l-2.43,5.66l-36.72-15.76L357.35,269.23z"/>
					<path d="M364.63,264.54c-0.96,0.47-1.97,0.53-3.02,0.17c-1.06-0.36-1.82-1.02-2.29-1.98c-0.47-0.96-0.53-1.97-0.17-3.02
						c0.35-1.02,1-1.77,1.96-2.24c0.96-0.47,1.97-0.53,3.02-0.17c1.06,0.36,1.82,1.02,2.29,1.98s0.53,1.95,0.19,2.97
						C366.25,263.3,365.59,264.07,364.63,264.54z M371.32,260.65l28.17,9.59l-1.98,5.83l-28.17-9.59L371.32,260.65z"/>
					<path d="M402.82,255.87c-1.22,1.63-2.65,2.83-4.3,3.58c-1.65,0.75-3.37,0.97-5.14,0.66l1.34-6.23c1.26,0.16,2.41-0.21,3.47-1.1
						c1.06-0.9,1.76-2.15,2.11-3.77c0.36-1.69,0.32-3.07-0.13-4.14c-0.45-1.07-1.19-1.72-2.21-1.94c-1.09-0.24-2.01,0.11-2.76,1.03
						c-0.75,0.92-1.69,2.45-2.8,4.56c-1.07,2.05-2.03,3.71-2.89,4.96c-0.86,1.25-1.98,2.25-3.35,3.01
						c-1.38,0.75-3.02,0.92-4.92,0.52c-1.55-0.33-2.87-1.09-3.95-2.29c-1.09-1.19-1.82-2.72-2.19-4.59
						c-0.37-1.87-0.32-3.91,0.16-6.12c0.71-3.31,2.12-5.79,4.23-7.46c2.11-1.66,4.62-2.26,7.54-1.78l-1.29,6.02
						c-1.32-0.17-2.48,0.13-3.46,0.91c-0.98,0.78-1.64,1.98-1.99,3.6c-0.34,1.58-0.3,2.86,0.11,3.84c0.42,0.97,1.12,1.57,2.1,1.78
						c0.77,0.17,1.49,0.03,2.14-0.42c0.65-0.45,1.21-1.05,1.68-1.79s1.11-1.86,1.91-3.35c1.02-1.99,1.96-3.6,2.83-4.83
						c0.87-1.23,1.98-2.22,3.32-2.96c1.34-0.74,2.94-0.93,4.82-0.56c1.66,0.36,3.03,1.13,4.14,2.33c1.11,1.2,1.85,2.71,2.23,4.54
						c0.38,1.83,0.33,3.87-0.16,6.12C404.89,252.28,404.03,254.24,402.82,255.87z"/>
					<path d="M384.2,220.51l16.42,1.35c1.11,0.09,1.93-0.1,2.46-0.58c0.53-0.48,0.84-1.35,0.95-2.6l0.31-3.77l5.11,0.42l-0.4,4.84
						c-0.23,2.76-1.05,4.83-2.46,6.19c-1.41,1.37-3.57,1.93-6.48,1.69l-16.42-1.35l-0.29,3.5l-5-0.41l0.29-3.5l-7.37-0.61l0.51-6.19
						l7.37,0.61l0.59-7.21l5.01,0.41L384.2,220.51z"/>
					<path d="M408.71,202.71c-0.75,1.89-1.83,3.42-3.24,4.57c-1.4,1.15-3,1.8-4.8,1.96l-0.31-6.36c1.25-0.17,2.28-0.82,3.07-1.96
						c0.79-1.14,1.15-2.53,1.07-4.19c-0.08-1.72-0.48-3.05-1.19-3.97c-0.71-0.92-1.59-1.35-2.63-1.3c-1.11,0.05-1.92,0.63-2.4,1.71
						c-0.49,1.09-1,2.8-1.53,5.13c-0.5,2.26-1.01,4.1-1.51,5.53c-0.51,1.43-1.33,2.69-2.47,3.77s-2.68,1.67-4.62,1.77
						c-1.58,0.08-3.05-0.32-4.41-1.19s-2.46-2.16-3.3-3.87c-0.84-1.71-1.32-3.69-1.43-5.96c-0.16-3.38,0.56-6.14,2.16-8.3
						c1.61-2.15,3.88-3.37,6.82-3.66l0.3,6.15c-1.32,0.17-2.36,0.76-3.1,1.77c-0.74,1.01-1.08,2.34-0.99,4
						c0.08,1.62,0.45,2.84,1.1,3.68c0.65,0.83,1.48,1.23,2.49,1.18c0.79-0.04,1.44-0.36,1.95-0.96c0.51-0.6,0.9-1.32,1.17-2.17
						c0.27-0.84,0.59-2.08,0.98-3.72c0.47-2.18,0.97-3.98,1.49-5.4c0.53-1.41,1.34-2.65,2.44-3.71c1.1-1.06,2.6-1.66,4.51-1.79
						c1.69-0.08,3.22,0.31,4.6,1.18c1.38,0.87,2.48,2.14,3.32,3.81c0.84,1.67,1.31,3.66,1.43,5.96
						C409.78,198.7,409.46,200.81,408.71,202.71z"/>
				</g>
				<g>
					<path d="M125.26,58.37l-4.96,3.25L90.59,48.84l14.8,22.57l-4.96,3.25L80.58,44.39l4.96-3.25l29.69,12.74l-14.77-22.52
						l4.96-3.25L125.26,58.37z"/>
					<path d="M122.68,25.39l4.19,9.75l11.47-4.93l1.91,4.44l-11.47,4.93l4.37,10.18l12.9-5.54l1.91,4.44l-18.35,7.88l-14.29-33.25
						l18.35-7.88l1.91,4.44L122.68,25.39z"/>
					<path d="M190.25,1.98l-3.63,37.52l-6.58,1.28l-12.66-25.41l-2.7,28.39l-6.52,1.32l-16.95-33.58l6.18-1.2l12.95,27.47
						l2.36-30.44l6.53-1.27l12.98,27.3l1.83-30.18L190.25,1.98z"/>
					<path d="M240.89,5.68l-14.3,21.66l-1.37,13.03l-5.9-0.62l1.37-13.03l-9.54-24.16l6.57,0.69l6.48,18.51L234.38,5L240.89,5.68z"
						/>
					<path d="M245.89,41.93c-2.24-2.34-3.73-5.1-4.47-8.28c-0.74-3.18-0.6-6.46,0.44-9.85c1.04-3.38,2.76-6.17,5.15-8.37
						c2.4-2.2,5.18-3.64,8.34-4.32c3.16-0.68,6.35-0.53,9.57,0.46c3.25,1,5.99,2.66,8.23,5c2.24,2.34,3.72,5.09,4.46,8.25
						c0.73,3.16,0.58,6.43-0.46,9.81c-1.04,3.38-2.75,6.18-5.14,8.41c-2.39,2.22-5.16,3.67-8.33,4.35
						c-3.16,0.68-6.37,0.52-9.62-0.48C250.85,45.93,248.12,44.27,245.89,41.93z M262.17,42.31c2.11-0.5,3.97-1.56,5.57-3.19
						c1.61-1.63,2.8-3.72,3.58-6.27c0.78-2.55,0.96-4.94,0.54-7.18c-0.42-2.23-1.37-4.14-2.84-5.71c-1.48-1.58-3.36-2.72-5.64-3.42
						c-2.29-0.7-4.48-0.81-6.59-0.34c-2.1,0.48-3.96,1.52-5.56,3.14c-1.6,1.61-2.79,3.69-3.58,6.25c-0.78,2.55-0.97,4.95-0.55,7.2
						c0.42,2.25,1.36,4.17,2.83,5.76c1.47,1.59,3.35,2.74,5.63,3.44C257.86,42.7,260.06,42.8,262.17,42.31z"/>
					<path d="M290.25,62.36l-0.43-16.67l-3.98-2.15l-6.88,12.71l-5.21-2.82l17.21-31.78l10.97,5.94c2.44,1.32,4.27,2.87,5.5,4.63
						c1.23,1.77,1.88,3.6,1.94,5.49c0.06,1.89-0.38,3.71-1.34,5.48c-1.12,2.07-2.74,3.63-4.86,4.67s-4.6,1.19-7.42,0.45l0.73,17.43
						L290.25,62.36z M288.1,39.38l5.76,3.12c1.95,1.06,3.69,1.37,5.21,0.93c1.52-0.44,2.72-1.48,3.62-3.13
						c0.89-1.65,1.1-3.2,0.63-4.66c-0.47-1.46-1.7-2.72-3.68-3.8l-5.76-3.12L288.1,39.38z"/>
					<path d="M315.22,80.37L314.4,59l-10.1,12.63l-4.63-3.7l22.57-28.23l4.63,3.7l-10.29,12.87l21.26-4.1l5.81,4.64l-23.57,4.33
						l1.2,24.06L315.22,80.37z"/>
				</g>
				<polygon class="st4" points="373.86,93.37 379.45,111.46 397.54,111.46 382.9,122.64 388.49,140.73 373.86,129.55 
					359.22,140.73 364.81,122.64 350.18,111.46 368.27,111.46 				"/>
				<polygon class="st4" points="41.97,93.37 47.56,111.46 65.65,111.46 51.02,122.64 56.61,140.73 41.97,129.55 27.34,140.73 
					32.93,122.64 18.29,111.46 36.38,111.46 				"/>
				<g>
					<path class="st4" d="M286.24,280.47c-4.8-4.18-7.2-10.93-7.2-20.23v-9.09h23.41v11.58c0,4.62,1.89,6.92,5.68,6.92
						c2.12,0,3.6-0.49,4.43-1.46c0.83-0.97,1.25-2.61,1.25-4.92c0-3.03-0.46-5.54-1.38-7.52c-0.92-1.98-2.1-3.64-3.53-4.98
						c-1.43-1.33-3.99-3.41-7.69-6.22l-10.25-8.01c-7.94-6.06-11.91-12.77-11.91-20.12c0-7.93,2.33-13.97,6.99-18.12
						c4.66-4.15,11.47-6.22,20.43-6.22c10.71,0,18.42,2.22,23.13,6.65c4.71,4.44,7.06,11.38,7.06,20.83h-24.24l-0.14-6.38
						c0-1.23-0.44-2.2-1.32-2.92c-0.88-0.72-2.1-1.08-3.67-1.08c-1.85,0-3.23,0.4-4.15,1.19c-0.92,0.79-1.39,1.88-1.39,3.25
						c0,3.03,2.22,6.17,6.65,9.41l13.85,10.39c3.23,2.45,5.91,4.78,8.03,6.98c2.12,2.2,3.83,4.8,5.12,7.79
						c1.29,2.99,1.94,6.55,1.94,10.66c0,9.16-2.15,16.1-6.44,20.83c-4.29,4.73-11.38,7.09-21.26,7.09
						C298.85,286.74,291.04,284.65,286.24,280.47z"/>
				</g>
				<g>
					<path class="st4" d="M85.16,285.55v-92.94h24.51l10.94,44.47v-44.47h22.99v92.94h-23.27l-11.91-46.53v46.53H85.16z"/>
					<g>
						<g>
							<polygon class="st4" points="202.73,203.63 201.84,202.54 202.31,201.22 205.33,192.61 186.4,192.61 179.75,224.1 
								173.11,192.61 149.56,192.61 168.54,254.93 168.54,285.55 190.97,285.55 190.97,254.93 205.54,207.06 							"/>
						</g>
					</g>
				</g>
				<g>
					<path class="st4" d="M262.03,237.83c4.41-1.17,7.51-3.26,9.29-6.27c1.78-3.01,2.68-7.19,2.68-12.54
						c0-5.87-0.56-10.69-1.69-14.46c-1.13-3.78-3.31-6.71-6.55-8.8c-3.24-2.09-7.81-3.13-13.73-3.13h-33.62l11.48,12.08l0.23,10.24
						l-8.55-5.78l-3.61-16.54h-3.1v5.57l1.08,2.43l0.55,1.24l-0.74,1.14l-0.88,1.36v82.75h24.5v-43.12c3.47,0,5.87,0.37,7.18,1.1
						c1.31,0.73,1.97,2.42,1.97,5.06v36.96h23.65l0.28-35.75c0-3.89-0.82-6.97-2.46-9.24C268.35,239.85,265.69,238.42,262.03,237.83
						z M245.28,227.6h-5.77v-17.49h5.63c1.41,0,2.49,0.24,3.24,0.71c0.75,0.48,1.27,1.34,1.55,2.58c0.28,1.25,0.42,3.12,0.42,5.61
						C250.35,224.74,248.66,227.6,245.28,227.6z"/>
				</g>
				<g>
					<polygon class="st4" points="251.97,117.9 259.98,123.59 250.35,134.43 272.84,123.7 266.73,116.49 275.36,105.51 					"/>
					<g>
						<polygon class="st4" points="212.22,136.85 209.44,157.92 219.1,165.66 207.72,170.94 204.94,192.01 200.69,174.21 
							189.31,179.5 198.06,163.21 193.81,145.41 203.47,153.14 						"/>
					</g>
					<polygon class="st4" points="212.42,122.49 232.34,110.81 231.45,127.25 270.02,93.44 243.34,97.01 244.7,74.07 223.64,94.29 
						209.63,80.4 					"/>
					<polygon class="st4" points="191.99,109.25 193.44,99.11 200.93,106.22 201.79,123.75 					"/>
					<path class="st4" d="M179.64,150.32l10.54,11.99l-15.88-0.2l-4.56-9.03L179.64,150.32"/>
					<g>
						<path class="st4" d="M182.91,149.49l10.66,12.13l-3.65-15.28L187.22,135l9.1,7.29l5.91,4.73l1.99-3.7
							c-1.72-6.65-5.17-10.44-5.17-10.44c-16-18.93-47.73-17.13-47.73-17.13S186.76,121.56,182.91,149.49z"/>
						<g>
							<path class="st4" d="M160.32,188.99l1.49-3.22c8.55,0.9,15.51-0.44,21.1-2.81l2.88-5.36l6.59-12.27l-15.51-0.19
								c-8.19,11.37-20.8,11.1-20.8,11.1l-8.96,12.75H160.32z"/>
						</g>
						<g>
							<path class="st4" d="M276.61,205.77c1.37-4.17,3.63-7.67,6.77-10.46c1.88-1.67,4.06-3.05,6.51-4.15l0.6-0.66l-39.77-29.18
								l16.07-13.13l-30.91-14.77l-21.47,17.55l-0.69,5.25l3.79,3.04l12.57-10.71l12.18,1.74l-7.26,10.08l-14.77,1.07l1.38,1.11
								l5.03,4.03l-5.85,2.72l-9.39,4.36l-0.81,6.12l7.02,8.59l16.07-13.13l18.46,14.35c0,0,19.91-2.36,24.22,16.46L276.61,205.77z"
								/>
						</g>
					</g>
					<polygon class="st4" points="213.66,201.64 209.52,207.98 204.67,202.05 208.73,190.49 					"/>
				</g>
			</g>
		</g>
		<g class="st0">
			<g class="st1">
				<g>
					<g>
						<path d="M125.32,43.06c2.45,0.95,4.33,2.55,5.64,4.8c1.12,1.92,1.63,3.94,1.53,6.06c-0.1,2.12-0.83,4.17-2.2,6.16
							c-1.37,1.99-3.3,3.7-5.8,5.16l-15.12,8.79L87.33,36.24l14.41-8.38c2.57-1.5,5.04-2.35,7.4-2.55c2.36-0.21,4.43,0.15,6.23,1.07
							c1.8,0.92,3.23,2.29,4.28,4.1c1.27,2.17,1.75,4.33,1.43,6.45c-0.31,2.12-1.25,4.1-2.81,5.93
							C120.52,42.03,122.87,42.1,125.32,43.06z M102.79,48.51l7.67-4.46c2.03-1.18,3.35-2.56,3.95-4.15c0.6-1.59,0.4-3.25-0.62-4.99
							c-0.99-1.7-2.34-2.7-4.04-3c-1.7-0.3-3.57,0.14-5.6,1.33l-7.67,4.46L102.79,48.51z M125.06,56.1c0.6-1.71,0.38-3.47-0.68-5.29
							c-1.08-1.85-2.57-2.95-4.47-3.3c-1.9-0.35-3.91,0.09-6.01,1.31l-8.16,4.74l6.88,11.8l8.38-4.87
							C123.1,59.27,124.45,57.81,125.06,56.1z"/>
						<path d="M146.91,51.8c-3.82-0.86-7.17-2.65-10.05-5.37c-2.88-2.72-4.93-6.13-6.14-10.23c-1.21-4.1-1.34-8.07-0.39-11.89
							c0.95-3.82,2.79-7.13,5.53-9.93c2.74-2.8,6.06-4.77,9.96-5.92c3.94-1.16,7.83-1.31,11.65-0.44c3.82,0.87,7.16,2.65,10.01,5.35
							c2.85,2.7,4.89,6.11,6.1,10.21c1.21,4.1,1.36,8.07,0.43,11.91c-0.92,3.84-2.75,7.15-5.49,9.95c-2.74,2.8-6.08,4.77-10.03,5.94
							C154.6,52.52,150.74,52.66,146.91,51.8z M163.6,41.31c1.8-1.91,2.96-4.22,3.5-6.93c0.53-2.71,0.34-5.62-0.57-8.72
							c-0.92-3.1-2.33-5.63-4.25-7.61c-1.92-1.97-4.15-3.26-6.69-3.87s-5.2-0.5-7.98,0.31c-2.78,0.82-5.07,2.17-6.87,4.06
							c-1.8,1.89-2.98,4.18-3.52,6.87c-0.54,2.7-0.35,5.59,0.57,8.69c0.92,3.1,2.33,5.64,4.26,7.63s4.16,3.3,6.71,3.93
							c2.55,0.63,5.21,0.53,7.99-0.28C159.51,44.58,161.8,43.22,163.6,41.31z"/>
						<path d="M188.39,43.81c-2.4-0.91-4.32-2.27-5.76-4.08c-1.44-1.82-2.22-3.98-2.35-6.49l7.67-0.39
							c0.26,1.88,1.09,3.39,2.47,4.54c1.38,1.15,3.27,1.66,5.66,1.54c2.47-0.13,4.37-0.82,5.69-2.09c1.32-1.26,1.93-2.84,1.84-4.72
							c-0.07-1.46-0.57-2.64-1.47-3.52c-0.91-0.88-2.01-1.53-3.32-1.97c-1.3-0.44-3.1-0.89-5.4-1.36c-2.89-0.61-5.24-1.25-7.06-1.94
							c-1.82-0.68-3.4-1.81-4.74-3.38c-1.34-1.57-2.08-3.72-2.22-6.44c-0.13-2.51,0.39-4.75,1.54-6.69c1.16-1.95,2.85-3.48,5.06-4.6
							c2.21-1.12,4.8-1.76,7.78-1.91c4.23-0.22,7.75,0.67,10.57,2.64c2.81,1.98,4.46,4.8,4.94,8.47l-7.92,0.4
							c-0.21-1.58-1.03-2.91-2.47-3.97c-1.44-1.06-3.29-1.53-5.56-1.42c-2.05,0.1-3.7,0.71-4.95,1.83
							c-1.25,1.11-1.82,2.65-1.71,4.62c0.07,1.34,0.53,2.42,1.39,3.24c0.86,0.82,1.93,1.44,3.22,1.88c1.28,0.44,3.03,0.89,5.24,1.37
							c2.93,0.65,5.33,1.33,7.19,2.03c1.86,0.7,3.48,1.85,4.84,3.44c1.36,1.59,2.12,3.77,2.26,6.53c0.11,2.22-0.37,4.34-1.47,6.37
							c-1.09,2.03-2.75,3.7-4.97,5.01c-2.22,1.31-4.89,2.04-7.99,2.2C193.46,45.1,190.79,44.72,188.39,43.81z"/>
						<path d="M250.01,5l-0.85,5.79L237.64,9.1l-5.49,37.47l-7.1-1.04l5.49-37.47l-11.58-1.7l0.85-5.79L250.01,5z"/>
						<path d="M255.16,49.28c-2.49-3.02-4.04-6.49-4.65-10.4s-0.14-7.85,1.42-11.84c1.56-3.98,3.89-7.2,6.98-9.63
							c3.09-2.44,6.58-3.92,10.46-4.46c3.88-0.53,7.72-0.06,11.51,1.42c3.83,1.5,6.99,3.76,9.48,6.78
							c2.49,3.02,4.03,6.47,4.63,10.36c0.6,3.88,0.12,7.82-1.44,11.8c-1.56,3.98-3.88,7.21-6.96,9.67
							c-3.08,2.47-6.57,3.96-10.45,4.5c-3.88,0.53-7.74,0.05-11.57-1.45C260.79,54.55,257.65,52.3,255.16,49.28z M274.79,51.2
							c2.59-0.41,4.93-1.52,7.02-3.34c2.09-1.82,3.72-4.23,4.89-7.24c1.18-3.01,1.61-5.88,1.31-8.61c-0.31-2.73-1.28-5.11-2.91-7.15
							c-1.64-2.04-3.8-3.58-6.5-4.63c-2.7-1.05-5.34-1.39-7.92-1c-2.58,0.39-4.92,1.48-7,3.28c-2.08,1.8-3.71,4.2-4.88,7.21
							c-1.18,3.01-1.62,5.89-1.32,8.64c0.3,2.75,1.26,5.15,2.89,7.21c1.63,2.05,3.79,3.61,6.49,4.66S272.2,51.61,274.79,51.2z"/>
						<path d="M315.83,86.15l-5.8-4.22l1.76-39.09l-19.22,26.4l-5.8-4.22l25.78-35.41l5.8,4.21l-1.72,39.04l19.19-26.35l5.8,4.22
							L315.83,86.15z"/>
					</g>
					<polygon class="st4" points="373.92,94.66 379.51,112.73 397.6,112.73 382.97,123.89 388.56,141.96 373.92,130.79 
						359.28,141.96 364.87,123.89 350.24,112.73 368.33,112.73 					"/>
					<polygon class="st4" points="42.03,94.66 47.62,112.73 65.72,112.73 51.08,123.89 56.67,141.96 42.03,130.79 27.4,141.96 
						32.99,123.89 18.35,112.73 36.44,112.73 					"/>
					<g>
						<g>
							<path class="st4" d="M216.1,192.74l0.4,0.91l0.4,0.9l-0.39-1.8c-0.03,0-0.05,0-0.08,0H216.1z"/>
							<path class="st4" d="M228.6,247.74c5.37-1.43,9.15-3.97,11.32-7.63c2.17-3.66,3.26-8.74,3.26-15.25c0-7.14-0.69-13-2.06-17.6
								c-1.37-4.59-4.03-8.16-7.98-10.71c-0.22-0.14-0.45-0.26-0.68-0.39l0.51,0.53l0.03,1.16l0.23,10.23l0.13,5.8l-4.81-3.25
								l-8.55-5.77l-1-0.67l-0.26-1.17l-1.69-7.73l-0.79,1.21l-4.13,6.33l-2.24,3.43l-2.6-3.17l-4.86-5.92l-1.07-1.3l0.56-1.59
								l0.54-1.53h-31.34v114.95h29.84v-52.46c4.23,0,7.15,0.45,8.75,1.34c1.6,0.89,2.4,2.94,2.4,6.16v44.96h28.81l0.34-43.49
								c0-4.73-1-8.47-3-11.24C236.29,250.2,233.06,248.46,228.6,247.74z M208.19,235.3h-7.03v-21.28h6.86
								c1.72,0,3.03,0.29,3.94,0.87c0.91,0.58,1.54,1.63,1.89,3.15c0.34,1.52,0.51,3.79,0.51,6.82
								C214.37,231.82,212.31,235.3,208.19,235.3z"/>
						</g>
						<g>
							<path class="st4" d="M258.96,301c-5.95-5.17-8.92-13.52-8.92-25.02v-11.24h28.99v14.32c0,5.71,2.34,8.56,7.03,8.56
								c2.63,0,4.46-0.6,5.49-1.81c1.03-1.2,1.54-3.23,1.54-6.09c0-3.75-0.57-6.85-1.71-9.3c-1.14-2.45-2.6-4.5-4.37-6.16
								c-1.77-1.65-4.95-4.22-9.52-7.69l-12.69-9.9c-9.84-7.49-14.75-15.79-14.75-24.89c0-9.81,2.89-17.28,8.66-22.41
								c5.77-5.13,14.21-7.69,25.3-7.69c13.26,0,22.81,2.74,28.64,8.23c5.83,5.49,8.75,14.07,8.75,25.76h-30.02l-0.17-7.89
								c0-1.52-0.54-2.72-1.63-3.61c-1.09-0.89-2.6-1.34-4.55-1.34c-2.29,0-4,0.49-5.15,1.47c-1.14,0.98-1.72,2.32-1.72,4.01
								c0,3.75,2.74,7.63,8.23,11.64l17.15,12.85c4,3.03,7.32,5.91,9.95,8.63c2.63,2.72,4.74,5.93,6.35,9.63
								c1.6,3.7,2.4,8.1,2.4,13.18c0,11.33-2.66,19.92-7.98,25.76c-5.32,5.84-14.09,8.76-26.33,8.76
								C274.57,308.76,264.91,306.18,258.96,301z"/>
						</g>
						<g>
							<polygon class="st4" points="252.07,111.24 260.09,116.93 250.45,127.75 272.95,117.04 266.83,109.83 275.46,98.87 							
								"/>
							<g>
								<polygon class="st4" points="212.33,130.17 209.55,151.21 219.2,158.93 207.83,164.21 205.04,185.25 200.79,167.48 
									189.42,172.76 198.17,156.49 193.92,138.71 203.58,146.44 								"/>
							</g>
							<polygon class="st4" points="212.53,115.82 232.45,104.17 231.56,120.57 270.12,86.81 243.45,90.38 244.81,67.47 
								223.74,87.66 209.74,73.8 							"/>
							<polygon class="st4" points="192.09,102.61 193.55,92.48 201.03,99.58 201.9,117.09 							"/>
							<path class="st4" d="M179.75,143.61l10.54,11.98l-15.88-0.2l-4.56-9.02L179.75,143.61"/>
							<g>
								<path class="st4" d="M183.01,142.79l10.66,12.11l-3.65-15.26l-2.71-11.32l9.1,7.28l5.91,4.73l1.99-3.69
									c-1.72-6.65-5.17-10.43-5.17-10.43c-16-18.9-47.73-17.11-47.73-17.11S186.86,114.89,183.01,142.79z"/>
								<g>
									<path class="st4" d="M156.92,196.7l4.99-17.68c8.55,0.9,15.51-0.44,21.1-2.81l2.88-5.35l6.59-12.25l-15.51-0.19
										c-8.19,11.35-20.8,11.08-20.8,11.08l-12.46,20.07C148.17,191.11,153.89,193.93,156.92,196.7z"/>
								</g>
								<g>
									<path class="st4" d="M233.79,168.5l21.96,26.83c5.39-4.64,12.63-7.43,21.59-8.33l-26.52-32.41l16.07-13.11l-30.91-14.75
										l-21.47,17.53l-0.69,5.25l3.79,3.03l12.57-10.7l12.18,1.74l-7.26,10.07l-14.77,1.07l1.38,1.1l5.03,4.03l-5.85,2.71
										l-9.39,4.35l-0.81,6.12l7.02,8.58L233.79,168.5z"/>
								</g>
							</g>
							<g>
								<polygon class="st4" points="230.01,197.93 230.24,208.15 221.68,202.38 217.94,185.25 								"/>
							</g>
							<g>
								<polygon class="st4" points="213.76,194.86 209.63,201.19 204.77,195.27 208.83,183.74 								"/>
							</g>
						</g>
						<g>
							<path class="st4" d="M90.43,193.41h39.96c10.75,0,18.55,2.05,23.41,6.16c4.86,4.1,7.29,10.79,7.29,20.07v5.08
								c0,10.97-5.03,17.53-15.09,19.67c6.17,1.25,10.52,4.15,13.04,8.7c2.51,4.55,3.77,10.57,3.77,18.07
								c0,12.22-2.34,21.48-7.03,27.77c-4.69,6.29-13.15,9.43-25.39,9.43H90.43V193.41z M125.24,236.64c2.51,0,4.23-0.74,5.15-2.21
								c0.91-1.47,1.37-3.55,1.37-6.22V216.7c0-3.75-2.12-5.62-6.35-5.62h-6.17v25.56H125.24z M133.65,279.59v-14.32
								c0-3.48-0.66-6.11-1.97-7.9c-1.32-1.78-3.63-2.68-6.95-2.68h-5.49v33.32l2.92,0.13C129.82,288.16,133.65,285.3,133.65,279.59
								z"/>
						</g>
					</g>
				</g>
				<g>
					<path d="M29.23,198.25c0.73,1.55,1.02,3.35,0.86,5.4l-6.35-0.48l0.12-1.56c0.18-2.41-0.29-4.27-1.41-5.6
						c-1.13-1.33-3.2-2.11-6.21-2.34l-15.61-1.19l0.47-6.14l29.67,2.26l-0.47,6.14l-4.31-0.33C27.42,195.41,28.5,196.7,29.23,198.25
						z"/>
					<path d="M14.08,235.88l-1.59-22.68c-2.36,0.35-4.2,1.36-5.52,3.04c-1.33,1.68-1.91,3.67-1.75,5.97
						c0.23,3.3,1.78,5.54,4.64,6.71l0.47,6.63c-2.79-0.71-5.14-2.17-7.05-4.4c-1.91-2.23-2.98-5.09-3.23-8.57
						c-0.2-2.84,0.26-5.42,1.38-7.76c1.12-2.33,2.79-4.22,5.01-5.66c2.23-1.44,4.87-2.26,7.92-2.48s5.78,0.22,8.18,1.29
						c2.4,1.08,4.31,2.69,5.73,4.85c1.42,2.16,2.22,4.69,2.43,7.6c0.2,2.8-0.24,5.34-1.3,7.62c-1.07,2.28-2.66,4.1-4.79,5.48
						c-2.12,1.38-4.62,2.17-7.49,2.37C16,235.97,14.99,235.96,14.08,235.88z M18.6,229.34c2.26-0.2,4.02-1.13,5.27-2.81
						c1.25-1.68,1.8-3.68,1.63-6.02c-0.15-2.12-0.95-3.89-2.4-5.3c-1.45-1.41-3.34-2.18-5.66-2.31L18.6,229.34z"/>
					<path d="M11.4,256.02l25.56,2.33l1.57,6.34l-31.61-3.83l-1.77-7.13l26.16-18.13L32.9,242L11.4,256.02z"/>
					<path d="M15.84,283.6c0.25-2.59,1.17-4.95,2.77-7.08s3.79-3.81,6.59-5.05c2.77-1.23,5.49-1.71,8.17-1.44
						c2.68,0.27,5.06,1.2,7.15,2.8c2.09,1.59,3.71,3.69,4.86,6.29c1.15,2.6,1.62,5.21,1.4,7.82c-0.22,2.62-1.13,5.01-2.73,7.18
						c-1.6,2.17-3.78,3.86-6.54,5.09c-2.76,1.23-5.49,1.69-8.19,1.39c-2.7-0.3-5.1-1.27-7.23-2.91c-2.12-1.64-3.76-3.76-4.92-6.36
						C16.04,288.77,15.59,286.19,15.84,283.6z M24.91,292.78c1.25,0.96,2.75,1.53,4.48,1.71c1.73,0.18,3.58-0.17,5.56-1.05
						s3.48-2,4.51-3.36c1.03-1.36,1.61-2.82,1.75-4.38c0.14-1.56-0.12-3.06-0.76-4.51c-0.64-1.45-1.58-2.64-2.82-3.56
						c-1.24-0.93-2.7-1.45-4.39-1.57c-1.69-0.12-3.52,0.26-5.49,1.14c-2.93,1.3-4.86,3.05-5.79,5.26c-0.93,2.21-0.89,4.44,0.11,6.71
						C22.71,290.62,23.65,291.82,24.91,292.78z"/>
					<path d="M65.89,296.91L31.8,317.76l-3.21-5.25l34.09-20.86L65.89,296.91z"/>
					<path d="M77.44,328.96l-23.09,18.77l-3.88-4.78l2.72-2.21c-1.56,0.02-3.11-0.36-4.64-1.13c-1.53-0.77-2.86-1.84-3.97-3.21
						c-1.48-1.82-2.42-3.75-2.84-5.8c-0.42-2.05-0.22-4.09,0.59-6.12c0.81-2.03,2.26-3.89,4.36-5.6l13.58-11.04l3.85,4.73
						l-12.87,10.46c-2.07,1.68-3.23,3.49-3.5,5.42c-0.26,1.93,0.33,3.79,1.79,5.58c1.45,1.79,3.16,2.76,5.11,2.91
						c1.95,0.15,3.97-0.61,6.03-2.29l12.86-10.46L77.44,328.96z"/>
					<path d="M84.25,341.86l-11.1,12.17c-0.75,0.83-1.1,1.59-1.04,2.3c0.06,0.71,0.55,1.49,1.48,2.34l2.79,2.55l-3.46,3.79
						l-3.59-3.27c-2.05-1.87-3.18-3.78-3.4-5.73c-0.22-1.95,0.66-4.01,2.62-6.16l11.1-12.17l-2.59-2.36l3.38-3.71l2.59,2.37
						l4.99-5.47l4.59,4.18l-4.98,5.47l5.35,4.88l-3.38,3.71L84.25,341.86z"/>
					<path d="M101.62,349.52l-17.94,23.74l-4.91-3.71l17.94-23.74L101.62,349.52z M100.03,341.95c-0.15-1.06,0.12-2.03,0.79-2.92
						c0.67-0.89,1.54-1.41,2.6-1.56s2.03,0.12,2.92,0.79c0.86,0.65,1.37,1.51,1.52,2.57c0.15,1.06-0.12,2.03-0.79,2.92
						c-0.67,0.89-1.54,1.41-2.6,1.56c-1.06,0.15-2.02-0.1-2.88-0.76C100.69,343.88,100.17,343.01,100.03,341.95z"/>
					<path d="M97.45,380.98c-1.34-2.23-2-4.68-1.98-7.34c0.02-2.66,0.79-5.32,2.3-7.98c1.49-2.63,3.4-4.63,5.71-6.01
						c2.31-1.38,4.78-2.04,7.41-2c2.62,0.04,5.17,0.77,7.65,2.17c2.47,1.41,4.4,3.23,5.78,5.46c1.38,2.23,2.07,4.7,2.07,7.39
						c0,2.69-0.74,5.35-2.24,7.98c-1.5,2.63-3.42,4.62-5.76,5.98c-2.35,1.36-4.86,2.01-7.54,1.96c-2.68-0.05-5.26-0.78-7.73-2.19
						C100.68,385.02,98.79,383.21,97.45,380.98z M110.2,382.98c1.58,0.03,3.12-0.4,4.62-1.29c1.5-0.89,2.78-2.27,3.85-4.15
						c1.07-1.88,1.61-3.67,1.63-5.38c0.02-1.71-0.38-3.23-1.2-4.56c-0.82-1.33-1.91-2.39-3.29-3.17c-1.38-0.78-2.84-1.18-4.39-1.19
						c-1.55-0.01-3.04,0.44-4.46,1.35c-1.43,0.91-2.67,2.3-3.74,4.18c-1.58,2.79-2.1,5.34-1.53,7.67c0.56,2.33,1.92,4.1,4.08,5.33
						C107.14,382.54,108.62,382.95,110.2,382.98z"/>
					<path d="M155.14,377.15c1.44,1.52,2.34,3.35,2.71,5.5c0.37,2.14,0.11,4.49-0.76,7.05l-5.71,16.6l-5.77-1.98l5.41-15.73
						c0.87-2.52,0.9-4.67,0.1-6.45c-0.8-1.78-2.29-3.04-4.46-3.79c-2.18-0.75-4.14-0.67-5.88,0.24c-1.74,0.91-3.04,2.62-3.91,5.14
						l-5.41,15.73l-5.82-2l9.67-28.14l5.82,2l-1.11,3.22c1.35-0.83,2.88-1.31,4.58-1.45c1.7-0.14,3.39,0.08,5.06,0.65
						C151.88,374.48,153.71,375.62,155.14,377.15z"/>
					<path d="M165.56,386.27c1.55-2.11,3.47-3.65,5.77-4.62c2.3-0.97,4.73-1.28,7.3-0.92c2.32,0.32,4.28,1.06,5.88,2.21
						c1.6,1.15,2.83,2.47,3.67,3.97l0.59-4.28l6.15,0.85l-4.1,29.47l-6.15-0.85l0.61-4.39c-1.23,1.25-2.8,2.21-4.71,2.89
						c-1.91,0.68-4.01,0.86-6.29,0.54c-2.53-0.35-4.76-1.32-6.68-2.92c-1.92-1.59-3.34-3.64-4.24-6.15
						c-0.91-2.51-1.15-5.24-0.74-8.2S164.02,388.38,165.56,386.27z M186.21,391.86c-0.63-1.61-1.57-2.91-2.81-3.88
						c-1.25-0.97-2.65-1.57-4.22-1.79c-1.57-0.22-3.08-0.04-4.55,0.54c-1.46,0.58-2.72,1.55-3.76,2.91
						c-1.04,1.36-1.71,3.06-1.99,5.09c-0.28,2.03-0.11,3.87,0.51,5.52c0.62,1.65,1.57,2.97,2.83,3.96c1.26,0.99,2.66,1.6,4.19,1.81
						c1.57,0.22,3.08,0.03,4.55-0.57c1.46-0.6,2.72-1.59,3.77-2.99c1.05-1.4,1.71-3.11,2-5.15
						C187.02,395.3,186.84,393.48,186.21,391.86z"/>
					<path d="M211.13,383.87c1.48-0.87,3.24-1.33,5.3-1.36l0.11,6.37l-1.57,0.03c-2.41,0.04-4.23,0.68-5.45,1.93
						c-1.22,1.25-1.8,3.38-1.75,6.4l0.27,15.66l-6.16,0.1l-0.51-29.75l6.16-0.1l0.07,4.32
						C208.47,385.94,209.65,384.74,211.13,383.87z"/>
					<path d="M247.05,378.62l-11.13,46.07l-6.29,1l3.69-15.24l-16.18-27.06l6.77-1.08l11.84,21.08l5.01-23.77L247.05,378.62z"/>
					<path d="M277.73,398.7c-2.04-0.07-3.83-0.57-5.39-1.51c-1.56-0.93-2.71-2.22-3.47-3.85l5.88-2.44
						c0.58,1.12,1.54,1.86,2.88,2.22c1.34,0.36,2.77,0.22,4.3-0.41c1.6-0.66,2.71-1.48,3.33-2.46c0.62-0.98,0.74-1.95,0.34-2.92
						c-0.43-1.03-1.24-1.59-2.42-1.68c-1.19-0.09-2.97,0-5.35,0.29c-2.3,0.29-4.2,0.44-5.72,0.44c-1.52,0.01-2.98-0.34-4.38-1.05
						s-2.48-1.95-3.22-3.75c-0.61-1.46-0.73-2.98-0.37-4.55c0.36-1.57,1.2-3.04,2.53-4.41c1.32-1.37,3.03-2.49,5.13-3.35
						c3.12-1.3,5.97-1.55,8.54-0.77c2.57,0.79,4.48,2.52,5.75,5.19l-5.69,2.36c-0.61-1.19-1.52-1.96-2.72-2.32
						c-1.2-0.36-2.57-0.22-4.1,0.41c-1.5,0.62-2.53,1.38-3.09,2.28c-0.56,0.9-0.65,1.81-0.26,2.74c0.3,0.73,0.82,1.24,1.56,1.51
						c0.74,0.28,1.55,0.4,2.43,0.36c0.88-0.03,2.16-0.15,3.84-0.33c2.22-0.3,4.08-0.43,5.59-0.42s2.95,0.37,4.32,1.04
						c1.37,0.68,2.44,1.89,3.21,3.64c0.65,1.56,0.79,3.14,0.44,4.73c-0.35,1.59-1.18,3.06-2.47,4.41c-1.29,1.35-3,2.47-5.13,3.35
						C281.87,398.35,279.77,398.77,277.73,398.7z"/>
					<path d="M306.9,384.16c-2.6,0.13-5.07-0.44-7.41-1.71c-2.34-1.27-4.32-3.2-5.96-5.78c-1.62-2.56-2.49-5.18-2.61-7.87
						c-0.12-2.69,0.45-5.18,1.72-7.48c1.27-2.3,3.11-4.21,5.52-5.72c2.4-1.52,4.92-2.36,7.54-2.53c2.62-0.17,5.12,0.38,7.5,1.65
						c2.38,1.27,4.37,3.18,5.99,5.73s2.47,5.19,2.57,7.9c0.09,2.71-0.51,5.23-1.82,7.57c-1.31,2.34-3.17,4.27-5.57,5.79
						C311.98,383.22,309.5,384.03,306.9,384.16z M314.66,373.86c0.77-1.38,1.11-2.94,1.03-4.68c-0.08-1.74-0.69-3.52-1.85-5.35
						c-1.15-1.83-2.48-3.15-3.98-3.97c-1.5-0.82-3.03-1.18-4.59-1.09c-1.56,0.09-3.01,0.56-4.35,1.41
						c-1.34,0.85-2.38,1.95-3.11,3.31c-0.74,1.36-1.04,2.88-0.91,4.57c0.13,1.69,0.77,3.44,1.93,5.27c1.71,2.71,3.73,4.36,6.04,4.96
						c2.32,0.6,4.53,0.24,6.63-1.09C312.84,376.35,313.89,375.24,314.66,373.86z"/>
					<path d="M318.85,350.25c-0.66-2.55-0.61-5.03,0.15-7.45c0.76-2.41,2.19-4.59,4.28-6.51c2.65-2.44,5.42-3.83,8.31-4.17
						c2.89-0.34,5.72,0.37,8.47,2.14l-4.88,4.5c-1.4-0.72-2.81-0.98-4.25-0.78c-1.44,0.2-2.82,0.91-4.14,2.12
						c-1.85,1.71-2.72,3.72-2.61,6.05c0.11,2.32,1.25,4.66,3.42,7.02c2.17,2.36,4.42,3.69,6.74,4c2.32,0.31,4.4-0.39,6.26-2.1
						c2.62-2.42,3.29-5.17,2.01-8.25l4.88-4.5c1.42,2.81,1.85,5.67,1.31,8.59c-0.54,2.92-2.11,5.58-4.7,7.97
						c-2.09,1.93-4.38,3.17-6.86,3.72c-2.48,0.55-4.96,0.39-7.45-0.47s-4.77-2.42-6.84-4.67
						C320.88,355.2,319.51,352.8,318.85,350.25z"/>
					<path d="M332.85,319.87c-1.07,0.09-2.02-0.22-2.88-0.94c-0.85-0.72-1.33-1.61-1.42-2.68c-0.09-1.06,0.22-2.02,0.94-2.88
						c0.69-0.83,1.58-1.28,2.64-1.38c1.06-0.09,2.03,0.22,2.88,0.94c0.85,0.72,1.33,1.61,1.42,2.68c0.09,1.06-0.21,2.01-0.91,2.84
						C334.8,319.3,333.91,319.78,332.85,319.87z M340.48,318.68l22.76,19.17l-3.97,4.71l-22.75-19.17L340.48,318.68z"/>
					<path d="M350.66,317.58c-1.28-2.28-1.89-4.67-1.83-7.16c0.06-2.49,0.79-4.84,2.17-7.03c1.25-1.98,2.73-3.46,4.44-4.44
						c1.71-0.98,3.42-1.55,5.13-1.7l-3.65-2.31l3.32-5.25l25.15,15.9l-3.32,5.25l-3.74-2.37c0.63,1.63,0.86,3.46,0.69,5.48
						c-0.17,2.02-0.87,4.01-2.1,5.95c-1.37,2.16-3.17,3.79-5.42,4.88c-2.25,1.09-4.7,1.53-7.35,1.32c-2.66-0.21-5.25-1.11-7.77-2.71
						C353.85,321.8,351.94,319.86,350.66,317.58z M364.28,301.09c-1.73-0.09-3.3,0.23-4.7,0.96c-1.4,0.73-2.52,1.77-3.37,3.11
						c-0.85,1.34-1.31,2.79-1.38,4.36c-0.08,1.57,0.29,3.11,1.1,4.63s2.08,2.82,3.82,3.91c1.73,1.1,3.48,1.7,5.24,1.81
						c1.76,0.11,3.35-0.2,4.78-0.94c1.42-0.74,2.55-1.76,3.38-3.07c0.85-1.34,1.3-2.8,1.36-4.38c0.06-1.58-0.33-3.13-1.17-4.67
						c-0.84-1.53-2.13-2.85-3.86-3.94C367.75,301.77,366.01,301.18,364.28,301.09z"/>
					<path d="M355.99,273.68l36.36,16.58l-2.55,5.6l-36.36-16.58L355.99,273.68z"/>
					<path d="M363.39,269.13c-0.97,0.45-1.98,0.48-3.03,0.1c-1.05-0.38-1.8-1.06-2.25-2.03c-0.45-0.97-0.48-1.98-0.1-3.03
						c0.37-1.01,1.04-1.75,2.01-2.2c0.97-0.45,1.98-0.48,3.03-0.1c1.05,0.38,1.8,1.06,2.25,2.03c0.45,0.97,0.49,1.96,0.12,2.98
						C365.04,267.93,364.36,268.68,363.39,269.13z M370.16,265.4l27.93,10.25l-2.12,5.78l-27.93-10.25L370.16,265.4z"/>
					<path d="M401.77,261.36c-1.26,1.61-2.72,2.76-4.39,3.47c-1.67,0.71-3.39,0.89-5.16,0.54l1.49-6.2
						c1.25,0.19,2.42-0.15,3.49-1.02c1.08-0.87,1.81-2.11,2.2-3.72c0.41-1.68,0.39-3.06-0.03-4.15c-0.42-1.08-1.14-1.75-2.16-1.99
						c-1.08-0.26-2.01,0.06-2.79,0.97c-0.77,0.91-1.74,2.4-2.91,4.49c-1.12,2.03-2.12,3.66-3.01,4.89
						c-0.89,1.23-2.03,2.21-3.42,2.92c-1.39,0.72-3.04,0.85-4.93,0.4c-1.54-0.37-2.84-1.16-3.9-2.38c-1.06-1.22-1.75-2.76-2.08-4.64
						c-0.33-1.87-0.23-3.91,0.3-6.12c0.79-3.29,2.26-5.74,4.41-7.35c2.15-1.61,4.67-2.14,7.58-1.59l-1.44,5.99
						c-1.32-0.21-2.48,0.07-3.48,0.83c-1,0.76-1.69,1.95-2.08,3.56c-0.38,1.58-0.37,2.85,0.02,3.84c0.39,0.98,1.08,1.59,2.06,1.83
						c0.77,0.19,1.49,0.06,2.15-0.37s1.24-1.02,1.73-1.75c0.49-0.73,1.15-1.83,1.99-3.3c1.07-1.96,2.05-3.55,2.95-4.76
						c0.9-1.21,2.03-2.17,3.38-2.88c1.36-0.71,2.97-0.86,4.83-0.45c1.65,0.4,3.01,1.21,4.08,2.43c1.08,1.22,1.78,2.75,2.12,4.59
						c0.33,1.84,0.23,3.88-0.31,6.12C403.93,257.82,403.03,259.76,401.77,261.36z"/>
					<path d="M383.98,225.57l16.38,1.71c1.11,0.12,1.93-0.06,2.47-0.53c0.54-0.47,0.87-1.33,1-2.58l0.39-3.76l5.1,0.53l-0.5,4.83
						c-0.29,2.76-1.15,4.8-2.59,6.14c-1.44,1.33-3.61,1.85-6.51,1.55l-16.38-1.71l-0.36,3.49l-5-0.52l0.36-3.49l-7.36-0.77
						l0.64-6.18l7.36,0.77l0.75-7.2l4.99,0.52L383.98,225.57z"/>
					<path d="M408.86,208.3c-0.79,1.88-1.9,3.38-3.33,4.5c-1.43,1.12-3.04,1.74-4.84,1.87l-0.18-6.37c1.26-0.14,2.29-0.78,3.1-1.9
						c0.82-1.12,1.2-2.51,1.15-4.17c-0.05-1.73-0.42-3.06-1.11-3.99c-0.69-0.93-1.56-1.39-2.61-1.36c-1.11,0.03-1.93,0.59-2.44,1.66
						c-0.51,1.08-1.06,2.78-1.64,5.1c-0.55,2.25-1.09,4.08-1.63,5.5c-0.53,1.42-1.38,2.66-2.54,3.72c-1.16,1.06-2.71,1.62-4.65,1.67
						c-1.58,0.04-3.04-0.38-4.39-1.28c-1.34-0.9-2.41-2.21-3.22-3.93c-0.81-1.72-1.24-3.72-1.3-5.99c-0.1-3.38,0.68-6.13,2.33-8.25
						c1.65-2.12,3.95-3.29,6.89-3.52l0.18,6.15c-1.33,0.15-2.37,0.72-3.14,1.71c-0.76,0.99-1.12,2.32-1.07,3.97
						c0.05,1.62,0.39,2.85,1.02,3.7c0.64,0.85,1.46,1.25,2.47,1.23c0.79-0.02,1.45-0.33,1.97-0.92c0.52-0.59,0.93-1.3,1.21-2.14
						c0.28-0.84,0.64-2.07,1.06-3.7c0.51-2.18,1.05-3.96,1.6-5.37c0.55-1.4,1.39-2.62,2.52-3.66c1.12-1.04,2.64-1.61,4.54-1.7
						c1.69-0.05,3.22,0.38,4.57,1.27c1.36,0.9,2.44,2.19,3.24,3.88c0.8,1.69,1.24,3.68,1.3,5.99
						C410.01,204.31,409.65,206.42,408.86,208.3z"/>
				</g>
			</g>
		</g>
		<g>
			<g>
				<g>
					<path class="st4" d="M98.09,301.39c-5.95-5.18-8.92-13.53-8.92-25.06v-11.26h28.99v14.34c0,5.72,2.34,8.58,7.03,8.58
						c2.63,0,4.46-0.6,5.49-1.81c1.03-1.21,1.54-3.24,1.54-6.1c0-3.75-0.57-6.85-1.71-9.31c-1.14-2.46-2.6-4.51-4.37-6.16
						c-1.77-1.65-4.95-4.22-9.52-7.71l-12.69-9.92c-9.84-7.5-14.75-15.81-14.75-24.92c0-9.83,2.89-17.31,8.66-22.45
						c5.77-5.14,14.21-7.71,25.3-7.71c13.26,0,22.81,2.75,28.64,8.24c5.83,5.49,8.75,14.09,8.75,25.79h-30.02l-0.17-7.91
						c0-1.52-0.54-2.72-1.63-3.62c-1.09-0.89-2.6-1.34-4.55-1.34c-2.29,0-4,0.49-5.15,1.47c-1.14,0.98-1.72,2.32-1.72,4.02
						c0,3.75,2.74,7.64,8.23,11.66l17.15,12.86c4,3.04,7.32,5.92,9.95,8.64c2.63,2.73,4.74,5.94,6.35,9.65
						c1.6,3.71,2.4,8.11,2.4,13.2c0,11.35-2.66,19.94-7.98,25.79c-5.32,5.85-14.09,8.78-26.33,8.78
						C113.7,309.16,104.04,306.57,98.09,301.39z"/>
				</g>
				<g>
					<path class="st4" d="M216.12,192.98l0.4,0.91l0.4,0.9l-0.39-1.8c-0.03,0-0.05,0-0.08,0H216.12z"/>
					<path class="st4" d="M228.62,248.06c5.37-1.43,9.15-3.97,11.32-7.64c2.17-3.66,3.26-8.75,3.26-15.28
						c0-7.15-0.69-13.02-2.06-17.62c-1.37-4.6-4.03-8.17-7.98-10.72c-0.22-0.14-0.45-0.26-0.68-0.39l0.51,0.53l0.03,1.16l0.23,10.24
						l0.13,5.8l-4.81-3.25l-8.55-5.78l-1-0.67l-0.26-1.17l-1.69-7.74l-0.79,1.21l-4.13,6.34l-2.24,3.43l-2.6-3.17l-4.86-5.93
						l-1.07-1.3l0.56-1.59l0.54-1.54h-31.34v115.11H201v-52.53c4.23,0,7.15,0.45,8.75,1.34c1.6,0.89,2.4,2.95,2.4,6.16v45.02h28.81
						l0.34-43.55c0-4.73-1-8.49-3-11.26C236.31,250.51,233.08,248.77,228.62,248.06z M208.21,235.59h-7.03v-21.31h6.86
						c1.72,0,3.03,0.29,3.94,0.87c0.91,0.58,1.54,1.63,1.89,3.15c0.34,1.52,0.51,3.8,0.51,6.83
						C214.38,232.11,212.32,235.59,208.21,235.59z"/>
				</g>
				<g>
					<path class="st4" d="M258.98,301.39c-5.95-5.18-8.92-13.53-8.92-25.06v-11.26h28.99v14.34c0,5.72,2.34,8.58,7.03,8.58
						c2.63,0,4.46-0.6,5.49-1.81c1.03-1.21,1.54-3.24,1.54-6.1c0-3.75-0.57-6.85-1.71-9.31c-1.14-2.46-2.6-4.51-4.37-6.16
						c-1.77-1.65-4.95-4.22-9.52-7.71l-12.69-9.92c-9.84-7.5-14.75-15.81-14.75-24.92c0-9.83,2.89-17.31,8.66-22.45
						c5.77-5.14,14.21-7.71,25.3-7.71c13.26,0,22.81,2.75,28.64,8.24c5.83,5.49,8.75,14.09,8.75,25.79h-30.02l-0.17-7.91
						c0-1.52-0.54-2.72-1.63-3.62c-1.09-0.89-2.6-1.34-4.55-1.34c-2.29,0-4,0.49-5.15,1.47c-1.14,0.98-1.72,2.32-1.72,4.02
						c0,3.75,2.74,7.64,8.23,11.66l17.15,12.86c4,3.04,7.32,5.92,9.95,8.64c2.63,2.73,4.74,5.94,6.35,9.65
						c1.6,3.71,2.4,8.11,2.4,13.2c0,11.35-2.66,19.94-7.98,25.79c-5.32,5.85-14.09,8.78-26.33,8.78
						C274.58,309.16,264.92,306.57,258.98,301.39z"/>
				</g>
				<g>
					<polygon class="st4" points="252.09,111.37 260.1,117.06 250.47,127.9 272.96,117.17 266.85,109.95 275.48,98.97 					"/>
					<g>
						<polygon class="st4" points="212.34,130.32 209.56,151.39 219.22,159.13 207.84,164.41 205.06,185.48 200.81,167.68 
							189.43,172.97 198.18,156.68 193.93,138.88 203.59,146.61 						"/>
					</g>
					<polygon class="st4" points="212.55,115.96 232.46,104.28 231.57,120.71 270.14,86.91 243.46,90.47 244.82,67.54 223.76,87.76 
						209.75,73.87 					"/>
					<polygon class="st4" points="192.11,102.72 193.56,92.58 201.05,99.69 201.91,117.22 					"/>
					<path class="st4" d="M179.76,143.78l10.54,11.99l-15.88-0.2l-4.56-9.03L179.76,143.78"/>
					<g>
						<path class="st4" d="M183.03,142.96l10.66,12.13l-3.65-15.28l-2.71-11.34l9.1,7.29l5.91,4.73l1.99-3.7
							c-1.72-6.65-5.17-10.44-5.17-10.44c-16-18.93-47.73-17.13-47.73-17.13S186.88,115.03,183.03,142.96z"/>
						<g>
							<path class="st4" d="M154.94,196.27l6.99-17.03c8.55,0.9,15.51-0.44,21.1-2.81l2.88-5.36l6.59-12.27l-15.51-0.19
								c-8.19,11.37-20.8,11.1-20.8,11.1l-12.46,20.1C148.19,191.35,151.91,193.49,154.94,196.27z"/>
						</g>
						<g>
							<path class="st4" d="M233.8,168.7l21.96,26.87c5.39-4.64,12.63-7.44,21.59-8.34l-26.52-32.45l16.07-13.13l-30.91-14.77
								l-21.47,17.55l-0.69,5.25l3.79,3.04L230.18,142l12.18,1.74l-7.26,10.08l-14.77,1.07l1.38,1.11l5.03,4.03l-5.85,2.72
								l-9.39,4.36l-0.81,6.12l7.02,8.59L233.8,168.7z"/>
						</g>
					</g>
					<g>
						<polygon class="st4" points="230.02,198.17 230.25,208.41 221.7,202.63 217.96,185.48 						"/>
					</g>
					<g>
						<polygon class="st4" points="213.78,195.1 209.64,201.44 204.79,195.51 208.85,183.96 						"/>
					</g>
				</g>
				<g>
					<path d="M29.23,198.51c0.73,1.55,1.02,3.35,0.86,5.4l-6.35-0.48l0.12-1.56c0.18-2.41-0.29-4.27-1.41-5.6
						c-1.13-1.33-3.2-2.11-6.21-2.34l-15.61-1.19l0.47-6.14l29.67,2.26l-0.47,6.14l-4.31-0.33
						C27.42,195.67,28.5,196.96,29.23,198.51z"/>
					<path d="M14.08,236.14l-1.59-22.68c-2.36,0.35-4.2,1.36-5.52,3.04c-1.33,1.68-1.91,3.67-1.75,5.97
						c0.23,3.3,1.78,5.54,4.64,6.71l0.47,6.63c-2.79-0.71-5.14-2.17-7.05-4.4c-1.91-2.23-2.98-5.09-3.23-8.57
						c-0.2-2.84,0.26-5.42,1.38-7.76c1.12-2.33,2.79-4.22,5.01-5.66c2.23-1.44,4.87-2.26,7.92-2.48s5.78,0.22,8.18,1.29
						c2.4,1.08,4.31,2.69,5.73,4.85c1.42,2.16,2.22,4.69,2.43,7.6c0.2,2.8-0.24,5.34-1.3,7.62c-1.07,2.28-2.66,4.1-4.79,5.48
						c-2.12,1.38-4.62,2.17-7.49,2.37C16,236.23,14.99,236.22,14.08,236.14z M18.6,229.6c2.26-0.2,4.02-1.13,5.27-2.81
						c1.25-1.68,1.8-3.68,1.63-6.02c-0.15-2.12-0.95-3.89-2.4-5.3c-1.45-1.41-3.34-2.18-5.66-2.31L18.6,229.6z"/>
					<path d="M11.4,256.28l25.56,2.33l1.57,6.34l-31.61-3.83l-1.77-7.13l26.16-18.13l1.59,6.39L11.4,256.28z"/>
					<path d="M15.84,283.86c0.25-2.59,1.17-4.95,2.77-7.08s3.79-3.81,6.59-5.05c2.77-1.23,5.49-1.71,8.17-1.44
						c2.68,0.27,5.06,1.2,7.15,2.8c2.09,1.59,3.71,3.69,4.86,6.29c1.15,2.6,1.62,5.21,1.4,7.82c-0.22,2.62-1.13,5.01-2.73,7.18
						c-1.6,2.17-3.78,3.86-6.54,5.09c-2.76,1.23-5.49,1.69-8.19,1.39c-2.7-0.3-5.1-1.27-7.23-2.91c-2.12-1.64-3.76-3.76-4.92-6.36
						C16.04,289.03,15.59,286.45,15.84,283.86z M24.91,293.04c1.25,0.96,2.75,1.53,4.48,1.71c1.73,0.18,3.58-0.17,5.56-1.05
						s3.48-2,4.51-3.36c1.03-1.36,1.61-2.82,1.75-4.38c0.14-1.56-0.12-3.06-0.76-4.51c-0.64-1.45-1.58-2.64-2.82-3.56
						c-1.24-0.93-2.7-1.45-4.39-1.57c-1.69-0.12-3.52,0.26-5.49,1.14c-2.93,1.3-4.86,3.05-5.79,5.26c-0.93,2.21-0.89,4.44,0.11,6.71
						C22.71,290.88,23.65,292.08,24.91,293.04z"/>
					<path d="M65.89,297.17L31.8,318.02l-3.21-5.25l34.09-20.86L65.89,297.17z"/>
					<path d="M77.44,329.22l-23.09,18.77l-3.88-4.78l2.72-2.21c-1.56,0.02-3.11-0.36-4.64-1.13c-1.53-0.77-2.86-1.84-3.97-3.21
						c-1.48-1.82-2.42-3.75-2.84-5.8c-0.42-2.05-0.22-4.09,0.59-6.12c0.81-2.03,2.26-3.89,4.36-5.6l13.58-11.04l3.85,4.73
						l-12.87,10.46c-2.07,1.68-3.23,3.49-3.5,5.42c-0.26,1.93,0.33,3.79,1.79,5.58c1.45,1.79,3.16,2.76,5.11,2.91
						c1.95,0.15,3.97-0.61,6.03-2.29l12.86-10.46L77.44,329.22z"/>
					<path d="M84.25,342.12l-11.1,12.17c-0.75,0.83-1.1,1.59-1.04,2.3c0.06,0.71,0.55,1.49,1.48,2.34l2.79,2.55l-3.46,3.79
						L69.34,362c-2.05-1.87-3.18-3.78-3.4-5.73c-0.22-1.95,0.66-4.01,2.62-6.16l11.1-12.17l-2.59-2.36l3.38-3.71l2.59,2.37
						l4.99-5.47l4.59,4.18l-4.98,5.47l5.35,4.88L89.59,347L84.25,342.12z"/>
					<path d="M101.62,349.78l-17.94,23.74l-4.91-3.71l17.94-23.74L101.62,349.78z M100.03,342.21c-0.15-1.06,0.12-2.03,0.79-2.92
						c0.67-0.89,1.54-1.41,2.6-1.56s2.03,0.12,2.92,0.79c0.86,0.65,1.37,1.51,1.52,2.57c0.15,1.06-0.12,2.03-0.79,2.92
						c-0.67,0.89-1.54,1.41-2.6,1.56c-1.06,0.15-2.02-0.1-2.88-0.76C100.69,344.13,100.17,343.27,100.03,342.21z"/>
					<path d="M97.45,381.24c-1.34-2.23-2-4.68-1.98-7.34c0.02-2.66,0.79-5.32,2.3-7.98c1.49-2.63,3.4-4.63,5.71-6.01
						c2.31-1.38,4.78-2.04,7.41-2c2.62,0.04,5.17,0.77,7.65,2.17c2.47,1.41,4.4,3.23,5.78,5.46c1.38,2.23,2.07,4.7,2.07,7.39
						c0,2.69-0.74,5.35-2.24,7.98c-1.5,2.63-3.42,4.62-5.76,5.98c-2.35,1.36-4.86,2.01-7.54,1.96c-2.68-0.05-5.26-0.78-7.73-2.19
						C100.68,385.28,98.79,383.47,97.45,381.24z M110.2,383.24c1.58,0.03,3.12-0.4,4.62-1.29c1.5-0.89,2.78-2.27,3.85-4.15
						c1.07-1.88,1.61-3.67,1.63-5.38c0.02-1.71-0.38-3.23-1.2-4.56c-0.82-1.33-1.91-2.39-3.29-3.17c-1.38-0.78-2.84-1.18-4.39-1.19
						c-1.55-0.01-3.04,0.44-4.46,1.35c-1.43,0.91-2.67,2.3-3.74,4.18c-1.58,2.79-2.1,5.34-1.53,7.67c0.56,2.33,1.92,4.1,4.08,5.33
						C107.14,382.8,108.62,383.21,110.2,383.24z"/>
					<path d="M155.14,377.41c1.44,1.52,2.34,3.35,2.71,5.5c0.37,2.14,0.11,4.49-0.76,7.05l-5.71,16.6l-5.77-1.98l5.41-15.73
						c0.87-2.52,0.9-4.67,0.1-6.45c-0.8-1.78-2.29-3.04-4.46-3.79c-2.18-0.75-4.14-0.67-5.88,0.24c-1.74,0.91-3.04,2.62-3.91,5.14
						l-5.41,15.73l-5.82-2l9.67-28.14l5.82,2l-1.11,3.22c1.35-0.83,2.88-1.31,4.58-1.45c1.7-0.14,3.39,0.08,5.06,0.65
						C151.88,374.74,153.71,375.88,155.14,377.41z"/>
					<path d="M165.56,386.52c1.55-2.11,3.47-3.65,5.77-4.62c2.3-0.97,4.73-1.28,7.3-0.92c2.32,0.32,4.28,1.06,5.88,2.21
						c1.6,1.15,2.83,2.47,3.67,3.97l0.59-4.28l6.15,0.85l-4.1,29.47l-6.15-0.85l0.61-4.39c-1.23,1.25-2.8,2.21-4.71,2.89
						c-1.91,0.68-4.01,0.86-6.29,0.54c-2.53-0.35-4.76-1.32-6.68-2.92c-1.92-1.59-3.34-3.64-4.24-6.15
						c-0.91-2.51-1.15-5.24-0.74-8.2S164.02,388.64,165.56,386.52z M186.21,392.12c-0.63-1.61-1.57-2.91-2.81-3.88
						c-1.25-0.97-2.65-1.57-4.22-1.79c-1.57-0.22-3.08-0.04-4.55,0.54c-1.46,0.58-2.72,1.55-3.76,2.91
						c-1.04,1.36-1.71,3.06-1.99,5.09c-0.28,2.03-0.11,3.87,0.51,5.52c0.62,1.65,1.57,2.97,2.83,3.96c1.26,0.99,2.66,1.6,4.19,1.81
						c1.57,0.22,3.08,0.03,4.55-0.57c1.46-0.6,2.72-1.59,3.77-2.99c1.05-1.4,1.71-3.11,2-5.15
						C187.02,395.56,186.84,393.74,186.21,392.12z"/>
					<path d="M211.13,384.13c1.48-0.87,3.24-1.33,5.3-1.36l0.11,6.37l-1.57,0.03c-2.41,0.04-4.23,0.68-5.45,1.93
						c-1.22,1.25-1.8,3.38-1.75,6.4l0.27,15.66l-6.16,0.1l-0.51-29.75l6.16-0.1l0.07,4.32C208.47,386.2,209.65,385,211.13,384.13z"
						/>
					<path d="M247.05,378.88l-11.13,46.07l-6.29,1l3.69-15.24l-16.18-27.06l6.77-1.08l11.84,21.08l5.01-23.77L247.05,378.88z"/>
					<path d="M277.73,398.96c-2.04-0.07-3.83-0.57-5.39-1.51c-1.56-0.93-2.71-2.22-3.47-3.85l5.88-2.44
						c0.58,1.12,1.54,1.86,2.88,2.22c1.34,0.36,2.77,0.22,4.3-0.41c1.6-0.66,2.71-1.48,3.33-2.46c0.62-0.98,0.74-1.95,0.34-2.92
						c-0.43-1.03-1.24-1.59-2.42-1.68c-1.19-0.09-2.97,0-5.35,0.29c-2.3,0.29-4.2,0.44-5.72,0.44c-1.52,0.01-2.98-0.34-4.38-1.05
						s-2.48-1.95-3.22-3.75c-0.61-1.46-0.73-2.98-0.37-4.55c0.36-1.57,1.2-3.04,2.53-4.41c1.32-1.37,3.03-2.49,5.13-3.35
						c3.12-1.3,5.97-1.55,8.54-0.77c2.57,0.79,4.48,2.52,5.75,5.19l-5.69,2.36c-0.61-1.19-1.52-1.96-2.72-2.32
						c-1.2-0.36-2.57-0.22-4.1,0.41c-1.5,0.62-2.53,1.38-3.09,2.28c-0.56,0.9-0.65,1.81-0.26,2.74c0.3,0.73,0.82,1.24,1.56,1.51
						c0.74,0.28,1.55,0.4,2.43,0.36c0.88-0.03,2.16-0.15,3.84-0.33c2.22-0.3,4.08-0.43,5.59-0.42s2.95,0.37,4.32,1.04
						c1.37,0.68,2.44,1.89,3.21,3.64c0.65,1.56,0.79,3.14,0.44,4.73c-0.35,1.59-1.18,3.06-2.47,4.41c-1.29,1.35-3,2.47-5.13,3.35
						C281.87,398.61,279.77,399.03,277.73,398.96z"/>
					<path d="M306.9,384.42c-2.6,0.13-5.07-0.44-7.41-1.71c-2.34-1.27-4.32-3.2-5.96-5.78c-1.62-2.56-2.49-5.18-2.61-7.87
						c-0.12-2.69,0.45-5.18,1.72-7.48c1.27-2.3,3.11-4.21,5.52-5.72c2.4-1.52,4.92-2.36,7.54-2.53c2.62-0.17,5.12,0.38,7.5,1.65
						c2.38,1.27,4.37,3.18,5.99,5.73s2.47,5.19,2.57,7.9c0.09,2.71-0.51,5.23-1.82,7.57c-1.31,2.34-3.17,4.27-5.57,5.79
						C311.98,383.47,309.5,384.29,306.9,384.42z M314.66,374.12c0.77-1.38,1.11-2.94,1.03-4.68c-0.08-1.74-0.69-3.52-1.85-5.35
						c-1.15-1.83-2.48-3.15-3.98-3.97c-1.5-0.82-3.03-1.18-4.59-1.09c-1.56,0.09-3.01,0.56-4.35,1.41
						c-1.34,0.85-2.38,1.95-3.11,3.31c-0.74,1.36-1.04,2.88-0.91,4.57c0.13,1.69,0.77,3.44,1.93,5.27c1.71,2.71,3.73,4.36,6.04,4.96
						c2.32,0.6,4.53,0.24,6.63-1.09C312.84,376.61,313.89,375.5,314.66,374.12z"/>
					<path d="M318.85,350.51c-0.66-2.55-0.61-5.03,0.15-7.45c0.76-2.41,2.19-4.59,4.28-6.51c2.65-2.44,5.42-3.83,8.31-4.17
						c2.89-0.34,5.72,0.37,8.47,2.14l-4.88,4.5c-1.4-0.72-2.81-0.98-4.25-0.78c-1.44,0.2-2.82,0.91-4.14,2.12
						c-1.85,1.71-2.72,3.72-2.61,6.05c0.11,2.32,1.25,4.66,3.42,7.02c2.17,2.36,4.42,3.69,6.74,4c2.32,0.31,4.4-0.39,6.26-2.1
						c2.62-2.42,3.29-5.17,2.01-8.25l4.88-4.5c1.42,2.81,1.85,5.67,1.31,8.59c-0.54,2.92-2.11,5.58-4.7,7.97
						c-2.09,1.93-4.38,3.17-6.86,3.72c-2.48,0.55-4.96,0.39-7.45-0.47s-4.77-2.42-6.84-4.67
						C320.88,355.46,319.51,353.06,318.85,350.51z"/>
					<path d="M332.85,320.13c-1.07,0.09-2.02-0.22-2.88-0.94c-0.85-0.72-1.33-1.61-1.42-2.68c-0.09-1.06,0.22-2.02,0.94-2.88
						c0.69-0.83,1.58-1.28,2.64-1.38c1.06-0.09,2.03,0.22,2.88,0.94c0.85,0.72,1.33,1.61,1.42,2.68c0.09,1.06-0.21,2.01-0.91,2.84
						C334.8,319.56,333.91,320.04,332.85,320.13z M340.48,318.94l22.76,19.17l-3.97,4.71l-22.75-19.17L340.48,318.94z"/>
					<path d="M350.66,317.84c-1.28-2.28-1.89-4.67-1.83-7.16c0.06-2.49,0.79-4.84,2.17-7.03c1.25-1.98,2.73-3.46,4.44-4.44
						c1.71-0.98,3.42-1.55,5.13-1.7l-3.65-2.31l3.32-5.25l25.15,15.9l-3.32,5.25l-3.74-2.37c0.63,1.63,0.86,3.46,0.69,5.48
						c-0.17,2.02-0.87,4.01-2.1,5.95c-1.37,2.16-3.17,3.79-5.42,4.88c-2.25,1.09-4.7,1.53-7.35,1.32c-2.66-0.21-5.25-1.11-7.77-2.71
						C353.85,322.06,351.94,320.12,350.66,317.84z M364.28,301.34c-1.73-0.09-3.3,0.23-4.7,0.96c-1.4,0.73-2.52,1.77-3.37,3.11
						c-0.85,1.34-1.31,2.79-1.38,4.36c-0.08,1.57,0.29,3.11,1.1,4.63s2.08,2.82,3.82,3.91c1.73,1.1,3.48,1.7,5.24,1.81
						c1.76,0.11,3.35-0.2,4.78-0.94c1.42-0.74,2.55-1.76,3.38-3.07c0.85-1.34,1.3-2.8,1.36-4.38c0.06-1.58-0.33-3.13-1.17-4.67
						c-0.84-1.53-2.13-2.85-3.86-3.94C367.75,302.03,366.01,301.44,364.28,301.34z"/>
					<path d="M355.99,273.93l36.36,16.58l-2.55,5.6l-36.36-16.58L355.99,273.93z"/>
					<path d="M363.39,269.39c-0.97,0.45-1.98,0.48-3.03,0.1c-1.05-0.38-1.8-1.06-2.25-2.03c-0.45-0.97-0.48-1.98-0.1-3.03
						c0.37-1.01,1.04-1.75,2.01-2.2c0.97-0.45,1.98-0.48,3.03-0.1c1.05,0.38,1.8,1.06,2.25,2.03c0.45,0.97,0.49,1.96,0.12,2.98
						C365.04,268.19,364.36,268.94,363.39,269.39z M370.16,265.66l27.93,10.25l-2.12,5.78l-27.93-10.25L370.16,265.66z"/>
					<path d="M401.77,261.62c-1.26,1.61-2.72,2.76-4.39,3.47c-1.67,0.71-3.39,0.89-5.16,0.54l1.49-6.2
						c1.25,0.19,2.42-0.15,3.49-1.02c1.08-0.87,1.81-2.11,2.2-3.72c0.41-1.68,0.39-3.06-0.03-4.15c-0.42-1.08-1.14-1.75-2.16-1.99
						c-1.08-0.26-2.01,0.06-2.79,0.97c-0.77,0.91-1.74,2.4-2.91,4.49c-1.12,2.03-2.12,3.66-3.01,4.89
						c-0.89,1.23-2.03,2.21-3.42,2.92c-1.39,0.72-3.04,0.85-4.93,0.4c-1.54-0.37-2.84-1.16-3.9-2.38c-1.06-1.22-1.75-2.76-2.08-4.64
						c-0.33-1.87-0.23-3.91,0.3-6.12c0.79-3.29,2.26-5.74,4.41-7.35c2.15-1.61,4.67-2.14,7.58-1.59l-1.44,5.99
						c-1.32-0.21-2.48,0.07-3.48,0.83c-1,0.76-1.69,1.95-2.08,3.56c-0.38,1.58-0.37,2.85,0.02,3.84c0.39,0.98,1.08,1.59,2.06,1.83
						c0.77,0.19,1.49,0.06,2.15-0.37s1.24-1.02,1.73-1.75c0.49-0.73,1.15-1.83,1.99-3.3c1.07-1.96,2.05-3.55,2.95-4.76
						c0.9-1.21,2.03-2.17,3.38-2.88c1.36-0.71,2.97-0.86,4.83-0.45c1.65,0.4,3.01,1.21,4.08,2.43c1.08,1.22,1.78,2.75,2.12,4.59
						c0.33,1.84,0.23,3.88-0.31,6.12C403.93,258.08,403.03,260.02,401.77,261.62z"/>
					<path d="M383.98,225.83l16.38,1.71c1.11,0.12,1.93-0.06,2.47-0.53c0.54-0.47,0.87-1.33,1-2.58l0.39-3.76l5.1,0.53l-0.5,4.83
						c-0.29,2.76-1.15,4.8-2.59,6.14c-1.44,1.33-3.61,1.85-6.51,1.55L383.34,232l-0.36,3.49l-5-0.52l0.36-3.49l-7.36-0.77l0.64-6.18
						l7.36,0.77l0.75-7.2l4.99,0.52L383.98,225.83z"/>
					<path d="M408.86,208.56c-0.79,1.88-1.9,3.38-3.33,4.5c-1.43,1.12-3.04,1.74-4.84,1.87l-0.18-6.37c1.26-0.14,2.29-0.78,3.1-1.9
						c0.82-1.12,1.2-2.51,1.15-4.17c-0.05-1.73-0.42-3.06-1.11-3.99c-0.69-0.93-1.56-1.39-2.61-1.36c-1.11,0.03-1.93,0.59-2.44,1.66
						c-0.51,1.08-1.06,2.78-1.64,5.1c-0.55,2.25-1.09,4.08-1.63,5.5c-0.53,1.42-1.38,2.66-2.54,3.72c-1.16,1.06-2.71,1.62-4.65,1.67
						c-1.58,0.04-3.04-0.38-4.39-1.28c-1.34-0.9-2.41-2.21-3.22-3.93c-0.81-1.72-1.24-3.72-1.3-5.99c-0.1-3.38,0.68-6.13,2.33-8.25
						c1.65-2.12,3.95-3.29,6.89-3.52l0.18,6.15c-1.33,0.15-2.37,0.72-3.14,1.71c-0.76,0.99-1.12,2.32-1.07,3.97
						c0.05,1.62,0.39,2.85,1.02,3.7c0.64,0.85,1.46,1.25,2.47,1.23c0.79-0.02,1.45-0.33,1.97-0.92c0.52-0.59,0.93-1.3,1.21-2.14
						c0.28-0.84,0.64-2.07,1.06-3.7c0.51-2.18,1.05-3.96,1.6-5.37c0.55-1.4,1.39-2.62,2.52-3.66c1.12-1.04,2.64-1.61,4.54-1.7
						c1.69-0.05,3.22,0.38,4.57,1.27c1.36,0.9,2.44,2.19,3.24,3.88c0.8,1.69,1.24,3.68,1.3,5.99
						C410.01,204.57,409.65,206.68,408.86,208.56z"/>
				</g>
				<g>
					<path d="M114.52,69.87c-2.55,0.31-4.88-0.02-7-0.96c-2.12-0.95-3.81-2.51-5.09-4.68l6.62-3.9c1.1,1.54,2.53,2.51,4.29,2.89
						c1.76,0.38,3.67-0.04,5.73-1.25c2.14-1.26,3.5-2.75,4.09-4.49s0.4-3.42-0.56-5.05c-0.75-1.27-1.72-2.08-2.93-2.44
						c-1.21-0.36-2.5-0.43-3.86-0.22c-1.36,0.21-3.17,0.64-5.42,1.29c-2.85,0.8-5.23,1.31-7.17,1.55c-1.93,0.24-3.86-0.03-5.77-0.81
						c-1.92-0.77-3.56-2.34-4.95-4.69c-1.28-2.17-1.85-4.39-1.72-6.66c0.13-2.27,0.91-4.41,2.36-6.43c1.44-2.02,3.45-3.78,6.02-5.29
						c3.66-2.15,7.19-3,10.6-2.54c3.41,0.46,6.18,2.2,8.31,5.24l-6.84,4.02c-0.92-1.31-2.26-2.11-4.03-2.38
						c-1.77-0.27-3.63,0.16-5.59,1.31c-1.78,1.04-2.96,2.35-3.55,3.91c-0.59,1.57-0.38,3.2,0.62,4.9c0.68,1.16,1.59,1.9,2.74,2.23
						c1.14,0.33,2.38,0.39,3.73,0.18c1.34-0.2,3.1-0.61,5.28-1.21c2.9-0.78,5.34-1.29,7.32-1.53c1.98-0.24,3.94,0.03,5.89,0.81
						c1.94,0.78,3.62,2.37,5.02,4.75c1.13,1.92,1.68,4.03,1.65,6.34c-0.03,2.31-0.73,4.56-2.1,6.75c-1.37,2.19-3.39,4.08-6.07,5.65
						C119.61,68.67,117.07,69.57,114.52,69.87z"/>
					<path d="M133.2,19.36l4.28,12.12l14.26-5.04l1.95,5.52L139.43,37l4.47,12.65l16.04-5.67l1.95,5.52l-22.81,8.06l-14.61-41.34
						l22.81-8.06l1.95,5.52L133.2,19.36z"/>
					<path d="M191.01,35.68l-18.17,2.41l-1.95,9.28l-7.43,0.98l9.8-45.53l8.24-1.09l21.3,41.41l-7.49,0.99L191.01,35.68z
						 M188.24,30.14l-9.73-19.24l-4.45,21.12L188.24,30.14z"/>
					<path d="M236.85,2.49l-0.48,5.84l-11.62-0.95l-3.09,37.8l-7.16-0.59l3.09-37.8l-11.68-0.96L206.39,0L236.85,2.49z"/>
					<path d="M275.35,12.3l-1.57,5.64l-11.23-3.13l-10.17,36.54l-6.92-1.93l10.17-36.54l-11.29-3.14l1.57-5.64L275.35,12.3z"/>
					<path d="M275.74,54.03l13.38,6.33l-2.48,5.24l-19.87-9.41l18.73-39.58l6.49,3.07L275.74,54.03z"/>
					<path d="M316.26,39.77l-7.33,10.56l12.42,8.62l-3.34,4.81l-12.42-8.62l-7.65,11.02l13.97,9.7l-3.34,4.81l-19.87-13.8
						l25.01-36.02l19.87,13.8l-3.34,4.81L316.26,39.77z"/>
				</g>
				<polygon class="st4" points="373.93,94.77 379.52,112.86 397.62,112.86 382.98,124.04 388.57,142.13 373.93,130.95 
					359.3,142.13 364.89,124.04 350.25,112.86 368.34,112.86 				"/>
				<polygon class="st4" points="42.05,94.77 47.64,112.86 65.73,112.86 51.09,124.04 56.68,142.13 42.05,130.95 27.41,142.13 
					33,124.04 18.37,112.86 36.46,112.86 				"/>
			</g>
		</g>
	</g>
</g>
<g id="Layer_8" class="st0">
</g>
<g id="originals" class="st0">
</g>
</svg>
