<?xml version="1.0" encoding="utf-8"?>
<!-- Generator: Adobe Adobe Illustrator 24.2.0, SVG Export Plug-In . SVG Version: 6.00 Build 0)  -->
<svg version="1.1" xmlns="http://www.w3.org/2000/svg" xmlns:xlink="http://www.w3.org/1999/xlink" x="0px" y="0px" width="242px"
	 height="371px" viewBox="0 0 242 371" style="enable-background:new 0 0 242 371;" xml:space="preserve">
<style type="text/css">
	.st0{display:none;}
	.st1{display:inline;}
	.st2{display:inline;fill:#F02C1C;}
	.st3{display:none;fill:#F02C1C;}
	.st4{fill:#F02C1C;}
	.st5{fill:#FFFFFF;}
</style>
<g id="Layer_2" class="st0">
</g>
<g id="Layer_9" class="st0">
</g>
<g id="Layer_3">
</g>
<g id="Layer_5" class="st0">
</g>
<g id="Layer_4">
</g>
<g id="Layer_6">
</g>
<g id="Layer_7">
	<g>
		<g class="st0">
			<g class="st1">
				<g>
					<path d="M26.17,279.6h-3.88l-11.66-17.65v17.65H6.76v-23.66h3.88l11.66,17.61v-17.61h3.88V279.6z"/>
					<path d="M42.83,259.1v6.94h8.16v3.16h-8.16v7.24h9.18v3.16H38.95v-23.66h13.06v3.16H42.83z"/>
					<path d="M95.22,255.97l-7,23.63h-4.39l-4.96-17.88L73.6,279.6l-4.35,0.03l-6.7-23.66h4.11l4.9,19.24l5.3-19.24h4.35l4.93,19.14
						l4.93-19.14H95.22z"/>
					<path d="M140.14,255.97l-7.82,15.06v8.57h-3.88v-8.57l-7.85-15.06h4.32l5.47,11.59l5.47-11.59H140.14z"/>
					<path d="M155.59,278.29c-1.85-1.03-3.31-2.47-4.39-4.32s-1.62-3.93-1.62-6.24c0-2.31,0.54-4.39,1.62-6.22s2.54-3.27,4.39-4.3
						c1.85-1.03,3.87-1.55,6.07-1.55c2.22,0,4.26,0.52,6.1,1.55c1.85,1.03,3.3,2.46,4.37,4.3s1.6,3.91,1.6,6.22
						c0,2.31-0.53,4.39-1.6,6.24s-2.52,3.29-4.37,4.32c-1.85,1.03-3.88,1.55-6.1,1.55C159.46,279.84,157.44,279.32,155.59,278.29z
						 M165.84,275.4c1.22-0.71,2.18-1.73,2.87-3.06s1.04-2.86,1.04-4.61c0-1.75-0.35-3.28-1.04-4.59s-1.65-2.32-2.87-3.03
						c-1.22-0.7-2.62-1.05-4.18-1.05s-2.96,0.35-4.18,1.05c-1.22,0.7-2.18,1.71-2.87,3.03s-1.04,2.84-1.04,4.59
						c0,1.75,0.35,3.28,1.04,4.61s1.65,2.35,2.87,3.06c1.22,0.71,2.62,1.07,4.18,1.07S164.62,276.12,165.84,275.4z"/>
					<path d="M197.5,279.6l-5.44-9.45h-2.96v9.45h-3.88v-23.63h8.16c1.81,0,3.35,0.32,4.61,0.95c1.26,0.63,2.2,1.48,2.82,2.55
						s0.94,2.26,0.94,3.57c0,1.54-0.45,2.94-1.34,4.2c-0.89,1.26-2.27,2.11-4.13,2.57l5.85,9.79H197.5z M189.1,267.05h4.28
						c1.45,0,2.54-0.36,3.28-1.09c0.74-0.73,1.1-1.7,1.1-2.92c0-1.22-0.36-2.18-1.09-2.87s-1.82-1.04-3.3-1.04h-4.28V267.05z"/>
					<path d="M227.42,279.6l-9.15-10.57v10.57h-3.88v-23.63h3.88v10.78l9.18-10.78h4.86l-10.27,11.83l10.44,11.8H227.42z"/>
					<path d="M5.71,289.24h10.56c1.68,0,2.98,0.38,3.9,1.14c0.92,0.76,1.54,1.83,1.86,3.2c0.32,1.37,0.48,3.13,0.48,5.26
						c0,1.95-0.25,3.47-0.76,4.56c-0.51,1.09-1.39,1.85-2.64,2.28c1.04,0.21,1.79,0.73,2.26,1.56c0.47,0.83,0.7,1.95,0.7,3.36
						l-0.08,13h-6.72v-13.44c0-0.96-0.19-1.57-0.56-1.84c-0.37-0.27-1.05-0.4-2.04-0.4v15.68H5.71V289.24z M14.35,301.96
						c0.96,0,1.44-1.04,1.44-3.12c0-0.91-0.04-1.59-0.12-2.04s-0.23-0.77-0.44-0.94c-0.21-0.17-0.52-0.26-0.92-0.26h-1.6v6.36H14.35
						z"/>
					<path d="M24.79,323.6v-34.36h13.76v6.64h-6.76v6.68h6.48v6.48h-6.48v7.88h7.2v6.68H24.79z"/>
					<path d="M44.43,323.6l-4.24-34.4h6.56l2.52,23.4l2.24-23.4h6.56l-4.24,34.4H44.43z"/>
					<path d="M61.91,321.38c-1.44-1.69-2.16-4.07-2.16-7.14v-16.36c0-2.96,0.72-5.19,2.16-6.7c1.44-1.51,3.55-2.26,6.32-2.26
						c2.77,0,4.88,0.75,6.32,2.26c1.44,1.51,2.16,3.74,2.16,6.7v16.36c0,3.09-0.72,5.48-2.16,7.16c-1.44,1.68-3.55,2.52-6.32,2.52
						C65.45,323.92,63.35,323.07,61.91,321.38z M69.47,316.8c0.21-0.53,0.32-1.28,0.32-2.24v-16.8c0-0.75-0.1-1.35-0.3-1.82
						c-0.2-0.47-0.61-0.7-1.22-0.7c-1.15,0-1.72,0.87-1.72,2.6v16.76c0,0.99,0.12,1.73,0.36,2.24s0.68,0.76,1.32,0.76
						C68.84,317.6,69.25,317.33,69.47,316.8z"/>
					<path d="M79.47,323.6v-34.36h6.88v28.52h7.08v5.84H79.47z"/>
					<path d="M97.01,321.52c-1.37-1.6-2.06-3.97-2.06-7.12v-25.16h6.68v24.88c0,1.09,0.11,1.95,0.32,2.56
						c0.21,0.61,0.67,0.92,1.36,0.92s1.15-0.3,1.36-0.9c0.21-0.6,0.32-1.46,0.32-2.58v-24.88h6.68v25.16c0,3.15-0.69,5.52-2.06,7.12
						s-3.47,2.4-6.3,2.4S98.38,323.12,97.01,321.52z"/>
					<path d="M117.27,323.6v-27.76h-4.08v-6.6h15.04v6.6h-4.08v27.76H117.27z"/>
					<path d="M129.83,323.6v-34.36h6.64v34.36H129.83z"/>
					<path d="M141.1,321.38c-1.44-1.69-2.16-4.07-2.16-7.14v-16.36c0-2.96,0.72-5.19,2.16-6.7c1.44-1.51,3.55-2.26,6.32-2.26
						s4.88,0.75,6.32,2.26c1.44,1.51,2.16,3.74,2.16,6.7v16.36c0,3.09-0.72,5.48-2.16,7.16c-1.44,1.68-3.55,2.52-6.32,2.52
						S142.55,323.07,141.1,321.38z M148.67,316.8c0.21-0.53,0.32-1.28,0.32-2.24v-16.8c0-0.75-0.1-1.35-0.3-1.82
						c-0.2-0.47-0.61-0.7-1.22-0.7c-1.15,0-1.72,0.87-1.72,2.6v16.76c0,0.99,0.12,1.73,0.36,2.24c0.24,0.51,0.68,0.76,1.32,0.76
						C148.04,317.6,148.45,317.33,148.67,316.8z"/>
					<path d="M158.67,323.6v-34.36h7.08l3.16,16.44v-16.44h6.64v34.36h-6.72l-3.44-17.2v17.2H158.67z"/>
					<path d="M177.66,323.6l3.32-34.36h11.64l3.28,34.36h-6.52l-0.48-5.56h-4.16l-0.4,5.56H177.66z M185.26,312.56h3.12l-1.52-17.48
						h-0.32L185.26,312.56z"/>
					<path d="M197.98,289.24h10.56c1.68,0,2.98,0.38,3.9,1.14c0.92,0.76,1.54,1.83,1.86,3.2c0.32,1.37,0.48,3.13,0.48,5.26
						c0,1.95-0.25,3.47-0.76,4.56c-0.51,1.09-1.39,1.85-2.64,2.28c1.04,0.21,1.79,0.73,2.26,1.56c0.47,0.83,0.7,1.95,0.7,3.36
						l-0.08,13h-6.72v-13.44c0-0.96-0.19-1.57-0.56-1.84c-0.37-0.27-1.05-0.4-2.04-0.4v15.68h-6.96V289.24z M206.62,301.96
						c0.96,0,1.44-1.04,1.44-3.12c0-0.91-0.04-1.59-0.12-2.04s-0.23-0.77-0.44-0.94c-0.21-0.17-0.52-0.26-0.92-0.26h-1.6v6.36
						H206.62z"/>
					<path d="M221.22,323.6v-11.32l-5.48-23.04h6.8l1.92,11.64l1.92-11.64h6.8l-5.48,23.04v11.32H221.22z"/>
					<path d="M11.24,364.88c-1.53-0.67-2.73-1.62-3.61-2.85c-0.88-1.23-1.31-2.67-1.31-4.3h5c0.11,1.23,0.59,2.24,1.46,3.03
						c0.86,0.79,2.07,1.19,3.63,1.19c1.61,0,2.87-0.39,3.77-1.17s1.35-1.78,1.35-3.01c0-0.96-0.28-1.74-0.84-2.34
						c-0.56-0.6-1.26-1.07-2.09-1.39c-0.83-0.33-1.99-0.68-3.46-1.07c-1.86-0.49-3.37-0.99-4.53-1.5s-2.15-1.29-2.97-2.36
						c-0.82-1.07-1.23-2.49-1.23-4.26c0-1.64,0.41-3.08,1.23-4.3c0.82-1.23,1.97-2.17,3.44-2.83s3.18-0.98,5.12-0.98
						c2.76,0,5.02,0.69,6.79,2.07c1.76,1.38,2.74,3.27,2.93,5.68h-5.17c-0.08-1.04-0.57-1.93-1.48-2.67
						c-0.9-0.74-2.09-1.11-3.57-1.11c-1.34,0-2.43,0.34-3.28,1.02c-0.85,0.68-1.27,1.67-1.27,2.95c0,0.88,0.27,1.59,0.8,2.15
						c0.53,0.56,1.21,1,2.03,1.33s1.94,0.68,3.36,1.07c1.89,0.52,3.42,1.04,4.61,1.56s2.2,1.32,3.03,2.4
						c0.83,1.08,1.25,2.52,1.25,4.33c0,1.45-0.39,2.82-1.17,4.1c-0.78,1.28-1.91,2.32-3.4,3.09c-1.49,0.78-3.25,1.17-5.27,1.17
						C14.5,365.89,12.77,365.55,11.24,364.88z"/>
					<path d="M37.46,364.02c-2.23-1.24-3.99-2.98-5.29-5.21c-1.3-2.23-1.95-4.74-1.95-7.52c0-2.79,0.65-5.29,1.95-7.5
						c1.3-2.21,3.06-3.94,5.29-5.19c2.23-1.24,4.67-1.87,7.32-1.87c2.68,0,5.13,0.62,7.36,1.87c2.23,1.24,3.98,2.97,5.27,5.19
						c1.28,2.21,1.93,4.71,1.93,7.5c0,2.79-0.64,5.3-1.93,7.52c-1.29,2.23-3.04,3.96-5.27,5.21c-2.23,1.24-4.68,1.87-7.36,1.87
						C42.13,365.89,39.69,365.27,37.46,364.02z M49.83,360.54c1.48-0.86,2.63-2.09,3.46-3.69c0.83-1.6,1.25-3.45,1.25-5.55
						s-0.42-3.95-1.25-5.54c-0.83-1.58-1.99-2.8-3.46-3.65c-1.48-0.85-3.16-1.27-5.04-1.27c-1.89,0-3.57,0.42-5.04,1.27
						c-1.48,0.85-2.63,2.06-3.46,3.65s-1.25,3.43-1.25,5.54s0.42,3.96,1.25,5.55c0.83,1.6,1.99,2.83,3.46,3.69
						c1.48,0.86,3.16,1.29,5.04,1.29C46.67,361.83,48.35,361.4,49.83,360.54z"/>
					<path d="M64.32,343.79c1.3-2.21,3.06-3.94,5.29-5.19c2.23-1.24,4.67-1.87,7.32-1.87c3.03,0,5.73,0.75,8.1,2.23
						c2.36,1.49,4.08,3.6,5.15,6.33h-5.62c-0.74-1.5-1.76-2.62-3.07-3.36c-1.31-0.74-2.83-1.11-4.55-1.11
						c-1.89,0-3.57,0.42-5.04,1.27c-1.48,0.85-2.63,2.06-3.46,3.65c-0.83,1.58-1.25,3.43-1.25,5.54s0.42,3.95,1.25,5.53
						c0.83,1.59,1.99,2.81,3.46,3.67s3.16,1.29,5.04,1.29c1.72,0,3.24-0.37,4.55-1.11c1.31-0.74,2.34-1.86,3.07-3.36h5.62
						c-1.07,2.73-2.78,4.84-5.15,6.31c-2.36,1.48-5.06,2.21-8.1,2.21c-2.68,0-5.12-0.62-7.34-1.87s-3.97-2.97-5.27-5.19
						s-1.95-4.72-1.95-7.5C62.37,348.5,63.02,346,64.32,343.79z"/>
					<path d="M100.3,337.11v28.5h-4.67v-28.5H100.3z"/>
					<path d="M123.62,359.78h-11.93l-2.05,5.82h-4.88l10.21-28.54h5.41l10.21,28.54h-4.92L123.62,359.78z M122.31,355.97
						l-4.63-13.24l-4.67,13.24H122.31z"/>
					<path d="M139.7,361.83h9.63v3.77h-14.31v-28.5h4.67V361.83z"/>
					<path d="M157.9,337.11v28.5h-4.67v-28.5H157.9z"/>
					<path d="M168.27,364.88c-1.53-0.67-2.73-1.62-3.61-2.85c-0.88-1.23-1.31-2.67-1.31-4.3h5c0.11,1.23,0.59,2.24,1.46,3.03
						c0.86,0.79,2.07,1.19,3.63,1.19c1.61,0,2.87-0.39,3.77-1.17c0.9-0.78,1.35-1.78,1.35-3.01c0-0.96-0.28-1.74-0.84-2.34
						c-0.56-0.6-1.26-1.07-2.09-1.39c-0.83-0.33-1.99-0.68-3.46-1.07c-1.86-0.49-3.37-0.99-4.53-1.5c-1.16-0.51-2.15-1.29-2.97-2.36
						c-0.82-1.07-1.23-2.49-1.23-4.26c0-1.64,0.41-3.08,1.23-4.3c0.82-1.23,1.97-2.17,3.44-2.83c1.48-0.66,3.18-0.98,5.12-0.98
						c2.76,0,5.02,0.69,6.79,2.07c1.76,1.38,2.74,3.27,2.93,5.68h-5.17c-0.08-1.04-0.57-1.93-1.48-2.67
						c-0.9-0.74-2.09-1.11-3.57-1.11c-1.34,0-2.43,0.34-3.28,1.02c-0.85,0.68-1.27,1.67-1.27,2.95c0,0.88,0.27,1.59,0.8,2.15
						c0.53,0.56,1.21,1,2.03,1.33c0.82,0.33,1.94,0.68,3.36,1.07c1.89,0.52,3.42,1.04,4.61,1.56s2.2,1.32,3.03,2.4
						c0.83,1.08,1.25,2.52,1.25,4.33c0,1.45-0.39,2.82-1.17,4.1c-0.78,1.28-1.91,2.32-3.4,3.09c-1.49,0.78-3.25,1.17-5.27,1.17
						C171.52,365.89,169.8,365.55,168.27,364.88z"/>
					<path d="M207.22,337.11v3.81h-7.58v24.68h-4.67v-24.68h-7.63v-3.81H207.22z"/>
					<path d="M216.16,364.88c-1.53-0.67-2.73-1.62-3.61-2.85c-0.88-1.23-1.31-2.67-1.31-4.3h5c0.11,1.23,0.59,2.24,1.46,3.03
						c0.86,0.79,2.07,1.19,3.63,1.19c1.61,0,2.87-0.39,3.77-1.17s1.35-1.78,1.35-3.01c0-0.96-0.28-1.74-0.84-2.34
						c-0.56-0.6-1.26-1.07-2.09-1.39c-0.83-0.33-1.99-0.68-3.46-1.07c-1.86-0.49-3.37-0.99-4.53-1.5s-2.15-1.29-2.97-2.36
						c-0.82-1.07-1.23-2.49-1.23-4.26c0-1.64,0.41-3.08,1.23-4.3c0.82-1.23,1.97-2.17,3.44-2.83s3.18-0.98,5.12-0.98
						c2.76,0,5.02,0.69,6.79,2.07c1.76,1.38,2.74,3.27,2.93,5.68h-5.17c-0.08-1.04-0.57-1.93-1.48-2.67
						c-0.9-0.74-2.09-1.11-3.57-1.11c-1.34,0-2.43,0.34-3.28,1.02c-0.85,0.68-1.27,1.67-1.27,2.95c0,0.88,0.27,1.59,0.8,2.15
						c0.53,0.56,1.21,1,2.03,1.33s1.94,0.68,3.36,1.07c1.89,0.52,3.42,1.04,4.61,1.56s2.2,1.32,3.03,2.4
						c0.83,1.08,1.25,2.52,1.25,4.33c0,1.45-0.39,2.82-1.17,4.1c-0.78,1.28-1.91,2.32-3.4,3.09c-1.49,0.78-3.25,1.17-5.27,1.17
						C219.41,365.89,217.69,365.55,216.16,364.88z"/>
				</g>
				<g>
					<g>
						<path class="st4" d="M189.25,236.81c-4.33-3.77-6.49-9.85-6.49-18.23v-8.19h21.09v10.43c0,4.16,1.7,6.24,5.12,6.24
							c1.91,0,3.24-0.44,3.99-1.32c0.75-0.88,1.12-2.35,1.12-4.44c0-2.73-0.42-4.99-1.25-6.78c-0.83-1.79-1.89-3.28-3.18-4.48
							c-1.29-1.2-3.6-3.07-6.93-5.61l-9.23-7.21c-7.16-5.46-10.73-11.5-10.73-18.13c0-7.15,2.1-12.59,6.3-16.33
							c4.2-3.74,10.34-5.61,18.4-5.61c9.65,0,16.6,2,20.84,6c4.24,4,6.36,10.25,6.36,18.77h-21.84l-0.13-5.75
							c0-1.1-0.4-1.98-1.19-2.63c-0.79-0.65-1.89-0.97-3.31-0.97c-1.66,0-2.91,0.36-3.74,1.07c-0.83,0.72-1.25,1.69-1.25,2.92
							c0,2.73,2,5.56,5.99,8.48l12.48,9.36c2.91,2.21,5.32,4.31,7.24,6.29c1.91,1.98,3.45,4.32,4.62,7.02
							c1.16,2.7,1.75,5.9,1.75,9.6c0,8.25-1.93,14.51-5.8,18.77c-3.87,4.26-10.25,6.39-19.15,6.39
							C200.6,242.47,193.57,240.58,189.25,236.81z"/>
					</g>
					<g>
						<path class="st4" d="M8.08,241.39v-83.74h22.09l9.86,40.06v-40.06h20.71v83.74H39.78l-10.73-41.92v41.92H8.08z"/>
						<g>
							<g>
								<polygon class="st4" points="114.01,167.58 113.21,166.6 113.63,165.41 116.35,157.66 99.3,157.66 93.31,186.02 
									87.32,157.66 66.1,157.66 83.2,213.8 83.2,241.39 103.41,241.39 103.41,213.8 116.54,170.68 								"/>
							</g>
						</g>
					</g>
					<g>
						<path class="st4" d="M167.44,198.4c3.97-1.06,6.76-2.94,8.37-5.65c1.61-2.71,2.41-6.47,2.41-11.3c0-5.29-0.51-9.63-1.52-13.03
							c-1.01-3.4-2.98-6.05-5.9-7.93c-2.92-1.88-7.04-2.82-12.37-2.82h-30.29l10.35,10.89l0.21,9.23l-7.71-5.21l-3.25-14.91h-2.8
							v5.02l0.97,2.19l0.49,1.12l-0.67,1.02l-0.8,1.22v74.56h22.07v-38.85c3.13,0,5.28,0.33,6.47,0.99
							c1.18,0.66,1.78,2.18,1.78,4.56v33.3h21.31l0.25-32.21c0-3.5-0.74-6.28-2.22-8.33C173.12,200.21,170.74,198.93,167.44,198.4z
							 M152.34,189.18h-5.2v-15.76h5.07c1.27,0,2.24,0.22,2.92,0.64c0.68,0.43,1.14,1.21,1.4,2.33c0.25,1.12,0.38,2.81,0.38,5.05
							C156.91,186.6,155.39,189.18,152.34,189.18z"/>
					</g>
					<g>
						<polygon class="st4" points="158.37,90.35 165.59,95.47 156.91,105.24 177.18,95.57 171.67,89.07 179.44,79.18 						"/>
						<g>
							<polygon class="st4" points="122.56,107.42 120.05,126.4 128.75,133.37 118.5,138.13 116,157.12 112.17,141.08 
								101.92,145.84 109.8,131.17 105.97,115.13 114.67,122.1 							"/>
						</g>
						<polygon class="st4" points="122.74,94.48 140.68,83.96 139.88,98.76 174.63,68.3 150.6,71.52 151.82,50.86 132.84,69.07 
							120.23,56.56 						"/>
						<polygon class="st4" points="104.33,82.55 105.64,73.42 112.38,79.82 113.16,95.62 						"/>
						<path class="st4" d="M93.2,119.55l9.5,10.8l-14.31-0.18l-4.11-8.13L93.2,119.55"/>
						<g>
							<path class="st4" d="M96.15,118.8l9.61,10.93l-3.29-13.76l-2.44-10.21l8.2,6.56l5.32,4.26l1.79-3.33
								c-1.55-6-4.66-9.41-4.66-9.41c-14.41-17.05-43-15.43-43-15.43S99.62,93.64,96.15,118.8z"/>
							<g>
								<path class="st4" d="M75.79,154.4l1.34-2.9c7.7,0.81,13.98-0.4,19.01-2.53l2.59-4.83l5.94-11.05l-13.97-0.17
									c-7.38,10.24-18.74,10-18.74,10l-8.07,11.49H75.79z"/>
							</g>
							<g>
								<path class="st4" d="M180.57,169.51c1.23-3.75,3.27-6.91,6.1-9.43c1.7-1.51,3.66-2.75,5.86-3.74l0.54-0.59l-35.83-26.29
									l14.48-11.83l-27.85-13.31l-19.35,15.81l-0.62,4.73l3.42,2.74l11.32-9.65l10.97,1.57l-6.54,9.08l-13.3,0.97l1.24,1
									l4.54,3.63l-5.27,2.45l-8.46,3.93l-0.73,5.52l6.33,7.74L141.89,142l16.63,12.93c0,0,17.94-2.13,21.82,14.83L180.57,169.51z"
									/>
							</g>
						</g>
						<polygon class="st4" points="123.85,165.79 120.13,171.5 115.75,166.16 119.41,155.75 						"/>
					</g>
				</g>
			</g>
		</g>
		<g class="st0">
			<g class="st1">
				<g>
					<path d="M31.65,271.6c1.14,1.44,1.72,3.07,1.72,4.88c0,1.55-0.4,2.96-1.21,4.2c-0.81,1.25-1.97,2.23-3.5,2.95
						c-1.53,0.72-3.3,1.08-5.32,1.08H11.1v-30.58h11.66c2.08,0,3.87,0.35,5.37,1.06c1.5,0.7,2.62,1.65,3.39,2.84
						c0.76,1.19,1.14,2.51,1.14,3.98c0,1.76-0.47,3.23-1.41,4.4c-0.94,1.17-2.2,2.04-3.78,2.6C29.11,269.3,30.51,270.16,31.65,271.6
						z M16.12,266.98h6.2c1.64,0,2.93-0.37,3.85-1.12c0.92-0.75,1.39-1.83,1.39-3.23c0-1.38-0.46-2.46-1.39-3.23
						c-0.92-0.78-2.21-1.17-3.85-1.17h-6.2V266.98z M26.9,279.39c0.97-0.82,1.45-1.96,1.45-3.43c0-1.5-0.51-2.68-1.54-3.56
						c-1.03-0.88-2.39-1.32-4.09-1.32h-6.6v9.55h6.78C24.6,280.62,25.93,280.21,26.9,279.39z"/>
					<path d="M54.86,283.02c-2.39-1.33-4.28-3.2-5.68-5.59c-1.39-2.39-2.09-5.08-2.09-8.07c0-2.99,0.7-5.68,2.09-8.05
						c1.39-2.38,3.29-4.23,5.68-5.57s5.01-2,7.85-2c2.87,0,5.51,0.67,7.9,2s4.28,3.19,5.65,5.57c1.38,2.38,2.07,5.06,2.07,8.05
						c0,2.99-0.69,5.68-2.07,8.07c-1.38,2.39-3.26,4.25-5.65,5.59c-2.39,1.34-5.02,2-7.9,2C59.87,285.02,57.25,284.35,54.86,283.02z
						 M68.13,279.28c1.58-0.92,2.82-2.24,3.72-3.96c0.89-1.72,1.34-3.7,1.34-5.96c0-2.26-0.45-4.24-1.34-5.94
						c-0.9-1.7-2.13-3.01-3.72-3.92s-3.39-1.36-5.41-1.36c-2.02,0-3.83,0.46-5.41,1.36s-2.82,2.21-3.72,3.92
						c-0.9,1.7-1.34,3.68-1.34,5.94c0,2.26,0.45,4.25,1.34,5.96c0.89,1.72,2.13,3.04,3.72,3.96c1.58,0.92,3.39,1.39,5.41,1.39
						C64.74,280.67,66.54,280.2,68.13,279.28z"/>
					<path d="M97.74,283.94c-1.64-0.72-2.93-1.74-3.87-3.06s-1.41-2.86-1.41-4.62h5.37c0.12,1.32,0.64,2.41,1.56,3.26
						c0.92,0.85,2.22,1.28,3.89,1.28c1.73,0,3.08-0.42,4.05-1.25c0.97-0.84,1.45-1.91,1.45-3.23c0-1.03-0.3-1.86-0.9-2.51
						c-0.6-0.64-1.35-1.14-2.24-1.5c-0.9-0.35-2.13-0.73-3.72-1.14c-2-0.53-3.62-1.06-4.86-1.61c-1.25-0.54-2.31-1.39-3.19-2.53
						c-0.88-1.14-1.32-2.67-1.32-4.58c0-1.76,0.44-3.3,1.32-4.62c0.88-1.32,2.11-2.33,3.7-3.04s3.42-1.06,5.5-1.06
						c2.96,0,5.39,0.74,7.28,2.22c1.89,1.48,2.94,3.51,3.15,6.09h-5.54c-0.09-1.11-0.62-2.07-1.58-2.86s-2.24-1.19-3.83-1.19
						c-1.44,0-2.61,0.37-3.52,1.1c-0.91,0.73-1.36,1.79-1.36,3.17c0,0.94,0.29,1.71,0.86,2.31c0.57,0.6,1.3,1.08,2.18,1.43
						c0.88,0.35,2.08,0.73,3.61,1.14c2.02,0.56,3.67,1.12,4.95,1.67c1.28,0.56,2.36,1.42,3.26,2.57c0.89,1.16,1.34,2.71,1.34,4.64
						c0,1.55-0.42,3.02-1.25,4.4s-2.05,2.49-3.65,3.32c-1.6,0.84-3.48,1.25-5.65,1.25C101.23,285.02,99.38,284.66,97.74,283.94z"/>
					<path d="M149.48,254.13v4.09h-8.14v26.49h-5.02v-26.49h-8.18v-4.09H149.48z"/>
					<path d="M170.58,283.02c-2.39-1.33-4.28-3.2-5.68-5.59c-1.39-2.39-2.09-5.08-2.09-8.07c0-2.99,0.7-5.68,2.09-8.05
						s3.29-4.23,5.68-5.57c2.39-1.33,5.01-2,7.85-2c2.88,0,5.51,0.67,7.9,2c2.39,1.33,4.27,3.19,5.65,5.57s2.07,5.06,2.07,8.05
						c0,2.99-0.69,5.68-2.07,8.07c-1.38,2.39-3.26,4.25-5.65,5.59c-2.39,1.34-5.02,2-7.9,2
						C175.59,285.02,172.97,284.35,170.58,283.02z M183.85,279.28c1.58-0.92,2.82-2.24,3.72-3.96c0.89-1.72,1.34-3.7,1.34-5.96
						c0-2.26-0.45-4.24-1.34-5.94s-2.13-3.01-3.72-3.92s-3.39-1.36-5.41-1.36c-2.02,0-3.83,0.46-5.41,1.36s-2.82,2.21-3.72,3.92
						c-0.9,1.7-1.34,3.68-1.34,5.94c0,2.26,0.45,4.25,1.34,5.96c0.89,1.72,2.13,3.04,3.72,3.96c1.58,0.92,3.39,1.39,5.41,1.39
						C180.46,280.67,182.26,280.2,183.85,279.28z"/>
					<path d="M234.05,284.71h-5.02l-15.09-22.84v22.84h-5.02v-30.62h5.02l15.09,22.79v-22.79h5.02V284.71z"/>
					<path d="M9.5,294.35h10.56c1.68,0,2.98,0.38,3.9,1.14c0.92,0.76,1.54,1.83,1.86,3.2c0.32,1.37,0.48,3.13,0.48,5.26
						c0,1.95-0.25,3.47-0.76,4.56c-0.51,1.09-1.39,1.85-2.64,2.28c1.04,0.21,1.79,0.73,2.26,1.56c0.47,0.83,0.7,1.95,0.7,3.36
						l-0.08,13h-6.72v-13.44c0-0.96-0.19-1.57-0.56-1.84c-0.37-0.27-1.05-0.4-2.04-0.4v15.68H9.5V294.35z M18.14,307.07
						c0.96,0,1.44-1.04,1.44-3.12c0-0.91-0.04-1.59-0.12-2.04s-0.23-0.77-0.44-0.94c-0.21-0.17-0.52-0.26-0.92-0.26h-1.6v6.36H18.14
						z"/>
					<path d="M28.58,328.71v-34.36h13.76v6.64h-6.76v6.68h6.48v6.48h-6.48v7.88h7.2v6.68H28.58z"/>
					<path d="M48.22,328.71l-4.24-34.4h6.56l2.52,23.4l2.24-23.4h6.56l-4.24,34.4H48.22z"/>
					<path d="M65.7,326.49c-1.44-1.69-2.16-4.07-2.16-7.14v-16.36c0-2.96,0.72-5.19,2.16-6.7c1.44-1.51,3.55-2.26,6.32-2.26
						c2.77,0,4.88,0.75,6.32,2.26c1.44,1.51,2.16,3.74,2.16,6.7v16.36c0,3.09-0.72,5.48-2.16,7.16c-1.44,1.68-3.55,2.52-6.32,2.52
						C69.24,329.03,67.14,328.19,65.7,326.49z M73.26,321.91c0.21-0.53,0.32-1.28,0.32-2.24v-16.8c0-0.75-0.1-1.35-0.3-1.82
						c-0.2-0.47-0.61-0.7-1.22-0.7c-1.15,0-1.72,0.87-1.72,2.6v16.76c0,0.99,0.12,1.73,0.36,2.24s0.68,0.76,1.32,0.76
						C72.63,322.71,73.04,322.45,73.26,321.91z"/>
					<path d="M83.26,328.71v-34.36h6.88v28.52h7.08v5.84H83.26z"/>
					<path d="M100.8,326.63c-1.37-1.6-2.06-3.97-2.06-7.12v-25.16h6.68v24.88c0,1.09,0.11,1.95,0.32,2.56
						c0.21,0.61,0.67,0.92,1.36,0.92c0.69,0,1.15-0.3,1.36-0.9c0.21-0.6,0.32-1.46,0.32-2.58v-24.88h6.68v25.16
						c0,3.15-0.69,5.52-2.06,7.12c-1.37,1.6-3.47,2.4-6.3,2.4C104.27,329.03,102.17,328.23,100.8,326.63z"/>
					<path d="M121.06,328.71v-27.76h-4.08v-6.6h15.04v6.6h-4.08v27.76H121.06z"/>
					<path d="M133.62,328.71v-34.36h6.64v34.36H133.62z"/>
					<path d="M144.9,326.49c-1.44-1.69-2.16-4.07-2.16-7.14v-16.36c0-2.96,0.72-5.19,2.16-6.7c1.44-1.51,3.55-2.26,6.32-2.26
						s4.88,0.75,6.32,2.26c1.44,1.51,2.16,3.74,2.16,6.7v16.36c0,3.09-0.72,5.48-2.16,7.16c-1.44,1.68-3.55,2.52-6.32,2.52
						S146.34,328.19,144.9,326.49z M152.46,321.91c0.21-0.53,0.32-1.28,0.32-2.24v-16.8c0-0.75-0.1-1.35-0.3-1.82
						c-0.2-0.47-0.61-0.7-1.22-0.7c-1.15,0-1.72,0.87-1.72,2.6v16.76c0,0.99,0.12,1.73,0.36,2.24c0.24,0.51,0.68,0.76,1.32,0.76
						C151.83,322.71,152.24,322.45,152.46,321.91z"/>
					<path d="M162.46,328.71v-34.36h7.08l3.16,16.44v-16.44h6.64v34.36h-6.72l-3.44-17.2v17.2H162.46z"/>
					<path d="M181.46,328.71l3.32-34.36h11.64l3.28,34.36h-6.52l-0.48-5.56h-4.16l-0.4,5.56H181.46z M189.05,317.67h3.12
						l-1.52-17.48h-0.32L189.05,317.67z"/>
					<path d="M201.77,294.35h10.56c1.68,0,2.98,0.38,3.9,1.14c0.92,0.76,1.54,1.83,1.86,3.2c0.32,1.37,0.48,3.13,0.48,5.26
						c0,1.95-0.25,3.47-0.76,4.56c-0.51,1.09-1.39,1.85-2.64,2.28c1.04,0.21,1.79,0.73,2.26,1.56c0.47,0.83,0.7,1.95,0.7,3.36
						l-0.08,13h-6.72v-13.44c0-0.96-0.19-1.57-0.56-1.84c-0.37-0.27-1.05-0.4-2.04-0.4v15.68h-6.96V294.35z M210.41,307.07
						c0.96,0,1.44-1.04,1.44-3.12c0-0.91-0.04-1.59-0.12-2.04s-0.23-0.77-0.44-0.94c-0.21-0.17-0.52-0.26-0.92-0.26h-1.6v6.36
						H210.41z"/>
					<path d="M225.01,328.71v-11.32l-5.48-23.04h6.8l1.92,11.64l1.92-11.64h6.8l-5.48,23.04v11.32H225.01z"/>
					<path d="M15.03,370c-1.53-0.67-2.73-1.62-3.61-2.85c-0.88-1.23-1.31-2.67-1.31-4.3h5c0.11,1.23,0.59,2.24,1.46,3.03
						c0.86,0.79,2.07,1.19,3.63,1.19c1.61,0,2.87-0.39,3.77-1.17s1.35-1.78,1.35-3.01c0-0.96-0.28-1.74-0.84-2.34
						c-0.56-0.6-1.26-1.07-2.09-1.39c-0.83-0.33-1.99-0.68-3.46-1.07c-1.86-0.49-3.37-0.99-4.53-1.5c-1.16-0.51-2.15-1.29-2.97-2.36
						c-0.82-1.07-1.23-2.49-1.23-4.26c0-1.64,0.41-3.08,1.23-4.3c0.82-1.23,1.97-2.17,3.44-2.83c1.48-0.66,3.18-0.98,5.12-0.98
						c2.76,0,5.02,0.69,6.79,2.07c1.76,1.38,2.74,3.27,2.93,5.68h-5.17c-0.08-1.04-0.57-1.93-1.48-2.67
						c-0.9-0.74-2.09-1.11-3.57-1.11c-1.34,0-2.43,0.34-3.28,1.02c-0.85,0.68-1.27,1.67-1.27,2.95c0,0.88,0.27,1.59,0.8,2.15
						c0.53,0.56,1.21,1,2.03,1.33c0.82,0.33,1.94,0.68,3.36,1.07c1.89,0.52,3.42,1.04,4.61,1.56c1.19,0.52,2.2,1.32,3.03,2.4
						c0.83,1.08,1.25,2.52,1.25,4.33c0,1.45-0.39,2.82-1.17,4.1c-0.78,1.28-1.91,2.32-3.4,3.09c-1.49,0.78-3.25,1.17-5.27,1.17
						C18.29,371,16.57,370.67,15.03,370z"/>
					<path d="M41.25,369.13c-2.23-1.24-3.99-2.98-5.29-5.21c-1.3-2.23-1.95-4.74-1.95-7.52c0-2.79,0.65-5.29,1.95-7.5
						c1.3-2.21,3.06-3.94,5.29-5.19c2.23-1.24,4.67-1.87,7.32-1.87c2.68,0,5.13,0.62,7.36,1.87c2.23,1.24,3.98,2.97,5.27,5.19
						c1.28,2.21,1.93,4.71,1.93,7.5c0,2.79-0.64,5.3-1.93,7.52c-1.29,2.23-3.04,3.96-5.27,5.21S51.25,371,48.57,371
						C45.92,371,43.48,370.38,41.25,369.13z M53.62,365.65c1.48-0.86,2.63-2.09,3.46-3.69c0.83-1.6,1.25-3.45,1.25-5.55
						s-0.42-3.95-1.25-5.54c-0.83-1.58-1.99-2.8-3.46-3.65c-1.48-0.85-3.16-1.27-5.04-1.27s-3.57,0.42-5.04,1.27
						c-1.48,0.85-2.63,2.06-3.46,3.65s-1.25,3.43-1.25,5.54s0.42,3.96,1.25,5.55c0.83,1.6,1.99,2.83,3.46,3.69s3.16,1.29,5.04,1.29
						S52.14,366.51,53.62,365.65z"/>
					<path d="M68.11,348.9c1.3-2.21,3.06-3.94,5.29-5.19c2.23-1.24,4.67-1.87,7.32-1.87c3.03,0,5.73,0.75,8.1,2.23
						c2.36,1.49,4.08,3.6,5.15,6.33h-5.62c-0.74-1.5-1.76-2.62-3.08-3.36c-1.31-0.74-2.83-1.11-4.55-1.11
						c-1.89,0-3.57,0.42-5.04,1.27c-1.48,0.85-2.63,2.06-3.46,3.65c-0.83,1.58-1.25,3.43-1.25,5.54s0.42,3.95,1.25,5.53
						c0.83,1.59,1.99,2.81,3.46,3.67c1.48,0.86,3.16,1.29,5.04,1.29c1.72,0,3.24-0.37,4.55-1.11c1.31-0.74,2.34-1.86,3.08-3.36h5.62
						c-1.07,2.73-2.78,4.84-5.15,6.31c-2.36,1.48-5.06,2.21-8.1,2.21c-2.68,0-5.12-0.62-7.34-1.87s-3.97-2.97-5.27-5.19
						s-1.95-4.72-1.95-7.5C66.16,353.62,66.81,351.12,68.11,348.9z"/>
					<path d="M104.09,342.22v28.5h-4.67v-28.5H104.09z"/>
					<path d="M127.42,364.89h-11.93l-2.05,5.82h-4.88l10.21-28.54h5.41l10.21,28.54h-4.92L127.42,364.89z M126.1,361.08l-4.63-13.24
						l-4.67,13.24H126.1z"/>
					<path d="M143.49,366.94h9.63v3.77h-14.31v-28.5h4.67V366.94z"/>
					<path d="M161.69,342.22v28.5h-4.67v-28.5H161.69z"/>
					<path d="M172.06,370c-1.53-0.67-2.73-1.62-3.61-2.85c-0.88-1.23-1.31-2.67-1.31-4.3h5c0.11,1.23,0.59,2.24,1.46,3.03
						c0.86,0.79,2.07,1.19,3.63,1.19c1.61,0,2.87-0.39,3.77-1.17s1.35-1.78,1.35-3.01c0-0.96-0.28-1.74-0.84-2.34
						c-0.56-0.6-1.26-1.07-2.09-1.39c-0.83-0.33-1.99-0.68-3.46-1.07c-1.86-0.49-3.37-0.99-4.53-1.5c-1.16-0.51-2.15-1.29-2.97-2.36
						c-0.82-1.07-1.23-2.49-1.23-4.26c0-1.64,0.41-3.08,1.23-4.3c0.82-1.23,1.97-2.17,3.44-2.83c1.48-0.66,3.18-0.98,5.12-0.98
						c2.76,0,5.02,0.69,6.79,2.07c1.76,1.38,2.74,3.27,2.93,5.68h-5.17c-0.08-1.04-0.57-1.93-1.48-2.67
						c-0.9-0.74-2.09-1.11-3.57-1.11c-1.34,0-2.43,0.34-3.28,1.02c-0.85,0.68-1.27,1.67-1.27,2.95c0,0.88,0.27,1.59,0.8,2.15
						c0.53,0.56,1.21,1,2.03,1.33c0.82,0.33,1.94,0.68,3.36,1.07c1.89,0.52,3.42,1.04,4.61,1.56c1.19,0.52,2.2,1.32,3.03,2.4
						c0.83,1.08,1.25,2.52,1.25,4.33c0,1.45-0.39,2.82-1.17,4.1c-0.78,1.28-1.91,2.32-3.4,3.09c-1.49,0.78-3.25,1.17-5.27,1.17
						C175.32,371,173.59,370.67,172.06,370z"/>
					<path d="M211.01,342.22v3.81h-7.58v24.68h-4.67v-24.68h-7.63v-3.81H211.01z"/>
					<path d="M219.95,370c-1.53-0.67-2.73-1.62-3.61-2.85c-0.88-1.23-1.31-2.67-1.31-4.3h5c0.11,1.23,0.59,2.24,1.46,3.03
						c0.86,0.79,2.07,1.19,3.63,1.19c1.61,0,2.87-0.39,3.77-1.17s1.35-1.78,1.35-3.01c0-0.96-0.28-1.74-0.84-2.34
						c-0.56-0.6-1.26-1.07-2.09-1.39c-0.83-0.33-1.99-0.68-3.46-1.07c-1.86-0.49-3.37-0.99-4.53-1.5c-1.16-0.51-2.15-1.29-2.97-2.36
						c-0.82-1.07-1.23-2.49-1.23-4.26c0-1.64,0.41-3.08,1.23-4.3c0.82-1.23,1.97-2.17,3.44-2.83c1.48-0.66,3.18-0.98,5.12-0.98
						c2.76,0,5.02,0.69,6.79,2.07c1.76,1.38,2.74,3.27,2.93,5.68h-5.17c-0.08-1.04-0.57-1.93-1.48-2.67
						c-0.9-0.74-2.09-1.11-3.57-1.11c-1.34,0-2.43,0.34-3.28,1.02c-0.85,0.68-1.27,1.67-1.27,2.95c0,0.88,0.27,1.59,0.8,2.15
						c0.53,0.56,1.21,1,2.03,1.33c0.82,0.33,1.94,0.68,3.36,1.07c1.89,0.52,3.42,1.04,4.61,1.56c1.19,0.52,2.2,1.32,3.03,2.4
						c0.83,1.08,1.25,2.52,1.25,4.33c0,1.45-0.39,2.82-1.17,4.1c-0.78,1.28-1.91,2.32-3.4,3.09c-1.49,0.78-3.25,1.17-5.27,1.17
						C223.2,371,221.48,370.67,219.95,370z"/>
				</g>
				<g>
					<g>
						<path class="st4" d="M130.57,129.19l0.4,0.91l0.4,0.9l-0.39-1.8c-0.03,0-0.05,0-0.08,0H130.57z"/>
						<path class="st4" d="M143.07,184.26c5.37-1.43,9.15-3.97,11.32-7.64c2.17-3.66,3.26-8.75,3.26-15.28
							c0-7.15-0.69-13.02-2.06-17.62c-1.37-4.6-4.03-8.17-7.98-10.72c-0.22-0.14-0.45-0.26-0.68-0.39l0.51,0.53l0.03,1.16
							l0.23,10.24l0.13,5.8l-4.81-3.25l-8.55-5.78l-1-0.67l-0.26-1.17l-1.69-7.74l-0.79,1.21l-4.13,6.34l-2.24,3.43l-2.6-3.17
							l-4.86-5.93l-1.07-1.3l0.56-1.59l0.54-1.54H85.61v115.11h29.84v-52.53c4.23,0,7.15,0.45,8.75,1.34c1.6,0.89,2.4,2.95,2.4,6.16
							v45.02h28.81l0.34-43.55c0-4.73-1-8.49-3-11.26C150.76,186.72,147.53,184.98,143.07,184.26z M122.66,171.8h-7.03v-21.31h6.86
							c1.72,0,3.03,0.29,3.94,0.87c0.91,0.58,1.54,1.63,1.89,3.15c0.34,1.52,0.51,3.8,0.51,6.83
							C128.83,168.31,126.77,171.8,122.66,171.8z"/>
					</g>
					<g>
						<path class="st4" d="M173.42,237.59c-5.95-5.18-8.92-13.53-8.92-25.06v-11.26h28.99v14.34c0,5.72,2.34,8.58,7.03,8.58
							c2.63,0,4.46-0.6,5.49-1.81c1.03-1.21,1.54-3.24,1.54-6.1c0-3.75-0.57-6.85-1.71-9.31c-1.14-2.46-2.6-4.51-4.37-6.16
							c-1.77-1.65-4.95-4.22-9.52-7.71l-12.69-9.92c-9.84-7.5-14.75-15.81-14.75-24.92c0-9.83,2.89-17.31,8.66-22.45
							c5.77-5.14,14.21-7.71,25.3-7.71c13.26,0,22.81,2.75,28.64,8.24c5.83,5.49,8.75,14.09,8.75,25.79h-30.02l-0.17-7.91
							c0-1.52-0.54-2.72-1.63-3.62c-1.09-0.89-2.6-1.34-4.55-1.34c-2.29,0-4,0.49-5.15,1.47c-1.14,0.98-1.72,2.32-1.72,4.02
							c0,3.75,2.74,7.64,8.23,11.66l17.15,12.86c4,3.04,7.32,5.92,9.95,8.64c2.63,2.73,4.74,5.94,6.35,9.65
							c1.6,3.71,2.4,8.11,2.4,13.2c0,11.35-2.66,19.94-7.98,25.79c-5.32,5.85-14.09,8.78-26.33,8.78
							C189.03,245.36,179.37,242.77,173.42,237.59z"/>
					</g>
					<g>
						<polygon class="st4" points="166.54,47.57 174.55,53.27 164.91,64.1 187.41,53.38 181.3,46.16 189.93,35.18 						"/>
						<g>
							<polygon class="st4" points="126.79,66.53 124.01,87.6 133.67,95.33 122.29,100.62 119.51,121.69 115.26,103.88 
								103.88,109.17 112.63,92.88 108.38,75.08 118.04,82.82 							"/>
						</g>
						<polygon class="st4" points="126.99,52.16 146.91,40.49 146.02,56.92 184.58,23.11 157.91,26.68 159.27,3.74 138.21,23.96 
							124.2,10.08 						"/>
						<polygon class="st4" points="106.55,38.92 108.01,28.78 115.5,35.89 116.36,53.43 						"/>
						<path class="st4" d="M94.21,79.99l10.54,11.99l-15.88-0.2l-4.56-9.03L94.21,79.99"/>
						<g>
							<path class="st4" d="M97.48,79.16l10.66,12.13l-3.65-15.28l-2.71-11.34l9.1,7.29l5.91,4.73l1.99-3.7
								c-1.72-6.65-5.17-10.44-5.17-10.44c-16-18.93-47.73-17.13-47.73-17.13S101.32,51.23,97.48,79.16z"/>
							<g>
								<path class="st4" d="M71.38,133.15l4.99-17.71c8.55,0.9,15.51-0.44,21.1-2.81l2.88-5.36l6.59-12.27l-15.51-0.19
									c-8.19,11.37-20.8,11.1-20.8,11.1l-12.46,20.1C62.64,127.55,68.35,130.37,71.38,133.15z"/>
							</g>
							<g>
								<path class="st4" d="M148.25,104.91l21.96,26.87c5.39-4.64,12.63-7.44,21.59-8.34l-26.52-32.45l16.07-13.13l-30.91-14.77
									l-21.47,17.55l-0.69,5.25l3.79,3.04l12.57-10.71l12.18,1.74l-7.26,10.08l-14.77,1.07l1.38,1.11l5.03,4.03l-5.85,2.72
									l-9.39,4.36l-0.81,6.12l7.02,8.59L148.25,104.91z"/>
							</g>
						</g>
						<g>
							<polygon class="st4" points="144.47,134.38 144.7,144.62 136.14,138.84 132.41,121.69 							"/>
						</g>
						<g>
							<polygon class="st4" points="128.22,131.31 124.09,137.65 119.23,131.72 123.29,120.17 							"/>
						</g>
					</g>
					<g>
						<path class="st4" d="M4.89,129.86h39.96c10.75,0,18.55,2.06,23.41,6.16c4.86,4.11,7.29,10.81,7.29,20.1v5.09
							c0,10.99-5.03,17.55-15.09,19.7c6.17,1.25,10.52,4.15,13.04,8.71c2.51,4.56,3.77,10.59,3.77,18.09
							c0,12.24-2.34,21.51-7.03,27.8c-4.69,6.3-13.15,9.45-25.38,9.45H4.89V129.86z M39.71,173.14c2.51,0,4.23-0.74,5.15-2.21
							c0.91-1.47,1.37-3.55,1.37-6.23v-11.52c0-3.75-2.12-5.63-6.35-5.63H33.7v25.59H39.71z M48.11,216.15v-14.34
							c0-3.48-0.66-6.12-1.97-7.91c-1.32-1.79-3.63-2.68-6.95-2.68H33.7v33.37l2.92,0.13C44.28,224.73,48.11,221.87,48.11,216.15z"
							/>
					</g>
				</g>
			</g>
		</g>
		<g>
			<g>
				<g>
					<g>
						<path class="st4" d="M10.65,234.64c-5.95-5.18-8.92-13.53-8.92-25.06v-11.26h28.99v14.34c0,5.72,2.34,8.58,7.03,8.58
							c2.63,0,4.46-0.6,5.49-1.81c1.03-1.21,1.54-3.24,1.54-6.1c0-3.75-0.57-6.85-1.71-9.31c-1.14-2.46-2.6-4.51-4.37-6.16
							c-1.77-1.65-4.95-4.22-9.52-7.71l-12.69-9.92c-9.84-7.5-14.75-15.81-14.75-24.92c0-9.83,2.89-17.31,8.66-22.45
							c5.77-5.14,14.21-7.71,25.3-7.71c13.26,0,22.81,2.75,28.64,8.24c5.83,5.49,8.75,14.09,8.75,25.79H43.07l-0.17-7.91
							c0-1.52-0.54-2.72-1.63-3.62c-1.09-0.89-2.6-1.34-4.55-1.34c-2.29,0-4,0.49-5.15,1.47c-1.14,0.98-1.72,2.32-1.72,4.02
							c0,3.75,2.74,7.64,8.23,11.66l17.15,12.86c4,3.04,7.32,5.92,9.95,8.64c2.63,2.73,4.74,5.94,6.35,9.65
							c1.6,3.71,2.4,8.11,2.4,13.2c0,11.35-2.66,19.94-7.98,25.79c-5.32,5.85-14.09,8.78-26.33,8.78
							C26.26,242.41,16.59,239.82,10.65,234.64z"/>
					</g>
					<g>
						<path class="st4" d="M128.68,126.23l0.4,0.91l0.4,0.9l-0.39-1.8c-0.03,0-0.05,0-0.08,0H128.68z"/>
						<path class="st4" d="M141.18,181.3c5.37-1.43,9.15-3.97,11.32-7.64c2.17-3.66,3.26-8.75,3.26-15.28
							c0-7.15-0.69-13.02-2.06-17.62c-1.37-4.6-4.03-8.17-7.98-10.72c-0.22-0.14-0.45-0.26-0.68-0.39l0.51,0.53l0.03,1.16
							l0.23,10.24l0.13,5.8l-4.81-3.25l-8.55-5.78l-1-0.67l-0.26-1.17l-1.69-7.74l-0.79,1.21l-4.13,6.34l-2.24,3.43l-2.6-3.17
							l-4.86-5.93l-1.07-1.3l0.56-1.59l0.54-1.54H83.72v115.11h29.84v-52.53c4.23,0,7.15,0.45,8.75,1.34c1.6,0.89,2.4,2.95,2.4,6.16
							v45.02h28.81l0.34-43.55c0-4.73-1-8.49-3-11.26C148.87,183.76,145.64,182.02,141.18,181.3z M120.77,168.84h-7.03v-21.31h6.86
							c1.72,0,3.03,0.29,3.94,0.87c0.91,0.58,1.54,1.63,1.89,3.15c0.34,1.52,0.51,3.8,0.51,6.83
							C126.94,165.36,124.88,168.84,120.77,168.84z"/>
					</g>
					<g>
						<path class="st4" d="M171.53,234.64c-5.95-5.18-8.92-13.53-8.92-25.06v-11.26h28.99v14.34c0,5.72,2.34,8.58,7.03,8.58
							c2.63,0,4.46-0.6,5.49-1.81c1.03-1.21,1.54-3.24,1.54-6.1c0-3.75-0.57-6.85-1.71-9.31c-1.14-2.46-2.6-4.51-4.37-6.16
							c-1.77-1.65-4.95-4.22-9.52-7.71l-12.69-9.92c-9.84-7.5-14.75-15.81-14.75-24.92c0-9.83,2.89-17.31,8.66-22.45
							c5.77-5.14,14.21-7.71,25.3-7.71c13.26,0,22.81,2.75,28.64,8.24c5.83,5.49,8.75,14.09,8.75,25.79h-30.02l-0.17-7.91
							c0-1.52-0.54-2.72-1.63-3.62c-1.09-0.89-2.6-1.34-4.55-1.34c-2.29,0-4,0.49-5.15,1.47c-1.14,0.98-1.72,2.32-1.72,4.02
							c0,3.75,2.74,7.64,8.23,11.66l17.15,12.86c4,3.04,7.32,5.92,9.95,8.64c2.63,2.73,4.74,5.94,6.35,9.65
							c1.6,3.71,2.4,8.11,2.4,13.2c0,11.35-2.66,19.94-7.98,25.79c-5.32,5.85-14.09,8.78-26.33,8.78
							C187.14,242.41,177.48,239.82,171.53,234.64z"/>
					</g>
					<g>
						<polygon class="st4" points="164.65,44.62 172.66,50.31 163.02,61.15 185.52,50.42 179.41,43.2 188.04,32.22 						"/>
						<g>
							<polygon class="st4" points="124.9,63.57 122.12,84.64 131.78,92.37 120.4,97.66 117.62,118.73 113.37,100.93 101.99,106.21 
								110.74,89.93 106.49,72.12 116.15,79.86 							"/>
						</g>
						<polygon class="st4" points="125.1,49.2 145.02,37.53 144.13,53.96 182.69,20.15 156.02,23.72 157.38,0.79 136.32,21 
							122.31,7.12 						"/>
						<polygon class="st4" points="104.66,35.97 106.12,25.83 113.61,32.94 114.47,50.47 						"/>
						<path class="st4" d="M92.32,77.03l10.54,11.99l-15.88-0.2l-4.56-9.03L92.32,77.03"/>
						<g>
							<path class="st4" d="M95.59,76.2l10.66,12.13l-3.65-15.28l-2.71-11.34l9.1,7.29l5.91,4.73l1.99-3.7
								c-1.72-6.65-5.17-10.44-5.17-10.44c-16-18.93-47.73-17.13-47.73-17.13S99.44,48.27,95.59,76.2z"/>
							<g>
								<path class="st4" d="M67.49,129.52l6.99-17.03c8.55,0.9,15.51-0.44,21.1-2.81l2.88-5.36l6.59-12.27l-15.51-0.19
									c-8.19,11.37-20.8,11.1-20.8,11.1l-12.46,20.1C60.75,124.59,64.47,126.74,67.49,129.52z"/>
							</g>
							<g>
								<path class="st4" d="M146.36,101.95l21.96,26.87c5.39-4.64,12.63-7.44,21.59-8.34l-26.52-32.45l16.07-13.13l-30.91-14.77
									l-21.47,17.55l-0.69,5.25l3.79,3.04l12.57-10.71l12.18,1.74l-7.26,10.08l-14.77,1.07l1.38,1.11l5.03,4.03L133.46,96
									l-9.39,4.36l-0.81,6.12l7.02,8.59L146.36,101.95z"/>
							</g>
						</g>
						<g>
							<polygon class="st4" points="142.58,131.42 142.81,141.66 134.25,135.88 130.52,118.73 							"/>
						</g>
						<g>
							<polygon class="st4" points="126.33,128.35 122.2,134.69 117.34,128.76 121.4,117.21 							"/>
						</g>
					</g>
					<g>
						<path d="M12.24,280.9c-1.64-0.72-2.93-1.74-3.87-3.06s-1.41-2.86-1.41-4.62h5.37c0.12,1.32,0.64,2.41,1.56,3.26
							c0.92,0.85,2.22,1.28,3.89,1.28c1.73,0,3.08-0.42,4.05-1.25c0.97-0.84,1.45-1.91,1.45-3.23c0-1.03-0.3-1.86-0.9-2.51
							c-0.6-0.64-1.35-1.14-2.24-1.5c-0.9-0.35-2.13-0.73-3.72-1.14c-2-0.53-3.62-1.06-4.86-1.61c-1.25-0.54-2.31-1.39-3.19-2.53
							c-0.88-1.14-1.32-2.67-1.32-4.58c0-1.76,0.44-3.3,1.32-4.62c0.88-1.32,2.11-2.33,3.7-3.04s3.42-1.06,5.5-1.06
							c2.96,0,5.39,0.74,7.28,2.22c1.89,1.48,2.94,3.51,3.15,6.09h-5.54c-0.09-1.11-0.62-2.07-1.58-2.86s-2.24-1.19-3.83-1.19
							c-1.44,0-2.61,0.37-3.52,1.1c-0.91,0.73-1.36,1.79-1.36,3.17c0,0.94,0.29,1.71,0.86,2.31c0.57,0.6,1.3,1.08,2.18,1.43
							c0.88,0.35,2.08,0.73,3.61,1.14c2.02,0.56,3.67,1.12,4.95,1.67c1.28,0.56,2.36,1.42,3.26,2.57c0.89,1.16,1.34,2.71,1.34,4.64
							c0,1.55-0.42,3.02-1.25,4.4s-2.05,2.49-3.65,3.32c-1.6,0.84-3.48,1.25-5.65,1.25C15.73,281.98,13.88,281.62,12.24,280.9z"/>
						<path d="M49.24,255.14v8.98H59.8v4.09H49.24v9.37h11.88v4.09h-16.9v-30.62h16.9v4.09H49.24z"/>
						<path d="M95.66,275.42h-12.8l-2.2,6.25h-5.24l10.96-30.62h5.81l10.96,30.62h-5.28L95.66,275.42z M94.25,271.33l-4.97-14.21
							l-5.02,14.21H94.25z"/>
						<path d="M137.59,251.09v4.09h-8.14v26.49h-5.02v-26.49h-8.18v-4.09H137.59z"/>
						<path d="M172.35,251.09v4.09h-8.14v26.49h-5.02v-26.49h-8.18v-4.09H172.35z"/>
						<path d="M192.37,277.62h10.34v4.05h-15.36v-30.58h5.02V277.62z"/>
						<path d="M221.85,255.14v8.98h10.56v4.09h-10.56v9.37h11.88v4.09h-16.9v-30.62h16.9v4.09H221.85z"/>
						<path d="M7.42,291.31h10.56c1.68,0,2.98,0.38,3.9,1.14c0.92,0.76,1.54,1.83,1.86,3.2c0.32,1.37,0.48,3.13,0.48,5.26
							c0,1.95-0.25,3.47-0.76,4.56c-0.51,1.09-1.39,1.85-2.64,2.28c1.04,0.21,1.79,0.73,2.26,1.56c0.47,0.83,0.7,1.95,0.7,3.36
							l-0.08,13h-6.72v-13.44c0-0.96-0.19-1.57-0.56-1.84c-0.37-0.27-1.05-0.4-2.04-0.4v15.68H7.42V291.31z M16.06,304.03
							c0.96,0,1.44-1.04,1.44-3.12c0-0.91-0.04-1.59-0.12-2.04s-0.23-0.77-0.44-0.94c-0.21-0.17-0.52-0.26-0.92-0.26h-1.6v6.36
							H16.06z"/>
						<path d="M26.5,325.67v-34.36h13.76v6.64H33.5v6.68h6.48v6.48H33.5v7.88h7.2v6.68H26.5z"/>
						<path d="M46.14,325.67l-4.24-34.4h6.56l2.52,23.4l2.24-23.4h6.56l-4.24,34.4H46.14z"/>
						<path d="M63.62,323.45c-1.44-1.69-2.16-4.07-2.16-7.14v-16.36c0-2.96,0.72-5.19,2.16-6.7c1.44-1.51,3.55-2.26,6.32-2.26
							c2.77,0,4.88,0.75,6.32,2.26c1.44,1.51,2.16,3.74,2.16,6.7v16.36c0,3.09-0.72,5.48-2.16,7.16c-1.44,1.68-3.55,2.52-6.32,2.52
							C67.17,325.99,65.06,325.14,63.62,323.45z M71.18,318.87c0.21-0.53,0.32-1.28,0.32-2.24v-16.8c0-0.75-0.1-1.35-0.3-1.82
							c-0.2-0.47-0.61-0.7-1.22-0.7c-1.15,0-1.72,0.87-1.72,2.6v16.76c0,0.99,0.12,1.73,0.36,2.24s0.68,0.76,1.32,0.76
							C70.55,319.67,70.97,319.4,71.18,318.87z"/>
						<path d="M81.18,325.67v-34.36h6.88v28.52h7.08v5.84H81.18z"/>
						<path d="M98.72,323.59c-1.37-1.6-2.06-3.97-2.06-7.12v-25.16h6.68v24.88c0,1.09,0.11,1.95,0.32,2.56
							c0.21,0.61,0.67,0.92,1.36,0.92s1.15-0.3,1.36-0.9c0.21-0.6,0.32-1.46,0.32-2.58v-24.88h6.68v25.16
							c0,3.15-0.69,5.52-2.06,7.12c-1.37,1.6-3.47,2.4-6.3,2.4S100.09,325.19,98.72,323.59z"/>
						<path d="M118.98,325.67v-27.76h-4.08v-6.6h15.04v6.6h-4.08v27.76H118.98z"/>
						<path d="M131.54,325.67v-34.36h6.64v34.36H131.54z"/>
						<path d="M142.82,323.45c-1.44-1.69-2.16-4.07-2.16-7.14v-16.36c0-2.96,0.72-5.19,2.16-6.7c1.44-1.51,3.55-2.26,6.32-2.26
							c2.77,0,4.88,0.75,6.32,2.26c1.44,1.51,2.16,3.74,2.16,6.7v16.36c0,3.09-0.72,5.48-2.16,7.16c-1.44,1.68-3.55,2.52-6.32,2.52
							C146.36,325.99,144.26,325.14,142.82,323.45z M150.38,318.87c0.21-0.53,0.32-1.28,0.32-2.24v-16.8c0-0.75-0.1-1.35-0.3-1.82
							c-0.2-0.47-0.61-0.7-1.22-0.7c-1.15,0-1.72,0.87-1.72,2.6v16.76c0,0.99,0.12,1.73,0.36,2.24s0.68,0.76,1.32,0.76
							C149.75,319.67,150.16,319.4,150.38,318.87z"/>
						<path d="M160.38,325.67v-34.36h7.08l3.16,16.44v-16.44h6.64v34.36h-6.72l-3.44-17.2v17.2H160.38z"/>
						<path d="M179.38,325.67l3.32-34.36h11.64l3.28,34.36h-6.52l-0.48-5.56h-4.16l-0.4,5.56H179.38z M186.98,314.63h3.12
							l-1.52-17.48h-0.32L186.98,314.63z"/>
						<path d="M199.7,291.31h10.56c1.68,0,2.98,0.38,3.9,1.14c0.92,0.76,1.54,1.83,1.86,3.2c0.32,1.37,0.48,3.13,0.48,5.26
							c0,1.95-0.25,3.47-0.76,4.56c-0.51,1.09-1.39,1.85-2.64,2.28c1.04,0.21,1.79,0.73,2.26,1.56c0.47,0.83,0.7,1.95,0.7,3.36
							l-0.08,13h-6.72v-13.44c0-0.96-0.19-1.57-0.56-1.84c-0.37-0.27-1.05-0.4-2.04-0.4v15.68h-6.96V291.31z M208.34,304.03
							c0.96,0,1.44-1.04,1.44-3.12c0-0.91-0.04-1.59-0.12-2.04s-0.23-0.77-0.44-0.94c-0.21-0.17-0.52-0.26-0.92-0.26h-1.6v6.36
							H208.34z"/>
						<path d="M222.94,325.67v-11.32l-5.48-23.04h6.8l1.92,11.64l1.92-11.64h6.8l-5.48,23.04v11.32H222.94z"/>
						<path d="M12.96,366.95c-1.53-0.67-2.73-1.62-3.61-2.85c-0.88-1.23-1.31-2.67-1.31-4.3h5c0.11,1.23,0.59,2.24,1.46,3.03
							c0.86,0.79,2.07,1.19,3.63,1.19c1.61,0,2.87-0.39,3.77-1.17s1.35-1.78,1.35-3.01c0-0.96-0.28-1.74-0.84-2.34
							c-0.56-0.6-1.26-1.07-2.09-1.39c-0.83-0.33-1.99-0.68-3.46-1.07c-1.86-0.49-3.37-0.99-4.53-1.5
							c-1.16-0.51-2.15-1.29-2.97-2.36c-0.82-1.07-1.23-2.49-1.23-4.26c0-1.64,0.41-3.08,1.23-4.3c0.82-1.23,1.97-2.17,3.44-2.83
							c1.48-0.66,3.18-0.98,5.12-0.98c2.76,0,5.02,0.69,6.79,2.07c1.76,1.38,2.74,3.27,2.93,5.68h-5.17
							c-0.08-1.04-0.57-1.93-1.48-2.67c-0.9-0.74-2.09-1.11-3.57-1.11c-1.34,0-2.43,0.34-3.28,1.02c-0.85,0.68-1.27,1.67-1.27,2.95
							c0,0.88,0.27,1.59,0.8,2.15c0.53,0.56,1.21,1,2.03,1.33c0.82,0.33,1.94,0.68,3.36,1.07c1.89,0.52,3.42,1.04,4.61,1.56
							c1.19,0.52,2.2,1.32,3.03,2.4c0.83,1.08,1.25,2.52,1.25,4.33c0,1.45-0.39,2.82-1.17,4.1c-0.78,1.28-1.91,2.32-3.4,3.09
							c-1.49,0.78-3.25,1.17-5.27,1.17C16.21,367.96,14.49,367.62,12.96,366.95z"/>
						<path d="M39.18,366.09c-2.23-1.24-3.99-2.98-5.29-5.21c-1.3-2.23-1.95-4.74-1.95-7.52c0-2.79,0.65-5.29,1.95-7.5
							c1.3-2.21,3.06-3.94,5.29-5.19c2.23-1.24,4.67-1.87,7.32-1.87c2.68,0,5.13,0.62,7.36,1.87c2.23,1.24,3.98,2.97,5.27,5.19
							c1.28,2.21,1.93,4.71,1.93,7.5c0,2.79-0.64,5.3-1.93,7.52c-1.29,2.23-3.04,3.96-5.27,5.21s-4.68,1.87-7.36,1.87
							C43.84,367.96,41.4,367.34,39.18,366.09z M51.54,362.61c1.48-0.86,2.63-2.09,3.46-3.69c0.83-1.6,1.25-3.45,1.25-5.55
							s-0.42-3.95-1.25-5.54c-0.83-1.58-1.99-2.8-3.46-3.65c-1.48-0.85-3.16-1.27-5.04-1.27s-3.57,0.42-5.04,1.27
							c-1.48,0.85-2.63,2.06-3.46,3.65s-1.25,3.43-1.25,5.54s0.42,3.96,1.25,5.55c0.83,1.6,1.99,2.83,3.46,3.69s3.16,1.29,5.04,1.29
							S50.06,363.47,51.54,362.61z"/>
						<path d="M66.03,345.86c1.3-2.21,3.06-3.94,5.29-5.19c2.23-1.24,4.67-1.87,7.32-1.87c3.03,0,5.73,0.75,8.1,2.23
							c2.36,1.49,4.08,3.6,5.15,6.33h-5.62c-0.74-1.5-1.76-2.62-3.08-3.36c-1.31-0.74-2.83-1.11-4.55-1.11
							c-1.89,0-3.57,0.42-5.04,1.27c-1.48,0.85-2.63,2.06-3.46,3.65c-0.83,1.58-1.25,3.43-1.25,5.54s0.42,3.95,1.25,5.53
							c0.83,1.59,1.99,2.81,3.46,3.67c1.48,0.86,3.16,1.29,5.04,1.29c1.72,0,3.24-0.37,4.55-1.11c1.31-0.74,2.34-1.86,3.08-3.36
							h5.62c-1.07,2.73-2.78,4.84-5.15,6.31c-2.36,1.48-5.06,2.21-8.1,2.21c-2.68,0-5.12-0.62-7.34-1.87s-3.97-2.97-5.27-5.19
							s-1.95-4.72-1.95-7.5C64.08,350.57,64.73,348.07,66.03,345.86z"/>
						<path d="M102.01,339.17v28.5h-4.67v-28.5H102.01z"/>
						<path d="M125.34,361.85h-11.93l-2.05,5.82h-4.88l10.21-28.54h5.41l10.21,28.54h-4.92L125.34,361.85z M124.03,358.03
							l-4.63-13.24l-4.67,13.24H124.03z"/>
						<path d="M141.41,363.9h9.63v3.77h-14.31v-28.5h4.67V363.9z"/>
						<path d="M159.61,339.17v28.5h-4.67v-28.5H159.61z"/>
						<path d="M169.99,366.95c-1.53-0.67-2.73-1.62-3.61-2.85c-0.88-1.23-1.31-2.67-1.31-4.3h5c0.11,1.23,0.59,2.24,1.46,3.03
							c0.86,0.79,2.07,1.19,3.63,1.19c1.61,0,2.87-0.39,3.77-1.17s1.35-1.78,1.35-3.01c0-0.96-0.28-1.74-0.84-2.34
							c-0.56-0.6-1.26-1.07-2.09-1.39c-0.83-0.33-1.99-0.68-3.46-1.07c-1.86-0.49-3.37-0.99-4.53-1.5
							c-1.16-0.51-2.15-1.29-2.97-2.36c-0.82-1.07-1.23-2.49-1.23-4.26c0-1.64,0.41-3.08,1.23-4.3c0.82-1.23,1.97-2.17,3.44-2.83
							c1.48-0.66,3.18-0.98,5.12-0.98c2.76,0,5.02,0.69,6.79,2.07c1.76,1.38,2.74,3.27,2.93,5.68h-5.17
							c-0.08-1.04-0.57-1.93-1.48-2.67c-0.9-0.74-2.09-1.11-3.57-1.11c-1.34,0-2.43,0.34-3.28,1.02c-0.85,0.68-1.27,1.67-1.27,2.95
							c0,0.88,0.27,1.59,0.8,2.15c0.53,0.56,1.21,1,2.03,1.33c0.82,0.33,1.94,0.68,3.36,1.07c1.89,0.52,3.42,1.04,4.61,1.56
							c1.19,0.52,2.2,1.32,3.03,2.4c0.83,1.08,1.25,2.52,1.25,4.33c0,1.45-0.39,2.82-1.17,4.1c-0.78,1.28-1.91,2.32-3.4,3.09
							c-1.49,0.78-3.25,1.17-5.27,1.17C173.24,367.96,171.52,367.62,169.99,366.95z"/>
						<path d="M208.94,339.17v3.81h-7.58v24.68h-4.67v-24.68h-7.63v-3.81H208.94z"/>
						<path d="M217.87,366.95c-1.53-0.67-2.73-1.62-3.61-2.85c-0.88-1.23-1.31-2.67-1.31-4.3h5c0.11,1.23,0.59,2.24,1.46,3.03
							c0.86,0.79,2.07,1.19,3.63,1.19c1.61,0,2.87-0.39,3.77-1.17s1.35-1.78,1.35-3.01c0-0.96-0.28-1.74-0.84-2.34
							c-0.56-0.6-1.26-1.07-2.09-1.39c-0.83-0.33-1.99-0.68-3.46-1.07c-1.86-0.49-3.37-0.99-4.53-1.5
							c-1.16-0.51-2.15-1.29-2.97-2.36c-0.82-1.07-1.23-2.49-1.23-4.26c0-1.64,0.41-3.08,1.23-4.3c0.82-1.23,1.97-2.17,3.44-2.83
							c1.48-0.66,3.18-0.98,5.12-0.98c2.76,0,5.02,0.69,6.79,2.07c1.76,1.38,2.74,3.27,2.93,5.68h-5.17
							c-0.08-1.04-0.57-1.93-1.48-2.67c-0.9-0.74-2.09-1.11-3.57-1.11c-1.34,0-2.43,0.34-3.28,1.02c-0.85,0.68-1.27,1.67-1.27,2.95
							c0,0.88,0.27,1.59,0.8,2.15c0.53,0.56,1.21,1,2.03,1.33c0.82,0.33,1.94,0.68,3.36,1.07c1.89,0.52,3.42,1.04,4.61,1.56
							c1.19,0.52,2.2,1.32,3.03,2.4c0.83,1.08,1.25,2.52,1.25,4.33c0,1.45-0.39,2.82-1.17,4.1c-0.78,1.28-1.91,2.32-3.4,3.09
							c-1.49,0.78-3.25,1.17-5.27,1.17C221.13,367.96,219.4,367.62,217.87,366.95z"/>
					</g>
					<g>
						<polygon class="st4" points="164.65,44.62 172.66,50.31 163.02,61.15 185.52,50.42 179.41,43.2 188.04,32.22 						"/>
						<g>
							<polygon class="st4" points="124.9,63.57 122.12,84.64 131.78,92.37 120.4,97.66 117.62,118.73 113.37,100.93 101.99,106.21 
								110.74,89.93 106.49,72.12 116.15,79.86 							"/>
						</g>
						<polygon class="st4" points="125.1,49.2 145.02,37.53 144.13,53.96 182.69,20.15 156.02,23.72 157.38,0.79 136.32,21 
							122.31,7.12 						"/>
						<polygon class="st4" points="104.66,35.97 106.12,25.83 113.61,32.94 114.47,50.47 						"/>
						<path class="st4" d="M92.32,77.03l10.54,11.99l-15.88-0.2l-4.56-9.03L92.32,77.03"/>
						<g>
							<path class="st4" d="M95.59,76.2l10.66,12.13l-3.65-15.28l-2.71-11.34l9.1,7.29l5.91,4.73l1.99-3.7
								c-1.72-6.65-5.17-10.44-5.17-10.44c-16-18.93-47.73-17.13-47.73-17.13S99.44,48.27,95.59,76.2z"/>
							<g>
								<path class="st4" d="M67.49,129.52l6.99-17.03c8.55,0.9,15.51-0.44,21.1-2.81l2.88-5.36l6.59-12.27l-15.51-0.19
									c-8.19,11.37-20.8,11.1-20.8,11.1l-12.46,20.1C60.75,124.59,64.47,126.74,67.49,129.52z"/>
							</g>
							<g>
								<path class="st4" d="M146.36,101.95l21.96,26.87c5.39-4.64,12.63-7.44,21.59-8.34l-26.52-32.45l16.07-13.13l-30.91-14.77
									l-21.47,17.55l-0.69,5.25l3.79,3.04l12.57-10.71l12.18,1.74l-7.26,10.08l-14.77,1.07l1.38,1.11l5.03,4.03L133.46,96
									l-9.39,4.36l-0.81,6.12l7.02,8.59L146.36,101.95z"/>
							</g>
						</g>
						<g>
							<polygon class="st4" points="142.58,131.42 142.81,141.66 134.25,135.88 130.52,118.73 							"/>
						</g>
						<g>
							<polygon class="st4" points="126.33,128.35 122.2,134.69 117.34,128.76 121.4,117.21 							"/>
						</g>
					</g>
					<g>
						<path d="M12.24,280.9c-1.64-0.72-2.93-1.74-3.87-3.06s-1.41-2.86-1.41-4.62h5.37c0.12,1.32,0.64,2.41,1.56,3.26
							c0.92,0.85,2.22,1.28,3.89,1.28c1.73,0,3.08-0.42,4.05-1.25c0.97-0.84,1.45-1.91,1.45-3.23c0-1.03-0.3-1.86-0.9-2.51
							c-0.6-0.64-1.35-1.14-2.24-1.5c-0.9-0.35-2.13-0.73-3.72-1.14c-2-0.53-3.62-1.06-4.86-1.61c-1.25-0.54-2.31-1.39-3.19-2.53
							c-0.88-1.14-1.32-2.67-1.32-4.58c0-1.76,0.44-3.3,1.32-4.62c0.88-1.32,2.11-2.33,3.7-3.04s3.42-1.06,5.5-1.06
							c2.96,0,5.39,0.74,7.28,2.22c1.89,1.48,2.94,3.51,3.15,6.09h-5.54c-0.09-1.11-0.62-2.07-1.58-2.86s-2.24-1.19-3.83-1.19
							c-1.44,0-2.61,0.37-3.52,1.1c-0.91,0.73-1.36,1.79-1.36,3.17c0,0.94,0.29,1.71,0.86,2.31c0.57,0.6,1.3,1.08,2.18,1.43
							c0.88,0.35,2.08,0.73,3.61,1.14c2.02,0.56,3.67,1.12,4.95,1.67c1.28,0.56,2.36,1.42,3.26,2.57c0.89,1.16,1.34,2.71,1.34,4.64
							c0,1.55-0.42,3.02-1.25,4.4s-2.05,2.49-3.65,3.32c-1.6,0.84-3.48,1.25-5.65,1.25C15.73,281.98,13.88,281.62,12.24,280.9z"/>
						<path d="M49.24,255.14v8.98H59.8v4.09H49.24v9.37h11.88v4.09h-16.9v-30.62h16.9v4.09H49.24z"/>
						<path d="M95.66,275.42h-12.8l-2.2,6.25h-5.24l10.96-30.62h5.81l10.96,30.62h-5.28L95.66,275.42z M94.25,271.33l-4.97-14.21
							l-5.02,14.21H94.25z"/>
						<path d="M137.59,251.09v4.09h-8.14v26.49h-5.02v-26.49h-8.18v-4.09H137.59z"/>
						<path d="M172.35,251.09v4.09h-8.14v26.49h-5.02v-26.49h-8.18v-4.09H172.35z"/>
						<path d="M192.37,277.62h10.34v4.05h-15.36v-30.58h5.02V277.62z"/>
						<path d="M221.85,255.14v8.98h10.56v4.09h-10.56v9.37h11.88v4.09h-16.9v-30.62h16.9v4.09H221.85z"/>
						<path d="M7.42,291.31h10.56c1.68,0,2.98,0.38,3.9,1.14c0.92,0.76,1.54,1.83,1.86,3.2c0.32,1.37,0.48,3.13,0.48,5.26
							c0,1.95-0.25,3.47-0.76,4.56c-0.51,1.09-1.39,1.85-2.64,2.28c1.04,0.21,1.79,0.73,2.26,1.56c0.47,0.83,0.7,1.95,0.7,3.36
							l-0.08,13h-6.72v-13.44c0-0.96-0.19-1.57-0.56-1.84c-0.37-0.27-1.05-0.4-2.04-0.4v15.68H7.42V291.31z M16.06,304.03
							c0.96,0,1.44-1.04,1.44-3.12c0-0.91-0.04-1.59-0.12-2.04s-0.23-0.77-0.44-0.94c-0.21-0.17-0.52-0.26-0.92-0.26h-1.6v6.36
							H16.06z"/>
						<path d="M26.5,325.67v-34.36h13.76v6.64H33.5v6.68h6.48v6.48H33.5v7.88h7.2v6.68H26.5z"/>
						<path d="M46.14,325.67l-4.24-34.4h6.56l2.52,23.4l2.24-23.4h6.56l-4.24,34.4H46.14z"/>
						<path d="M63.62,323.45c-1.44-1.69-2.16-4.07-2.16-7.14v-16.36c0-2.96,0.72-5.19,2.16-6.7c1.44-1.51,3.55-2.26,6.32-2.26
							c2.77,0,4.88,0.75,6.32,2.26c1.44,1.51,2.16,3.74,2.16,6.7v16.36c0,3.09-0.72,5.48-2.16,7.16c-1.44,1.68-3.55,2.52-6.32,2.52
							C67.17,325.99,65.06,325.14,63.62,323.45z M71.18,318.87c0.21-0.53,0.32-1.28,0.32-2.24v-16.8c0-0.75-0.1-1.35-0.3-1.82
							c-0.2-0.47-0.61-0.7-1.22-0.7c-1.15,0-1.72,0.87-1.72,2.6v16.76c0,0.99,0.12,1.73,0.36,2.24s0.68,0.76,1.32,0.76
							C70.55,319.67,70.97,319.4,71.18,318.87z"/>
						<path d="M81.18,325.67v-34.36h6.88v28.52h7.08v5.84H81.18z"/>
						<path d="M98.72,323.59c-1.37-1.6-2.06-3.97-2.06-7.12v-25.16h6.68v24.88c0,1.09,0.11,1.95,0.32,2.56
							c0.21,0.61,0.67,0.92,1.36,0.92s1.15-0.3,1.36-0.9c0.21-0.6,0.32-1.46,0.32-2.58v-24.88h6.68v25.16
							c0,3.15-0.69,5.52-2.06,7.12c-1.37,1.6-3.47,2.4-6.3,2.4S100.09,325.19,98.72,323.59z"/>
						<path d="M118.98,325.67v-27.76h-4.08v-6.6h15.04v6.6h-4.08v27.76H118.98z"/>
						<path d="M131.54,325.67v-34.36h6.64v34.36H131.54z"/>
						<path d="M142.82,323.45c-1.44-1.69-2.16-4.07-2.16-7.14v-16.36c0-2.96,0.72-5.19,2.16-6.7c1.44-1.51,3.55-2.26,6.32-2.26
							c2.77,0,4.88,0.75,6.32,2.26c1.44,1.51,2.16,3.74,2.16,6.7v16.36c0,3.09-0.72,5.48-2.16,7.16c-1.44,1.68-3.55,2.52-6.32,2.52
							C146.36,325.99,144.26,325.14,142.82,323.45z M150.38,318.87c0.21-0.53,0.32-1.28,0.32-2.24v-16.8c0-0.75-0.1-1.35-0.3-1.82
							c-0.2-0.47-0.61-0.7-1.22-0.7c-1.15,0-1.72,0.87-1.72,2.6v16.76c0,0.99,0.12,1.73,0.36,2.24s0.68,0.76,1.32,0.76
							C149.75,319.67,150.16,319.4,150.38,318.87z"/>
						<path d="M160.38,325.67v-34.36h7.08l3.16,16.44v-16.44h6.64v34.36h-6.72l-3.44-17.2v17.2H160.38z"/>
						<path d="M179.38,325.67l3.32-34.36h11.64l3.28,34.36h-6.52l-0.48-5.56h-4.16l-0.4,5.56H179.38z M186.98,314.63h3.12
							l-1.52-17.48h-0.32L186.98,314.63z"/>
						<path d="M199.7,291.31h10.56c1.68,0,2.98,0.38,3.9,1.14c0.92,0.76,1.54,1.83,1.86,3.2c0.32,1.37,0.48,3.13,0.48,5.26
							c0,1.95-0.25,3.47-0.76,4.56c-0.51,1.09-1.39,1.85-2.64,2.28c1.04,0.21,1.79,0.73,2.26,1.56c0.47,0.83,0.7,1.95,0.7,3.36
							l-0.08,13h-6.72v-13.44c0-0.96-0.19-1.57-0.56-1.84c-0.37-0.27-1.05-0.4-2.04-0.4v15.68h-6.96V291.31z M208.34,304.03
							c0.96,0,1.44-1.04,1.44-3.12c0-0.91-0.04-1.59-0.12-2.04s-0.23-0.77-0.44-0.94c-0.21-0.17-0.52-0.26-0.92-0.26h-1.6v6.36
							H208.34z"/>
						<path d="M222.94,325.67v-11.32l-5.48-23.04h6.8l1.92,11.64l1.92-11.64h6.8l-5.48,23.04v11.32H222.94z"/>
						<path d="M12.96,366.95c-1.53-0.67-2.73-1.62-3.61-2.85c-0.88-1.23-1.31-2.67-1.31-4.3h5c0.11,1.23,0.59,2.24,1.46,3.03
							c0.86,0.79,2.07,1.19,3.63,1.19c1.61,0,2.87-0.39,3.77-1.17s1.35-1.78,1.35-3.01c0-0.96-0.28-1.74-0.84-2.34
							c-0.56-0.6-1.26-1.07-2.09-1.39c-0.83-0.33-1.99-0.68-3.46-1.07c-1.86-0.49-3.37-0.99-4.53-1.5
							c-1.16-0.51-2.15-1.29-2.97-2.36c-0.82-1.07-1.23-2.49-1.23-4.26c0-1.64,0.41-3.08,1.23-4.3c0.82-1.23,1.97-2.17,3.44-2.83
							c1.48-0.66,3.18-0.98,5.12-0.98c2.76,0,5.02,0.69,6.79,2.07c1.76,1.38,2.74,3.27,2.93,5.68h-5.17
							c-0.08-1.04-0.57-1.93-1.48-2.67c-0.9-0.74-2.09-1.11-3.57-1.11c-1.34,0-2.43,0.34-3.28,1.02c-0.85,0.68-1.27,1.67-1.27,2.95
							c0,0.88,0.27,1.59,0.8,2.15c0.53,0.56,1.21,1,2.03,1.33c0.82,0.33,1.94,0.68,3.36,1.07c1.89,0.52,3.42,1.04,4.61,1.56
							c1.19,0.52,2.2,1.32,3.03,2.4c0.83,1.08,1.25,2.52,1.25,4.33c0,1.45-0.39,2.82-1.17,4.1c-0.78,1.28-1.91,2.32-3.4,3.09
							c-1.49,0.78-3.25,1.17-5.27,1.17C16.21,367.96,14.49,367.62,12.96,366.95z"/>
						<path d="M39.18,366.09c-2.23-1.24-3.99-2.98-5.29-5.21c-1.3-2.23-1.95-4.74-1.95-7.52c0-2.79,0.65-5.29,1.95-7.5
							c1.3-2.21,3.06-3.94,5.29-5.19c2.23-1.24,4.67-1.87,7.32-1.87c2.68,0,5.13,0.62,7.36,1.87c2.23,1.24,3.98,2.97,5.27,5.19
							c1.28,2.21,1.93,4.71,1.93,7.5c0,2.79-0.64,5.3-1.93,7.52c-1.29,2.23-3.04,3.96-5.27,5.21s-4.68,1.87-7.36,1.87
							C43.84,367.96,41.4,367.34,39.18,366.09z M51.54,362.61c1.48-0.86,2.63-2.09,3.46-3.69c0.83-1.6,1.25-3.45,1.25-5.55
							s-0.42-3.95-1.25-5.54c-0.83-1.58-1.99-2.8-3.46-3.65c-1.48-0.85-3.16-1.27-5.04-1.27s-3.57,0.42-5.04,1.27
							c-1.48,0.85-2.63,2.06-3.46,3.65s-1.25,3.43-1.25,5.54s0.42,3.96,1.25,5.55c0.83,1.6,1.99,2.83,3.46,3.69s3.16,1.29,5.04,1.29
							S50.06,363.47,51.54,362.61z"/>
						<path d="M66.03,345.86c1.3-2.21,3.06-3.94,5.29-5.19c2.23-1.24,4.67-1.87,7.32-1.87c3.03,0,5.73,0.75,8.1,2.23
							c2.36,1.49,4.08,3.6,5.15,6.33h-5.62c-0.74-1.5-1.76-2.62-3.08-3.36c-1.31-0.74-2.83-1.11-4.55-1.11
							c-1.89,0-3.57,0.42-5.04,1.27c-1.48,0.85-2.63,2.06-3.46,3.65c-0.83,1.58-1.25,3.43-1.25,5.54s0.42,3.95,1.25,5.53
							c0.83,1.59,1.99,2.81,3.46,3.67c1.48,0.86,3.16,1.29,5.04,1.29c1.72,0,3.24-0.37,4.55-1.11c1.31-0.74,2.34-1.86,3.08-3.36
							h5.62c-1.07,2.73-2.78,4.84-5.15,6.31c-2.36,1.48-5.06,2.21-8.1,2.21c-2.68,0-5.12-0.62-7.34-1.87s-3.97-2.97-5.27-5.19
							s-1.95-4.72-1.95-7.5C64.08,350.57,64.73,348.07,66.03,345.86z"/>
						<path d="M102.01,339.17v28.5h-4.67v-28.5H102.01z"/>
						<path d="M125.34,361.85h-11.93l-2.05,5.82h-4.88l10.21-28.54h5.41l10.21,28.54h-4.92L125.34,361.85z M124.03,358.03
							l-4.63-13.24l-4.67,13.24H124.03z"/>
						<path d="M141.41,363.9h9.63v3.77h-14.31v-28.5h4.67V363.9z"/>
						<path d="M159.61,339.17v28.5h-4.67v-28.5H159.61z"/>
						<path d="M169.99,366.95c-1.53-0.67-2.73-1.62-3.61-2.85c-0.88-1.23-1.31-2.67-1.31-4.3h5c0.11,1.23,0.59,2.24,1.46,3.03
							c0.86,0.79,2.07,1.19,3.63,1.19c1.61,0,2.87-0.39,3.77-1.17s1.35-1.78,1.35-3.01c0-0.96-0.28-1.74-0.84-2.34
							c-0.56-0.6-1.26-1.07-2.09-1.39c-0.83-0.33-1.99-0.68-3.46-1.07c-1.86-0.49-3.37-0.99-4.53-1.5
							c-1.16-0.51-2.15-1.29-2.97-2.36c-0.82-1.07-1.23-2.49-1.23-4.26c0-1.64,0.41-3.08,1.23-4.3c0.82-1.23,1.97-2.17,3.44-2.83
							c1.48-0.66,3.18-0.98,5.12-0.98c2.76,0,5.02,0.69,6.79,2.07c1.76,1.38,2.74,3.27,2.93,5.68h-5.17
							c-0.08-1.04-0.57-1.93-1.48-2.67c-0.9-0.74-2.09-1.11-3.57-1.11c-1.34,0-2.43,0.34-3.28,1.02c-0.85,0.68-1.27,1.67-1.27,2.95
							c0,0.88,0.27,1.59,0.8,2.15c0.53,0.56,1.21,1,2.03,1.33c0.82,0.33,1.94,0.68,3.36,1.07c1.89,0.52,3.42,1.04,4.61,1.56
							c1.19,0.52,2.2,1.32,3.03,2.4c0.83,1.08,1.25,2.52,1.25,4.33c0,1.45-0.39,2.82-1.17,4.1c-0.78,1.28-1.91,2.32-3.4,3.09
							c-1.49,0.78-3.25,1.17-5.27,1.17C173.24,367.96,171.52,367.62,169.99,366.95z"/>
						<path d="M208.94,339.17v3.81h-7.58v24.68h-4.67v-24.68h-7.63v-3.81H208.94z"/>
						<path d="M217.87,366.95c-1.53-0.67-2.73-1.62-3.61-2.85c-0.88-1.23-1.31-2.67-1.31-4.3h5c0.11,1.23,0.59,2.24,1.46,3.03
							c0.86,0.79,2.07,1.19,3.63,1.19c1.61,0,2.87-0.39,3.77-1.17s1.35-1.78,1.35-3.01c0-0.96-0.28-1.74-0.84-2.34
							c-0.56-0.6-1.26-1.07-2.09-1.39c-0.83-0.33-1.99-0.68-3.46-1.07c-1.86-0.49-3.37-0.99-4.53-1.5
							c-1.16-0.51-2.15-1.29-2.97-2.36c-0.82-1.07-1.23-2.49-1.23-4.26c0-1.64,0.41-3.08,1.23-4.3c0.82-1.23,1.97-2.17,3.44-2.83
							c1.48-0.66,3.18-0.98,5.12-0.98c2.76,0,5.02,0.69,6.79,2.07c1.76,1.38,2.74,3.27,2.93,5.68h-5.17
							c-0.08-1.04-0.57-1.93-1.48-2.67c-0.9-0.74-2.09-1.11-3.57-1.11c-1.34,0-2.43,0.34-3.28,1.02c-0.85,0.68-1.27,1.67-1.27,2.95
							c0,0.88,0.27,1.59,0.8,2.15c0.53,0.56,1.21,1,2.03,1.33c0.82,0.33,1.94,0.68,3.36,1.07c1.89,0.52,3.42,1.04,4.61,1.56
							c1.19,0.52,2.2,1.32,3.03,2.4c0.83,1.08,1.25,2.52,1.25,4.33c0,1.45-0.39,2.82-1.17,4.1c-0.78,1.28-1.91,2.32-3.4,3.09
							c-1.49,0.78-3.25,1.17-5.27,1.17C221.13,367.96,219.4,367.62,217.87,366.95z"/>
					</g>
				</g>
			</g>
		</g>
	</g>
</g>
<g id="Layer_8" class="st0">
</g>
<g id="originals" class="st0">
</g>
</svg>
